G04 #@! TF.FileFunction,Copper,L1,Top,Signal*
%FSLAX46Y46*%
G04 Gerber Fmt 4.6, Leading zero omitted, Abs format (unit mm)*
G04 Created by KiCad (PCBNEW 4.0.5) date 2018 March 06, Tuesday 18:40:40*
%MOMM*%
%LPD*%
G01*
G04 APERTURE LIST*
%ADD10C,0.100000*%
%ADD11R,1.300000X1.300000*%
%ADD12C,1.300000*%
%ADD13R,1.200000X1.200000*%
%ADD14C,1.200000*%
%ADD15C,3.500000*%
%ADD16O,1.600000X3.500000*%
%ADD17C,2.540000*%
%ADD18R,2.540000X2.540000*%
%ADD19R,1.727200X3.500000*%
%ADD20O,1.727200X2.032000*%
%ADD21O,1.727200X3.500000*%
%ADD22R,2.032000X2.032000*%
%ADD23O,2.032000X2.032000*%
%ADD24O,3.500000X2.032000*%
%ADD25R,3.500000X1.727200*%
%ADD26O,3.500000X1.727200*%
%ADD27R,1.727200X2.032000*%
%ADD28O,2.032000X3.500000*%
%ADD29C,5.001260*%
%ADD30C,1.998980*%
%ADD31R,2.032000X1.727200*%
%ADD32O,2.032000X1.727200*%
%ADD33C,1.510000*%
%ADD34R,1.510000X1.510000*%
%ADD35O,3.500000X2.000000*%
%ADD36O,1.600000X1.600000*%
%ADD37O,2.000000X3.500000*%
%ADD38O,2.499360X1.501140*%
%ADD39C,1.501140*%
%ADD40C,0.250000*%
%ADD41C,2.000000*%
%ADD42C,1.500000*%
%ADD43C,1.000000*%
%ADD44C,0.500000*%
G04 APERTURE END LIST*
D10*
D11*
X50000000Y-127000000D03*
D12*
X45000000Y-127000000D03*
D11*
X31750000Y-142750000D03*
D12*
X26750000Y-142750000D03*
D13*
X48500000Y-106500000D03*
D14*
X46000000Y-106500000D03*
D13*
X31500000Y-121750000D03*
D14*
X29000000Y-121750000D03*
D11*
X72500000Y-156250000D03*
D12*
X67500000Y-156250000D03*
D11*
X72500000Y-151250000D03*
D12*
X67500000Y-151250000D03*
D13*
X42000000Y-88250000D03*
D14*
X42000000Y-90750000D03*
D13*
X45250000Y-90750000D03*
D14*
X45250000Y-88250000D03*
D13*
X92500000Y-144000000D03*
D14*
X92500000Y-146500000D03*
D13*
X94500000Y-149250000D03*
D14*
X92000000Y-149250000D03*
D13*
X77500000Y-146500000D03*
D14*
X77500000Y-144000000D03*
D13*
X73750000Y-144000000D03*
D14*
X73750000Y-146500000D03*
D11*
X41500000Y-65250000D03*
D15*
X36500000Y-65250000D03*
D13*
X74750000Y-98000000D03*
D14*
X72250000Y-98000000D03*
D16*
X28000000Y-83750000D03*
X30500000Y-83750000D03*
D11*
X60500000Y-120500000D03*
D15*
X65500000Y-120500000D03*
D17*
X33502960Y-83741220D03*
D18*
X33502960Y-68501220D03*
D17*
X68252960Y-113241220D03*
D18*
X68252960Y-98001220D03*
D19*
X74750000Y-136500000D03*
D20*
X72210000Y-136500000D03*
X69670000Y-136500000D03*
X67130000Y-136500000D03*
D21*
X64590000Y-136500000D03*
D22*
X114250000Y-141250000D03*
D23*
X114250000Y-138710000D03*
D22*
X114000000Y-124750000D03*
D24*
X114000000Y-122210000D03*
D25*
X52000000Y-89500000D03*
D26*
X52000000Y-86960000D03*
X52000000Y-84420000D03*
X52000000Y-81880000D03*
D25*
X39000000Y-114000000D03*
D26*
X39000000Y-116540000D03*
X39000000Y-119080000D03*
X39000000Y-121620000D03*
D27*
X103250000Y-96750000D03*
D21*
X100710000Y-96750000D03*
D20*
X98170000Y-96750000D03*
D22*
X93250000Y-43250000D03*
D28*
X95790000Y-43250000D03*
D29*
X50750000Y-111750000D03*
X50750000Y-121910000D03*
X44000000Y-112000000D03*
X44000000Y-122160000D03*
X34250000Y-128250000D03*
X34250000Y-138410000D03*
X27250000Y-128250000D03*
X27250000Y-138410000D03*
D30*
X26750000Y-72000000D03*
X26750000Y-79620000D03*
X61750000Y-101750000D03*
X61750000Y-111910000D03*
D22*
X48750000Y-131000000D03*
D23*
X46210000Y-131000000D03*
D22*
X26750000Y-148750000D03*
D23*
X26750000Y-146210000D03*
D31*
X114000000Y-129000000D03*
D32*
X114000000Y-131540000D03*
D26*
X114000000Y-134080000D03*
D30*
X105750000Y-133250000D03*
X105750000Y-143410000D03*
X109750000Y-135250000D03*
X109750000Y-125090000D03*
X26500000Y-60500000D03*
X46500000Y-60500000D03*
X26500000Y-53500000D03*
X46500000Y-53500000D03*
D33*
X38670000Y-82750000D03*
D34*
X43750000Y-82750000D03*
D33*
X41210000Y-82750000D03*
D30*
X46250000Y-67750000D03*
X46250000Y-77910000D03*
D31*
X110250000Y-146250000D03*
D32*
X110250000Y-143710000D03*
X110250000Y-141170000D03*
X110250000Y-138630000D03*
D35*
X30875000Y-90875000D03*
X30875000Y-93415000D03*
D36*
X30875000Y-95955000D03*
D35*
X30875000Y-98495000D03*
X30875000Y-101035000D03*
D36*
X30875000Y-103575000D03*
D35*
X30875000Y-106115000D03*
D36*
X30875000Y-108655000D03*
D35*
X38495000Y-108655000D03*
X38495000Y-106115000D03*
D36*
X38495000Y-103575000D03*
D35*
X38495000Y-101035000D03*
X38495000Y-98495000D03*
D36*
X38495000Y-95955000D03*
D35*
X38495000Y-93415000D03*
D36*
X38495000Y-90875000D03*
X81000000Y-128750000D03*
X81000000Y-131290000D03*
X81000000Y-133830000D03*
X81000000Y-136370000D03*
X81000000Y-138910000D03*
X81000000Y-141450000D03*
X81000000Y-143990000D03*
D35*
X81000000Y-146530000D03*
D36*
X81000000Y-149070000D03*
X81000000Y-151610000D03*
X81000000Y-154150000D03*
X81000000Y-156690000D03*
X81000000Y-159230000D03*
X81000000Y-161770000D03*
X88620000Y-161770000D03*
X88620000Y-159230000D03*
X88620000Y-156690000D03*
X88620000Y-154150000D03*
X88620000Y-151610000D03*
X88620000Y-149070000D03*
X88620000Y-146530000D03*
D35*
X88620000Y-143990000D03*
D36*
X88620000Y-141450000D03*
X88620000Y-138910000D03*
X88620000Y-136370000D03*
X88620000Y-133830000D03*
X88620000Y-131290000D03*
X88620000Y-128750000D03*
D20*
X98050000Y-112910000D03*
X100590000Y-112910000D03*
D37*
X103130000Y-112910000D03*
D20*
X105670000Y-112910000D03*
X108210000Y-112910000D03*
D27*
X110750000Y-112910000D03*
X110750000Y-102750000D03*
D20*
X108210000Y-102750000D03*
X105670000Y-102750000D03*
D37*
X103130000Y-102750000D03*
D20*
X100590000Y-102750000D03*
X98050000Y-102750000D03*
D38*
X39599440Y-73000000D03*
X39599440Y-69299220D03*
X39599440Y-76700780D03*
X39599440Y-74800860D03*
X39599440Y-71199140D03*
X74849440Y-106500000D03*
X74849440Y-102799220D03*
X74849440Y-110200780D03*
X74849440Y-108300860D03*
X74849440Y-104699140D03*
D27*
X31250000Y-41750000D03*
D20*
X33790000Y-41750000D03*
X36330000Y-41750000D03*
X38870000Y-41750000D03*
D37*
X41410000Y-41750000D03*
D20*
X43950000Y-41750000D03*
D39*
X76750000Y-156190940D03*
X76750000Y-151309060D03*
D30*
X26250000Y-38090000D03*
D40*
X54750000Y-86750000D02*
X54750000Y-86250000D01*
X55250000Y-85250000D02*
X55250000Y-76250000D01*
X55250000Y-85750000D02*
X55250000Y-85250000D01*
X55250000Y-76250000D02*
X46250000Y-67750000D01*
X54750000Y-86250000D02*
X55250000Y-85750000D01*
X52000000Y-86960000D02*
X54290000Y-86960000D01*
X54290000Y-86960000D02*
X54500000Y-86750000D01*
X26250000Y-38090000D02*
X40840000Y-38090000D01*
X40840000Y-38090000D02*
X40750000Y-38000000D01*
X40750000Y-38000000D02*
X40500000Y-38000000D01*
X40500000Y-38000000D02*
X40500000Y-37750000D01*
X27250000Y-39750000D02*
X27250000Y-39090000D01*
X27250000Y-39090000D02*
X26250000Y-38090000D01*
X41410000Y-38660000D02*
X41410000Y-41750000D01*
X40750000Y-38000000D02*
X40500000Y-37750000D01*
X40500000Y-37750000D02*
X41410000Y-38660000D01*
D41*
X36500000Y-53250000D02*
X27250000Y-44000000D01*
D40*
X27250000Y-44000000D02*
X27250000Y-39750000D01*
X27250000Y-39750000D02*
X27250000Y-39590000D01*
X36500000Y-65250000D02*
X36500000Y-53250000D01*
X95790000Y-43250000D02*
X95790000Y-46870000D01*
X100710000Y-51790000D02*
X100710000Y-96750000D01*
D41*
X95790000Y-46870000D02*
X100710000Y-51790000D01*
X56000000Y-99250000D02*
X56000000Y-113250000D01*
X56000000Y-99250000D02*
X57750000Y-97500000D01*
X57750000Y-97500000D02*
X57750000Y-89750000D01*
D40*
X54625000Y-86625000D02*
X54750000Y-86750000D01*
X54750000Y-86750000D02*
X57750000Y-89750000D01*
X114000000Y-122210000D02*
X112630000Y-122210000D01*
X112630000Y-122210000D02*
X109750000Y-125090000D01*
X114000000Y-134080000D02*
X112580000Y-134080000D01*
X112580000Y-134080000D02*
X111000000Y-132500000D01*
X111000000Y-132500000D02*
X106500000Y-132500000D01*
X106500000Y-132500000D02*
X105750000Y-133250000D01*
X109750000Y-125090000D02*
X109340000Y-125090000D01*
X109340000Y-125090000D02*
X103130000Y-118880000D01*
X103130000Y-118880000D02*
X103130000Y-112910000D01*
X105750000Y-133250000D02*
X105750000Y-134000000D01*
X105750000Y-134000000D02*
X95000000Y-144750000D01*
D41*
X56000000Y-113250000D02*
X56250000Y-113250000D01*
X56250000Y-113250000D02*
X59750000Y-116750000D01*
X59750000Y-116750000D02*
X63500000Y-116750000D01*
D40*
X63500000Y-116750000D02*
X66121162Y-119371162D01*
X66121162Y-119371162D02*
X66121161Y-119371162D01*
X39000000Y-116540000D02*
X53210000Y-116540000D01*
D41*
X53210000Y-116540000D02*
X56000000Y-113750000D01*
X56000000Y-113750000D02*
X56000000Y-113250000D01*
D40*
X74750000Y-136500000D02*
X74750000Y-121994080D01*
X74750000Y-121994080D02*
X68252960Y-115497040D01*
D42*
X73000000Y-110200780D02*
X71293400Y-110200780D01*
D40*
X71293400Y-110200780D02*
X68252960Y-113241220D01*
X68252960Y-113241220D02*
X68252960Y-115497040D01*
X68252960Y-115497040D02*
X66121161Y-119371162D01*
X66121161Y-119371162D02*
X65500000Y-120500000D01*
D42*
X39599440Y-73000000D02*
X42250000Y-73000000D01*
D40*
X42250000Y-73000000D02*
X46250000Y-69000000D01*
X46250000Y-69000000D02*
X46250000Y-67750000D01*
D41*
X109800000Y-125040000D02*
X109750000Y-125090000D01*
D40*
X103130000Y-112910000D02*
X103130000Y-102750000D01*
X105750000Y-133250000D02*
X105750000Y-127000000D01*
X105750000Y-127000000D02*
X107500000Y-125250000D01*
X107500000Y-125250000D02*
X107660000Y-125090000D01*
X107660000Y-125090000D02*
X109750000Y-125090000D01*
D41*
X64590000Y-140590000D02*
X73660000Y-140590000D01*
D40*
X74750000Y-139500000D02*
X74750000Y-136500000D01*
X73660000Y-140590000D02*
X74750000Y-139500000D01*
X64590000Y-136500000D02*
X64590000Y-140590000D01*
D41*
X64590000Y-140590000D02*
X70500000Y-146500000D01*
D40*
X103130000Y-102750000D02*
X103130000Y-100880000D01*
X100710000Y-98460000D02*
X100710000Y-96750000D01*
X103130000Y-100880000D02*
X100710000Y-98460000D01*
D43*
X33502960Y-83741220D02*
X30508780Y-83741220D01*
D42*
X39599440Y-76700780D02*
X36549220Y-76700780D01*
X33502960Y-79747040D02*
X33502960Y-83741220D01*
X36549220Y-76700780D02*
X33502960Y-79747040D01*
D40*
X36500000Y-65250000D02*
X36500000Y-72500000D01*
D42*
X36500000Y-72500000D02*
X37000000Y-73000000D01*
X39599440Y-76700780D02*
X37450780Y-76700780D01*
X37000000Y-73000000D02*
X39599440Y-73000000D01*
X36750000Y-73250000D02*
X37000000Y-73000000D01*
X36750000Y-76000000D02*
X36750000Y-73250000D01*
X37450780Y-76700780D02*
X36750000Y-76000000D01*
D40*
X72250000Y-98000000D02*
X71250000Y-99000000D01*
D42*
X71250000Y-105500000D02*
X72250000Y-106500000D01*
D40*
X71250000Y-99000000D02*
X71250000Y-105500000D01*
D42*
X30875000Y-98495000D02*
X30875000Y-101035000D01*
X38495000Y-98495000D02*
X38495000Y-101035000D01*
D40*
X73750000Y-146500000D02*
X70500000Y-146500000D01*
X67500000Y-149500000D02*
X67500000Y-151250000D01*
X70500000Y-146500000D02*
X67500000Y-149500000D01*
X73750000Y-146500000D02*
X77500000Y-146500000D01*
D42*
X81000000Y-146530000D02*
X82970000Y-146530000D01*
X85510000Y-143990000D02*
X88620000Y-143990000D01*
X82970000Y-146530000D02*
X85510000Y-143990000D01*
D40*
X81000000Y-146530000D02*
X77530000Y-146530000D01*
D42*
X77530000Y-146530000D02*
X77500000Y-146500000D01*
D40*
X92500000Y-144000000D02*
X94250000Y-144000000D01*
X95000000Y-144750000D02*
X95000000Y-148750000D01*
X94250000Y-144000000D02*
X95000000Y-144750000D01*
X95000000Y-148750000D02*
X94500000Y-149250000D01*
X92500000Y-144000000D02*
X88630000Y-144000000D01*
D42*
X88630000Y-144000000D02*
X88620000Y-143990000D01*
D40*
X67500000Y-156250000D02*
X67500000Y-151250000D01*
D42*
X74849440Y-110200780D02*
X73000000Y-110200780D01*
X73000000Y-110200780D02*
X72950780Y-110200780D01*
X72250000Y-109500000D02*
X72250000Y-106500000D01*
X72950780Y-110200780D02*
X72250000Y-109500000D01*
X74849440Y-106500000D02*
X72250000Y-106500000D01*
X74793400Y-110200780D02*
X74849440Y-110200780D01*
D40*
X52000000Y-89500000D02*
X51000000Y-90500000D01*
D42*
X40345000Y-108655000D02*
X38495000Y-108655000D01*
X40345000Y-108655000D02*
X51000000Y-98000000D01*
X51000000Y-90500000D02*
X51000000Y-98000000D01*
X49200002Y-92000000D02*
X49200002Y-85299998D01*
X39635000Y-106115000D02*
X49200002Y-96549998D01*
X49200002Y-96549998D02*
X49200002Y-92000000D01*
X38495000Y-106115000D02*
X39635000Y-106115000D01*
X50080000Y-84420000D02*
X51500000Y-84420000D01*
X49200002Y-85299998D02*
X50080000Y-84420000D01*
X47500000Y-88000000D02*
X47500000Y-83500000D01*
X46085000Y-93415000D02*
X47500000Y-92000000D01*
X47500000Y-92000000D02*
X47500000Y-88000000D01*
X38495000Y-93415000D02*
X46085000Y-93415000D01*
X49120000Y-81880000D02*
X51500000Y-81880000D01*
X47500000Y-83500000D02*
X49120000Y-81880000D01*
X30875000Y-90875000D02*
X34375000Y-90875000D01*
X35500000Y-109750000D02*
X39000000Y-113250000D01*
X35500000Y-92000000D02*
X35500000Y-109750000D01*
X34375000Y-90875000D02*
X35500000Y-92000000D01*
X39000000Y-113250000D02*
X39000000Y-114000000D01*
X39000000Y-114000000D02*
X38750000Y-114000000D01*
X35750000Y-113500000D02*
X35500000Y-113500000D01*
X35750000Y-117500000D02*
X35750000Y-116500000D01*
X35750000Y-116500000D02*
X35750000Y-113500000D01*
X37330000Y-119080000D02*
X35750000Y-117500000D01*
X32915000Y-93415000D02*
X30875000Y-93415000D01*
X33750000Y-94250000D02*
X32915000Y-93415000D01*
X33750000Y-111750000D02*
X33750000Y-94250000D01*
X35500000Y-113500000D02*
X33750000Y-111750000D01*
X39000000Y-119080000D02*
X37330000Y-119080000D01*
X39000000Y-119080000D02*
X38330000Y-119080000D01*
X28500000Y-107750000D02*
X28500000Y-109750000D01*
X28500000Y-107750000D02*
X28885000Y-106115000D01*
X30875000Y-106115000D02*
X28885000Y-106115000D01*
X36870000Y-121620000D02*
X39000000Y-121620000D01*
X33750000Y-118500000D02*
X36870000Y-121620000D01*
X33750000Y-115000000D02*
X33750000Y-118500000D01*
X33099996Y-114349996D02*
X33750000Y-115000000D01*
X28500000Y-109750000D02*
X33099996Y-114349996D01*
D40*
X26750000Y-79620000D02*
X28000000Y-81000000D01*
X28000000Y-81000000D02*
X28000000Y-83750000D01*
D44*
G36*
X115942000Y-120925362D02*
X115416576Y-120572568D01*
X114738000Y-120436000D01*
X114004000Y-120436000D01*
X114004000Y-122206000D01*
X114024000Y-122206000D01*
X114024000Y-122214000D01*
X114004000Y-122214000D01*
X114004000Y-122234000D01*
X113996000Y-122234000D01*
X113996000Y-122214000D01*
X111681505Y-122214000D01*
X111514472Y-122491465D01*
X111625507Y-122885185D01*
X112008764Y-123461579D01*
X112235489Y-123613812D01*
X112211150Y-123734000D01*
X112211150Y-125766000D01*
X112264005Y-126046898D01*
X112430015Y-126304886D01*
X112683318Y-126477960D01*
X112984000Y-126538850D01*
X115016000Y-126538850D01*
X115296898Y-126485995D01*
X115554886Y-126319985D01*
X115727960Y-126066682D01*
X115788850Y-125766000D01*
X115788850Y-123734000D01*
X115766042Y-123612785D01*
X115942000Y-123494638D01*
X115942000Y-132873125D01*
X115510655Y-132583368D01*
X115415602Y-132564217D01*
X115685318Y-132160559D01*
X115808755Y-131540000D01*
X115685318Y-130919441D01*
X115411597Y-130509789D01*
X115554886Y-130417585D01*
X115727960Y-130164282D01*
X115788850Y-129863600D01*
X115788850Y-128136400D01*
X115735995Y-127855502D01*
X115569985Y-127597514D01*
X115316682Y-127424440D01*
X115016000Y-127363550D01*
X112984000Y-127363550D01*
X112703102Y-127416405D01*
X112445114Y-127582415D01*
X112272040Y-127835718D01*
X112211150Y-128136400D01*
X112211150Y-129863600D01*
X112264005Y-130144498D01*
X112430015Y-130402486D01*
X112587982Y-130510420D01*
X112314682Y-130919441D01*
X112191245Y-131540000D01*
X112314682Y-132160559D01*
X112584398Y-132564217D01*
X112489345Y-132583368D01*
X111964127Y-132936184D01*
X111613906Y-133463136D01*
X111512595Y-133822376D01*
X111681506Y-134076000D01*
X113996000Y-134076000D01*
X113996000Y-134056000D01*
X114004000Y-134056000D01*
X114004000Y-134076000D01*
X114024000Y-134076000D01*
X114024000Y-134084000D01*
X114004000Y-134084000D01*
X114004000Y-135701600D01*
X114890400Y-135701600D01*
X115510655Y-135576632D01*
X115942000Y-135286875D01*
X115942000Y-138123035D01*
X115923717Y-138031120D01*
X115539162Y-137455593D01*
X114963635Y-137071038D01*
X114284755Y-136936000D01*
X114215245Y-136936000D01*
X113536365Y-137071038D01*
X112960838Y-137455593D01*
X112576283Y-138031120D01*
X112441245Y-138710000D01*
X112576283Y-139388880D01*
X112748052Y-139645950D01*
X112695114Y-139680015D01*
X112522040Y-139933318D01*
X112461150Y-140234000D01*
X112461150Y-142266000D01*
X112514005Y-142546898D01*
X112680015Y-142804886D01*
X112933318Y-142977960D01*
X113234000Y-143038850D01*
X115266000Y-143038850D01*
X115546898Y-142985995D01*
X115804886Y-142819985D01*
X115942000Y-142619311D01*
X115942000Y-169442000D01*
X24558000Y-169442000D01*
X24558000Y-163250000D01*
X28000000Y-163250000D01*
X28000000Y-168250000D01*
X28017097Y-168340864D01*
X28070798Y-168424318D01*
X28152736Y-168480304D01*
X28250000Y-168500000D01*
X33250000Y-168500000D01*
X33340864Y-168482903D01*
X33424318Y-168429202D01*
X33480304Y-168347264D01*
X33500000Y-168250000D01*
X33500000Y-163250000D01*
X33482903Y-163159136D01*
X33429202Y-163075682D01*
X33347264Y-163019696D01*
X33250000Y-163000000D01*
X28250000Y-163000000D01*
X28159136Y-163017097D01*
X28075682Y-163070798D01*
X28019696Y-163152736D01*
X28000000Y-163250000D01*
X24558000Y-163250000D01*
X24558000Y-159750000D01*
X44500000Y-159750000D01*
X44500000Y-166750000D01*
X44517097Y-166840864D01*
X44570798Y-166924318D01*
X44652736Y-166980304D01*
X44750000Y-167000000D01*
X51750000Y-167000000D01*
X51840864Y-166982903D01*
X51924318Y-166929202D01*
X51980304Y-166847264D01*
X52000000Y-166750000D01*
X52000000Y-159750000D01*
X51982903Y-159659136D01*
X51929202Y-159575682D01*
X51847264Y-159519696D01*
X51750000Y-159500000D01*
X44750000Y-159500000D01*
X44659136Y-159517097D01*
X44575682Y-159570798D01*
X44519696Y-159652736D01*
X44500000Y-159750000D01*
X24558000Y-159750000D01*
X24558000Y-157133939D01*
X66621718Y-157133939D01*
X66659425Y-157413758D01*
X67168761Y-157646846D01*
X67728525Y-157667277D01*
X68253498Y-157471941D01*
X68340575Y-157413758D01*
X68378282Y-157133939D01*
X67500000Y-156255657D01*
X66621718Y-157133939D01*
X24558000Y-157133939D01*
X24558000Y-156478525D01*
X66082723Y-156478525D01*
X66278059Y-157003498D01*
X66336242Y-157090575D01*
X66616061Y-157128282D01*
X67494343Y-156250000D01*
X67505657Y-156250000D01*
X68383939Y-157128282D01*
X68663758Y-157090575D01*
X68896846Y-156581239D01*
X68917277Y-156021475D01*
X68760452Y-155600000D01*
X71077150Y-155600000D01*
X71077150Y-156900000D01*
X71130005Y-157180898D01*
X71296015Y-157438886D01*
X71549318Y-157611960D01*
X71850000Y-157672850D01*
X73150000Y-157672850D01*
X73430898Y-157619995D01*
X73688886Y-157453985D01*
X73861960Y-157200682D01*
X73922850Y-156900000D01*
X73922850Y-156489697D01*
X75241168Y-156489697D01*
X75470351Y-157044360D01*
X75894348Y-157469098D01*
X76448610Y-157699248D01*
X77048757Y-157699772D01*
X77603420Y-157470589D01*
X78028158Y-157046592D01*
X78258308Y-156492330D01*
X78258832Y-155892183D01*
X78029649Y-155337520D01*
X77605652Y-154912782D01*
X77051390Y-154682632D01*
X76451243Y-154682108D01*
X75896580Y-154911291D01*
X75471842Y-155335288D01*
X75241692Y-155889550D01*
X75241168Y-156489697D01*
X73922850Y-156489697D01*
X73922850Y-155600000D01*
X73869995Y-155319102D01*
X73703985Y-155061114D01*
X73450682Y-154888040D01*
X73150000Y-154827150D01*
X71850000Y-154827150D01*
X71569102Y-154880005D01*
X71311114Y-155046015D01*
X71138040Y-155299318D01*
X71077150Y-155600000D01*
X68760452Y-155600000D01*
X68721941Y-155496502D01*
X68663758Y-155409425D01*
X68383939Y-155371718D01*
X67505657Y-156250000D01*
X67494343Y-156250000D01*
X66616061Y-155371718D01*
X66336242Y-155409425D01*
X66103154Y-155918761D01*
X66082723Y-156478525D01*
X24558000Y-156478525D01*
X24558000Y-155366061D01*
X66621718Y-155366061D01*
X67500000Y-156244343D01*
X68378282Y-155366061D01*
X68340575Y-155086242D01*
X67831239Y-154853154D01*
X67271475Y-154832723D01*
X66746502Y-155028059D01*
X66659425Y-155086242D01*
X66621718Y-155366061D01*
X24558000Y-155366061D01*
X24558000Y-152133939D01*
X66621718Y-152133939D01*
X66659425Y-152413758D01*
X67168761Y-152646846D01*
X67728525Y-152667277D01*
X68253498Y-152471941D01*
X68340575Y-152413758D01*
X68378282Y-152133939D01*
X67500000Y-151255657D01*
X66621718Y-152133939D01*
X24558000Y-152133939D01*
X24558000Y-151478525D01*
X66082723Y-151478525D01*
X66278059Y-152003498D01*
X66336242Y-152090575D01*
X66616061Y-152128282D01*
X67494343Y-151250000D01*
X67505657Y-151250000D01*
X68383939Y-152128282D01*
X68663758Y-152090575D01*
X68896846Y-151581239D01*
X68917277Y-151021475D01*
X68760452Y-150600000D01*
X71077150Y-150600000D01*
X71077150Y-151900000D01*
X71130005Y-152180898D01*
X71296015Y-152438886D01*
X71549318Y-152611960D01*
X71850000Y-152672850D01*
X73150000Y-152672850D01*
X73430898Y-152619995D01*
X73688886Y-152453985D01*
X73861960Y-152200682D01*
X73922850Y-151900000D01*
X73922850Y-151607817D01*
X75241168Y-151607817D01*
X75470351Y-152162480D01*
X75894348Y-152587218D01*
X76448610Y-152817368D01*
X77048757Y-152817892D01*
X77603420Y-152588709D01*
X78028158Y-152164712D01*
X78258308Y-151610450D01*
X78258832Y-151010303D01*
X78029649Y-150455640D01*
X77605652Y-150030902D01*
X77051390Y-149800752D01*
X76451243Y-149800228D01*
X75896580Y-150029411D01*
X75471842Y-150453408D01*
X75241692Y-151007670D01*
X75241168Y-151607817D01*
X73922850Y-151607817D01*
X73922850Y-150600000D01*
X73869995Y-150319102D01*
X73703985Y-150061114D01*
X73450682Y-149888040D01*
X73150000Y-149827150D01*
X71850000Y-149827150D01*
X71569102Y-149880005D01*
X71311114Y-150046015D01*
X71138040Y-150299318D01*
X71077150Y-150600000D01*
X68760452Y-150600000D01*
X68721941Y-150496502D01*
X68663758Y-150409425D01*
X68383939Y-150371718D01*
X67505657Y-151250000D01*
X67494343Y-151250000D01*
X66616061Y-150371718D01*
X66336242Y-150409425D01*
X66103154Y-150918761D01*
X66082723Y-151478525D01*
X24558000Y-151478525D01*
X24558000Y-146210000D01*
X24941245Y-146210000D01*
X25076283Y-146888880D01*
X25248052Y-147145950D01*
X25195114Y-147180015D01*
X25022040Y-147433318D01*
X24961150Y-147734000D01*
X24961150Y-149766000D01*
X25014005Y-150046898D01*
X25180015Y-150304886D01*
X25433318Y-150477960D01*
X25734000Y-150538850D01*
X27766000Y-150538850D01*
X28046898Y-150485995D01*
X28233281Y-150366061D01*
X66621718Y-150366061D01*
X67500000Y-151244343D01*
X68378282Y-150366061D01*
X68340575Y-150086242D01*
X67831239Y-149853154D01*
X67271475Y-149832723D01*
X66746502Y-150028059D01*
X66659425Y-150086242D01*
X66621718Y-150366061D01*
X28233281Y-150366061D01*
X28304886Y-150319985D01*
X28477960Y-150066682D01*
X28538850Y-149766000D01*
X28538850Y-147734000D01*
X28485995Y-147453102D01*
X28418294Y-147347890D01*
X72907767Y-147347890D01*
X72939389Y-147622516D01*
X73430661Y-147847277D01*
X73970550Y-147866927D01*
X74476862Y-147678475D01*
X74560611Y-147622516D01*
X74592233Y-147347890D01*
X73750000Y-146505657D01*
X72907767Y-147347890D01*
X28418294Y-147347890D01*
X28319985Y-147195114D01*
X28250720Y-147147788D01*
X28423717Y-146888880D01*
X28457200Y-146720550D01*
X72383073Y-146720550D01*
X72571525Y-147226862D01*
X72627484Y-147310611D01*
X72902110Y-147342233D01*
X73744343Y-146500000D01*
X73755657Y-146500000D01*
X74597890Y-147342233D01*
X74872516Y-147310611D01*
X75097277Y-146819339D01*
X75101857Y-146693500D01*
X76142000Y-146693500D01*
X76142000Y-147250776D01*
X76257399Y-147529373D01*
X76470628Y-147742602D01*
X76749225Y-147858000D01*
X77306500Y-147858000D01*
X77496000Y-147668500D01*
X77496000Y-146504000D01*
X76331500Y-146504000D01*
X76142000Y-146693500D01*
X75101857Y-146693500D01*
X75116927Y-146279450D01*
X74928475Y-145773138D01*
X74872516Y-145689389D01*
X74597890Y-145657767D01*
X73755657Y-146500000D01*
X73744343Y-146500000D01*
X72902110Y-145657767D01*
X72627484Y-145689389D01*
X72402723Y-146180661D01*
X72383073Y-146720550D01*
X28457200Y-146720550D01*
X28558755Y-146210000D01*
X28423717Y-145531120D01*
X28039162Y-144955593D01*
X27463635Y-144571038D01*
X26784755Y-144436000D01*
X26715245Y-144436000D01*
X26036365Y-144571038D01*
X25460838Y-144955593D01*
X25076283Y-145531120D01*
X24941245Y-146210000D01*
X24558000Y-146210000D01*
X24558000Y-140325723D01*
X25401725Y-141170921D01*
X26141339Y-141478036D01*
X25953474Y-141555660D01*
X25557052Y-141951391D01*
X25342245Y-142468703D01*
X25341756Y-143028840D01*
X25555660Y-143546526D01*
X25951391Y-143942948D01*
X26468703Y-144157755D01*
X27028840Y-144158244D01*
X27546526Y-143944340D01*
X27942948Y-143548609D01*
X28157755Y-143031297D01*
X28158244Y-142471160D01*
X28004884Y-142100000D01*
X30327150Y-142100000D01*
X30327150Y-143400000D01*
X30380005Y-143680898D01*
X30546015Y-143938886D01*
X30799318Y-144111960D01*
X31100000Y-144172850D01*
X32400000Y-144172850D01*
X32680898Y-144119995D01*
X32938886Y-143953985D01*
X33111960Y-143700682D01*
X33172850Y-143400000D01*
X72377150Y-143400000D01*
X72377150Y-144600000D01*
X72430005Y-144880898D01*
X72596015Y-145138886D01*
X72849318Y-145311960D01*
X72993696Y-145341197D01*
X72939389Y-145377484D01*
X72907767Y-145652110D01*
X73750000Y-146494343D01*
X74592233Y-145652110D01*
X74560611Y-145377484D01*
X74492057Y-145346120D01*
X74630898Y-145319995D01*
X74888886Y-145153985D01*
X75061960Y-144900682D01*
X75122850Y-144600000D01*
X75122850Y-144268938D01*
X76141765Y-144268938D01*
X76348072Y-144768240D01*
X76729384Y-145150218D01*
X76470628Y-145257398D01*
X76257399Y-145470627D01*
X76142000Y-145749224D01*
X76142000Y-146306500D01*
X76331500Y-146496000D01*
X77496000Y-146496000D01*
X77496000Y-146476000D01*
X77504000Y-146476000D01*
X77504000Y-146496000D01*
X77524000Y-146496000D01*
X77524000Y-146504000D01*
X77504000Y-146504000D01*
X77504000Y-147668500D01*
X77693500Y-147858000D01*
X78250775Y-147858000D01*
X78529372Y-147742602D01*
X78742601Y-147529373D01*
X78781489Y-147435490D01*
X79004078Y-147770265D01*
X79573547Y-148152649D01*
X79724362Y-148183005D01*
X79530073Y-148473779D01*
X79411477Y-149070000D01*
X79530073Y-149666221D01*
X79867805Y-150171672D01*
X80119725Y-150340000D01*
X79867805Y-150508328D01*
X79530073Y-151013779D01*
X79411477Y-151610000D01*
X79530073Y-152206221D01*
X79867805Y-152711672D01*
X80119725Y-152880000D01*
X79867805Y-153048328D01*
X79530073Y-153553779D01*
X79411477Y-154150000D01*
X79530073Y-154746221D01*
X79867805Y-155251672D01*
X80119725Y-155420000D01*
X79867805Y-155588328D01*
X79530073Y-156093779D01*
X79411477Y-156690000D01*
X79530073Y-157286221D01*
X79867805Y-157791672D01*
X80119725Y-157960000D01*
X79867805Y-158128328D01*
X79530073Y-158633779D01*
X79411477Y-159230000D01*
X79530073Y-159826221D01*
X79867805Y-160331672D01*
X80119725Y-160500000D01*
X79867805Y-160668328D01*
X79530073Y-161173779D01*
X79411477Y-161770000D01*
X79530073Y-162366221D01*
X79867805Y-162871672D01*
X80373256Y-163209404D01*
X80969477Y-163328000D01*
X81030523Y-163328000D01*
X81626744Y-163209404D01*
X82132195Y-162871672D01*
X82469927Y-162366221D01*
X82588523Y-161770000D01*
X82469927Y-161173779D01*
X82132195Y-160668328D01*
X81880275Y-160500000D01*
X82132195Y-160331672D01*
X82469927Y-159826221D01*
X82588523Y-159230000D01*
X82469927Y-158633779D01*
X82132195Y-158128328D01*
X81880275Y-157960000D01*
X82132195Y-157791672D01*
X82469927Y-157286221D01*
X82588523Y-156690000D01*
X82469927Y-156093779D01*
X82132195Y-155588328D01*
X81880275Y-155420000D01*
X82132195Y-155251672D01*
X82469927Y-154746221D01*
X82588523Y-154150000D01*
X82469927Y-153553779D01*
X82132195Y-153048328D01*
X81880275Y-152880000D01*
X82132195Y-152711672D01*
X82469927Y-152206221D01*
X82588523Y-151610000D01*
X82469927Y-151013779D01*
X82132195Y-150508328D01*
X81880275Y-150340000D01*
X82132195Y-150171672D01*
X82469927Y-149666221D01*
X82588523Y-149070000D01*
X82469927Y-148473779D01*
X82275638Y-148183005D01*
X82426453Y-148152649D01*
X82995922Y-147770265D01*
X83375711Y-147199062D01*
X83485725Y-146808962D01*
X83318495Y-146534000D01*
X81004000Y-146534000D01*
X81004000Y-146554000D01*
X80996000Y-146554000D01*
X80996000Y-146534000D01*
X80976000Y-146534000D01*
X80976000Y-146526000D01*
X80996000Y-146526000D01*
X80996000Y-146506000D01*
X81004000Y-146506000D01*
X81004000Y-146526000D01*
X83318495Y-146526000D01*
X83485725Y-146251038D01*
X83375711Y-145860938D01*
X82995922Y-145289735D01*
X82426453Y-144907351D01*
X82275638Y-144876995D01*
X82469927Y-144586221D01*
X82533033Y-144268962D01*
X86134275Y-144268962D01*
X86244289Y-144659062D01*
X86624078Y-145230265D01*
X87193547Y-145612649D01*
X87344362Y-145643005D01*
X87150073Y-145933779D01*
X87031477Y-146530000D01*
X87150073Y-147126221D01*
X87487805Y-147631672D01*
X87739725Y-147800000D01*
X87487805Y-147968328D01*
X87150073Y-148473779D01*
X87031477Y-149070000D01*
X87150073Y-149666221D01*
X87487805Y-150171672D01*
X87739725Y-150340000D01*
X87487805Y-150508328D01*
X87150073Y-151013779D01*
X87031477Y-151610000D01*
X87150073Y-152206221D01*
X87487805Y-152711672D01*
X87739725Y-152880000D01*
X87487805Y-153048328D01*
X87150073Y-153553779D01*
X87031477Y-154150000D01*
X87150073Y-154746221D01*
X87487805Y-155251672D01*
X87739725Y-155420000D01*
X87487805Y-155588328D01*
X87150073Y-156093779D01*
X87031477Y-156690000D01*
X87150073Y-157286221D01*
X87487805Y-157791672D01*
X87739725Y-157960000D01*
X87487805Y-158128328D01*
X87150073Y-158633779D01*
X87031477Y-159230000D01*
X87150073Y-159826221D01*
X87487805Y-160331672D01*
X87739725Y-160500000D01*
X87487805Y-160668328D01*
X87150073Y-161173779D01*
X87031477Y-161770000D01*
X87150073Y-162366221D01*
X87487805Y-162871672D01*
X87993256Y-163209404D01*
X88589477Y-163328000D01*
X88650523Y-163328000D01*
X89246744Y-163209404D01*
X89752195Y-162871672D01*
X90089927Y-162366221D01*
X90208523Y-161770000D01*
X90089927Y-161173779D01*
X89752195Y-160668328D01*
X89500275Y-160500000D01*
X89752195Y-160331672D01*
X90089927Y-159826221D01*
X90105088Y-159750000D01*
X100500000Y-159750000D01*
X100500000Y-168250000D01*
X100517097Y-168340864D01*
X100570798Y-168424318D01*
X100652736Y-168480304D01*
X100750000Y-168500000D01*
X113250000Y-168500000D01*
X113340864Y-168482903D01*
X113424318Y-168429202D01*
X113480304Y-168347264D01*
X113500000Y-168250000D01*
X113500000Y-163250000D01*
X113482903Y-163159136D01*
X113429202Y-163075682D01*
X113347264Y-163019696D01*
X113250000Y-163000000D01*
X108500000Y-163000000D01*
X108500000Y-159750000D01*
X108482903Y-159659136D01*
X108429202Y-159575682D01*
X108347264Y-159519696D01*
X108250000Y-159500000D01*
X100750000Y-159500000D01*
X100659136Y-159517097D01*
X100575682Y-159570798D01*
X100519696Y-159652736D01*
X100500000Y-159750000D01*
X90105088Y-159750000D01*
X90208523Y-159230000D01*
X90089927Y-158633779D01*
X89752195Y-158128328D01*
X89500275Y-157960000D01*
X89752195Y-157791672D01*
X90089927Y-157286221D01*
X90208523Y-156690000D01*
X90089927Y-156093779D01*
X89752195Y-155588328D01*
X89500275Y-155420000D01*
X89752195Y-155251672D01*
X90089927Y-154746221D01*
X90208523Y-154150000D01*
X90089927Y-153553779D01*
X89752195Y-153048328D01*
X89500275Y-152880000D01*
X89752195Y-152711672D01*
X90089927Y-152206221D01*
X90208523Y-151610000D01*
X90089927Y-151013779D01*
X89752195Y-150508328D01*
X89500275Y-150340000D01*
X89752195Y-150171672D01*
X90089927Y-149666221D01*
X90119223Y-149518938D01*
X90641765Y-149518938D01*
X90848072Y-150018240D01*
X91229750Y-150400585D01*
X91728692Y-150607764D01*
X92268938Y-150608235D01*
X92768240Y-150401928D01*
X93150218Y-150020616D01*
X93257398Y-150279372D01*
X93470627Y-150492601D01*
X93749224Y-150608000D01*
X94306500Y-150608000D01*
X94496000Y-150418500D01*
X94496000Y-149254000D01*
X94504000Y-149254000D01*
X94504000Y-150418500D01*
X94693500Y-150608000D01*
X95250776Y-150608000D01*
X95529373Y-150492601D01*
X95742602Y-150279372D01*
X95858000Y-150000775D01*
X95858000Y-149443500D01*
X95668500Y-149254000D01*
X94504000Y-149254000D01*
X94496000Y-149254000D01*
X94476000Y-149254000D01*
X94476000Y-149246000D01*
X94496000Y-149246000D01*
X94496000Y-148081500D01*
X94504000Y-148081500D01*
X94504000Y-149246000D01*
X95668500Y-149246000D01*
X95858000Y-149056500D01*
X95858000Y-148499225D01*
X95742602Y-148220628D01*
X95529373Y-148007399D01*
X95250776Y-147892000D01*
X94693500Y-147892000D01*
X94504000Y-148081500D01*
X94496000Y-148081500D01*
X94306500Y-147892000D01*
X93749224Y-147892000D01*
X93470627Y-148007399D01*
X93257398Y-148220628D01*
X93150024Y-148479853D01*
X92770250Y-148099415D01*
X92271308Y-147892236D01*
X91731062Y-147891765D01*
X91231760Y-148098072D01*
X90849415Y-148479750D01*
X90642236Y-148978692D01*
X90641765Y-149518938D01*
X90119223Y-149518938D01*
X90208523Y-149070000D01*
X90089927Y-148473779D01*
X89752195Y-147968328D01*
X89500275Y-147800000D01*
X89752195Y-147631672D01*
X90089927Y-147126221D01*
X90160995Y-146768938D01*
X91141765Y-146768938D01*
X91348072Y-147268240D01*
X91729750Y-147650585D01*
X92228692Y-147857764D01*
X92768938Y-147858235D01*
X93268240Y-147651928D01*
X93650585Y-147270250D01*
X93857764Y-146771308D01*
X93858235Y-146231062D01*
X93651928Y-145731760D01*
X93270616Y-145349782D01*
X93529372Y-145242602D01*
X93742601Y-145029373D01*
X93858000Y-144750776D01*
X93858000Y-144193500D01*
X93668500Y-144004000D01*
X92504000Y-144004000D01*
X92504000Y-144024000D01*
X92496000Y-144024000D01*
X92496000Y-144004000D01*
X91331500Y-144004000D01*
X91142000Y-144193500D01*
X91142000Y-144750776D01*
X91257399Y-145029373D01*
X91470628Y-145242602D01*
X91729853Y-145349976D01*
X91349415Y-145729750D01*
X91142236Y-146228692D01*
X91141765Y-146768938D01*
X90160995Y-146768938D01*
X90208523Y-146530000D01*
X90089927Y-145933779D01*
X89895638Y-145643005D01*
X90046453Y-145612649D01*
X90615922Y-145230265D01*
X90995711Y-144659062D01*
X91105725Y-144268962D01*
X90938495Y-143994000D01*
X88624000Y-143994000D01*
X88624000Y-144014000D01*
X88616000Y-144014000D01*
X88616000Y-143994000D01*
X86301505Y-143994000D01*
X86134275Y-144268962D01*
X82533033Y-144268962D01*
X82588523Y-143990000D01*
X82533034Y-143711038D01*
X86134275Y-143711038D01*
X86301505Y-143986000D01*
X88616000Y-143986000D01*
X88616000Y-143966000D01*
X88624000Y-143966000D01*
X88624000Y-143986000D01*
X90938495Y-143986000D01*
X91105725Y-143711038D01*
X90995711Y-143320938D01*
X90948029Y-143249224D01*
X91142000Y-143249224D01*
X91142000Y-143806500D01*
X91331500Y-143996000D01*
X92496000Y-143996000D01*
X92496000Y-142831500D01*
X92504000Y-142831500D01*
X92504000Y-143996000D01*
X93668500Y-143996000D01*
X93858000Y-143806500D01*
X93858000Y-143758053D01*
X103992206Y-143758053D01*
X104259204Y-144404237D01*
X104753162Y-144899059D01*
X105398880Y-145167184D01*
X106098053Y-145167794D01*
X106744237Y-144900796D01*
X107239059Y-144406838D01*
X107507184Y-143761120D01*
X107507794Y-143061947D01*
X107240796Y-142415763D01*
X106746838Y-141920941D01*
X106101120Y-141652816D01*
X105401947Y-141652206D01*
X104755763Y-141919204D01*
X104260941Y-142413162D01*
X103992816Y-143058880D01*
X103992206Y-143758053D01*
X93858000Y-143758053D01*
X93858000Y-143249224D01*
X93742601Y-142970627D01*
X93529372Y-142757398D01*
X93250775Y-142642000D01*
X92693500Y-142642000D01*
X92504000Y-142831500D01*
X92496000Y-142831500D01*
X92306500Y-142642000D01*
X91749225Y-142642000D01*
X91470628Y-142757398D01*
X91257399Y-142970627D01*
X91142000Y-143249224D01*
X90948029Y-143249224D01*
X90615922Y-142749735D01*
X90046453Y-142367351D01*
X89895638Y-142336995D01*
X90089927Y-142046221D01*
X90208523Y-141450000D01*
X90089927Y-140853779D01*
X89752195Y-140348328D01*
X89500275Y-140180000D01*
X89752195Y-140011672D01*
X90089927Y-139506221D01*
X90208523Y-138910000D01*
X90152828Y-138630000D01*
X108441245Y-138630000D01*
X108564682Y-139250559D01*
X108916201Y-139776644D01*
X109100816Y-139900000D01*
X108916201Y-140023356D01*
X108564682Y-140549441D01*
X108441245Y-141170000D01*
X108564682Y-141790559D01*
X108916201Y-142316644D01*
X109100816Y-142440000D01*
X108916201Y-142563356D01*
X108564682Y-143089441D01*
X108441245Y-143710000D01*
X108564682Y-144330559D01*
X108838403Y-144740211D01*
X108695114Y-144832415D01*
X108522040Y-145085718D01*
X108461150Y-145386400D01*
X108461150Y-147113600D01*
X108514005Y-147394498D01*
X108680015Y-147652486D01*
X108933318Y-147825560D01*
X109234000Y-147886450D01*
X111266000Y-147886450D01*
X111546898Y-147833595D01*
X111804886Y-147667585D01*
X111977960Y-147414282D01*
X112038850Y-147113600D01*
X112038850Y-145386400D01*
X111985995Y-145105502D01*
X111819985Y-144847514D01*
X111662018Y-144739580D01*
X111935318Y-144330559D01*
X112058755Y-143710000D01*
X111935318Y-143089441D01*
X111583799Y-142563356D01*
X111399184Y-142440000D01*
X111583799Y-142316644D01*
X111935318Y-141790559D01*
X112058755Y-141170000D01*
X111935318Y-140549441D01*
X111583799Y-140023356D01*
X111399184Y-139900000D01*
X111583799Y-139776644D01*
X111935318Y-139250559D01*
X112058755Y-138630000D01*
X111935318Y-138009441D01*
X111583799Y-137483356D01*
X111057714Y-137131837D01*
X110437155Y-137008400D01*
X110062845Y-137008400D01*
X109442286Y-137131837D01*
X108916201Y-137483356D01*
X108564682Y-138009441D01*
X108441245Y-138630000D01*
X90152828Y-138630000D01*
X90089927Y-138313779D01*
X89752195Y-137808328D01*
X89500275Y-137640000D01*
X89752195Y-137471672D01*
X90089927Y-136966221D01*
X90208523Y-136370000D01*
X90089927Y-135773779D01*
X89972511Y-135598053D01*
X107992206Y-135598053D01*
X108259204Y-136244237D01*
X108753162Y-136739059D01*
X109398880Y-137007184D01*
X110098053Y-137007794D01*
X110744237Y-136740796D01*
X111239059Y-136246838D01*
X111507184Y-135601120D01*
X111507794Y-134901947D01*
X111274621Y-134337624D01*
X111512595Y-134337624D01*
X111613906Y-134696864D01*
X111964127Y-135223816D01*
X112489345Y-135576632D01*
X113109600Y-135701600D01*
X113996000Y-135701600D01*
X113996000Y-134084000D01*
X111681506Y-134084000D01*
X111512595Y-134337624D01*
X111274621Y-134337624D01*
X111240796Y-134255763D01*
X110746838Y-133760941D01*
X110101120Y-133492816D01*
X109401947Y-133492206D01*
X108755763Y-133759204D01*
X108260941Y-134253162D01*
X107992816Y-134898880D01*
X107992206Y-135598053D01*
X89972511Y-135598053D01*
X89752195Y-135268328D01*
X89500275Y-135100000D01*
X89752195Y-134931672D01*
X90089927Y-134426221D01*
X90097945Y-134385908D01*
X104619749Y-134385908D01*
X104699973Y-134702042D01*
X105335574Y-134993340D01*
X106034268Y-135019230D01*
X106689684Y-134775771D01*
X106800027Y-134702042D01*
X106880251Y-134385908D01*
X105750000Y-133255657D01*
X104619749Y-134385908D01*
X90097945Y-134385908D01*
X90208523Y-133830000D01*
X90149699Y-133534268D01*
X103980770Y-133534268D01*
X104224229Y-134189684D01*
X104297958Y-134300027D01*
X104614092Y-134380251D01*
X105744343Y-133250000D01*
X105755657Y-133250000D01*
X106885908Y-134380251D01*
X107202042Y-134300027D01*
X107493340Y-133664426D01*
X107519230Y-132965732D01*
X107275771Y-132310316D01*
X107202042Y-132199973D01*
X106885908Y-132119749D01*
X105755657Y-133250000D01*
X105744343Y-133250000D01*
X104614092Y-132119749D01*
X104297958Y-132199973D01*
X104006660Y-132835574D01*
X103980770Y-133534268D01*
X90149699Y-133534268D01*
X90089927Y-133233779D01*
X89752195Y-132728328D01*
X89500275Y-132560000D01*
X89752195Y-132391672D01*
X89937668Y-132114092D01*
X104619749Y-132114092D01*
X105750000Y-133244343D01*
X106880251Y-132114092D01*
X106800027Y-131797958D01*
X106164426Y-131506660D01*
X105465732Y-131480770D01*
X104810316Y-131724229D01*
X104699973Y-131797958D01*
X104619749Y-132114092D01*
X89937668Y-132114092D01*
X90089927Y-131886221D01*
X90208523Y-131290000D01*
X90089927Y-130693779D01*
X89752195Y-130188328D01*
X89500275Y-130020000D01*
X89752195Y-129851672D01*
X90089927Y-129346221D01*
X90208523Y-128750000D01*
X90089927Y-128153779D01*
X89752195Y-127648328D01*
X89246744Y-127310596D01*
X88650523Y-127192000D01*
X88589477Y-127192000D01*
X87993256Y-127310596D01*
X87487805Y-127648328D01*
X87150073Y-128153779D01*
X87031477Y-128750000D01*
X87150073Y-129346221D01*
X87487805Y-129851672D01*
X87739725Y-130020000D01*
X87487805Y-130188328D01*
X87150073Y-130693779D01*
X87031477Y-131290000D01*
X87150073Y-131886221D01*
X87487805Y-132391672D01*
X87739725Y-132560000D01*
X87487805Y-132728328D01*
X87150073Y-133233779D01*
X87031477Y-133830000D01*
X87150073Y-134426221D01*
X87487805Y-134931672D01*
X87739725Y-135100000D01*
X87487805Y-135268328D01*
X87150073Y-135773779D01*
X87031477Y-136370000D01*
X87150073Y-136966221D01*
X87487805Y-137471672D01*
X87739725Y-137640000D01*
X87487805Y-137808328D01*
X87150073Y-138313779D01*
X87031477Y-138910000D01*
X87150073Y-139506221D01*
X87487805Y-140011672D01*
X87739725Y-140180000D01*
X87487805Y-140348328D01*
X87150073Y-140853779D01*
X87031477Y-141450000D01*
X87150073Y-142046221D01*
X87344362Y-142336995D01*
X87193547Y-142367351D01*
X86624078Y-142749735D01*
X86244289Y-143320938D01*
X86134275Y-143711038D01*
X82533034Y-143711038D01*
X82469927Y-143393779D01*
X82132195Y-142888328D01*
X81880275Y-142720000D01*
X82132195Y-142551672D01*
X82469927Y-142046221D01*
X82588523Y-141450000D01*
X82469927Y-140853779D01*
X82132195Y-140348328D01*
X81880275Y-140180000D01*
X82132195Y-140011672D01*
X82469927Y-139506221D01*
X82588523Y-138910000D01*
X82469927Y-138313779D01*
X82132195Y-137808328D01*
X81880275Y-137640000D01*
X82132195Y-137471672D01*
X82469927Y-136966221D01*
X82588523Y-136370000D01*
X82469927Y-135773779D01*
X82132195Y-135268328D01*
X81880275Y-135100000D01*
X82132195Y-134931672D01*
X82469927Y-134426221D01*
X82588523Y-133830000D01*
X82469927Y-133233779D01*
X82132195Y-132728328D01*
X81880275Y-132560000D01*
X82132195Y-132391672D01*
X82469927Y-131886221D01*
X82588523Y-131290000D01*
X82469927Y-130693779D01*
X82132195Y-130188328D01*
X81880275Y-130020000D01*
X82132195Y-129851672D01*
X82469927Y-129346221D01*
X82588523Y-128750000D01*
X82469927Y-128153779D01*
X82132195Y-127648328D01*
X81626744Y-127310596D01*
X81030523Y-127192000D01*
X80969477Y-127192000D01*
X80373256Y-127310596D01*
X79867805Y-127648328D01*
X79530073Y-128153779D01*
X79411477Y-128750000D01*
X79530073Y-129346221D01*
X79867805Y-129851672D01*
X80119725Y-130020000D01*
X79867805Y-130188328D01*
X79530073Y-130693779D01*
X79411477Y-131290000D01*
X79530073Y-131886221D01*
X79867805Y-132391672D01*
X80119725Y-132560000D01*
X79867805Y-132728328D01*
X79530073Y-133233779D01*
X79411477Y-133830000D01*
X79530073Y-134426221D01*
X79867805Y-134931672D01*
X80119725Y-135100000D01*
X79867805Y-135268328D01*
X79530073Y-135773779D01*
X79411477Y-136370000D01*
X79530073Y-136966221D01*
X79867805Y-137471672D01*
X80119725Y-137640000D01*
X79867805Y-137808328D01*
X79530073Y-138313779D01*
X79411477Y-138910000D01*
X79530073Y-139506221D01*
X79867805Y-140011672D01*
X80119725Y-140180000D01*
X79867805Y-140348328D01*
X79530073Y-140853779D01*
X79411477Y-141450000D01*
X79530073Y-142046221D01*
X79867805Y-142551672D01*
X80119725Y-142720000D01*
X79867805Y-142888328D01*
X79530073Y-143393779D01*
X79411477Y-143990000D01*
X79530073Y-144586221D01*
X79724362Y-144876995D01*
X79573547Y-144907351D01*
X79004078Y-145289735D01*
X78796802Y-145601479D01*
X78742601Y-145470627D01*
X78529372Y-145257398D01*
X78270147Y-145150024D01*
X78650585Y-144770250D01*
X78857764Y-144271308D01*
X78858235Y-143731062D01*
X78651928Y-143231760D01*
X78270250Y-142849415D01*
X77771308Y-142642236D01*
X77231062Y-142641765D01*
X76731760Y-142848072D01*
X76349415Y-143229750D01*
X76142236Y-143728692D01*
X76141765Y-144268938D01*
X75122850Y-144268938D01*
X75122850Y-143400000D01*
X75069995Y-143119102D01*
X74903985Y-142861114D01*
X74650682Y-142688040D01*
X74350000Y-142627150D01*
X73150000Y-142627150D01*
X72869102Y-142680005D01*
X72611114Y-142846015D01*
X72438040Y-143099318D01*
X72377150Y-143400000D01*
X33172850Y-143400000D01*
X33172850Y-142100000D01*
X33119995Y-141819102D01*
X32953985Y-141561114D01*
X32700682Y-141388040D01*
X32400000Y-141327150D01*
X31100000Y-141327150D01*
X30819102Y-141380005D01*
X30561114Y-141546015D01*
X30388040Y-141799318D01*
X30327150Y-142100000D01*
X28004884Y-142100000D01*
X27944340Y-141953474D01*
X27660351Y-141668989D01*
X27895338Y-141669194D01*
X29093454Y-141174143D01*
X30010921Y-140258275D01*
X30508063Y-139061025D01*
X30509194Y-137764662D01*
X30429655Y-137572163D01*
X30448280Y-137544904D01*
X30508000Y-137250000D01*
X30508000Y-130000000D01*
X30456161Y-129724499D01*
X30293340Y-129471469D01*
X30276088Y-129459681D01*
X30508063Y-128901025D01*
X30508067Y-128895338D01*
X30990806Y-128895338D01*
X31222473Y-129456014D01*
X31221469Y-129456660D01*
X31051720Y-129705096D01*
X30992000Y-130000000D01*
X30992000Y-137250000D01*
X31043839Y-137525501D01*
X31071217Y-137568048D01*
X30991937Y-137758975D01*
X30990806Y-139055338D01*
X31485857Y-140253454D01*
X32401725Y-141170921D01*
X33598975Y-141668063D01*
X34895338Y-141669194D01*
X36093454Y-141174143D01*
X37010921Y-140258275D01*
X37508063Y-139061025D01*
X37509158Y-137805806D01*
X37528531Y-137793340D01*
X37698280Y-137544904D01*
X37758000Y-137250000D01*
X37758000Y-136504000D01*
X62968400Y-136504000D01*
X62968400Y-137390400D01*
X63093368Y-138010655D01*
X63446184Y-138535873D01*
X63973136Y-138886094D01*
X64332376Y-138987405D01*
X64586000Y-138818494D01*
X64586000Y-136504000D01*
X62968400Y-136504000D01*
X37758000Y-136504000D01*
X37758000Y-135609600D01*
X62968400Y-135609600D01*
X62968400Y-136496000D01*
X64586000Y-136496000D01*
X64586000Y-134181506D01*
X64594000Y-134181506D01*
X64594000Y-136496000D01*
X64614000Y-136496000D01*
X64614000Y-136504000D01*
X64594000Y-136504000D01*
X64594000Y-138818494D01*
X64847624Y-138987405D01*
X65206864Y-138886094D01*
X65733816Y-138535873D01*
X66086632Y-138010655D01*
X66105783Y-137915602D01*
X66509441Y-138185318D01*
X67130000Y-138308755D01*
X67750559Y-138185318D01*
X68276644Y-137833799D01*
X68400000Y-137649184D01*
X68523356Y-137833799D01*
X69049441Y-138185318D01*
X69670000Y-138308755D01*
X70290559Y-138185318D01*
X70816644Y-137833799D01*
X70940000Y-137649184D01*
X71063356Y-137833799D01*
X71589441Y-138185318D01*
X72210000Y-138308755D01*
X72830559Y-138185318D01*
X73128400Y-137986307D01*
X73128400Y-138400776D01*
X73243799Y-138679373D01*
X73457028Y-138892602D01*
X73735625Y-139008000D01*
X74556500Y-139008000D01*
X74746000Y-138818500D01*
X74746000Y-136504000D01*
X74754000Y-136504000D01*
X74754000Y-138818500D01*
X74943500Y-139008000D01*
X75764375Y-139008000D01*
X76042972Y-138892602D01*
X76256201Y-138679373D01*
X76371600Y-138400776D01*
X76371600Y-136693500D01*
X76182100Y-136504000D01*
X74754000Y-136504000D01*
X74746000Y-136504000D01*
X74726000Y-136504000D01*
X74726000Y-136496000D01*
X74746000Y-136496000D01*
X74746000Y-134181500D01*
X74754000Y-134181500D01*
X74754000Y-136496000D01*
X76182100Y-136496000D01*
X76371600Y-136306500D01*
X76371600Y-134599224D01*
X76256201Y-134320627D01*
X76042972Y-134107398D01*
X75764375Y-133992000D01*
X74943500Y-133992000D01*
X74754000Y-134181500D01*
X74746000Y-134181500D01*
X74556500Y-133992000D01*
X73735625Y-133992000D01*
X73457028Y-134107398D01*
X73243799Y-134320627D01*
X73128400Y-134599224D01*
X73128400Y-135013693D01*
X72830559Y-134814682D01*
X72210000Y-134691245D01*
X71589441Y-134814682D01*
X71063356Y-135166201D01*
X70940000Y-135350816D01*
X70816644Y-135166201D01*
X70290559Y-134814682D01*
X69670000Y-134691245D01*
X69049441Y-134814682D01*
X68523356Y-135166201D01*
X68400000Y-135350816D01*
X68276644Y-135166201D01*
X67750559Y-134814682D01*
X67130000Y-134691245D01*
X66509441Y-134814682D01*
X66105783Y-135084398D01*
X66086632Y-134989345D01*
X65733816Y-134464127D01*
X65206864Y-134113906D01*
X64847624Y-134012595D01*
X64594000Y-134181506D01*
X64586000Y-134181506D01*
X64332376Y-134012595D01*
X63973136Y-134113906D01*
X63446184Y-134464127D01*
X63093368Y-134989345D01*
X62968400Y-135609600D01*
X37758000Y-135609600D01*
X37758000Y-130965245D01*
X44436000Y-130965245D01*
X44436000Y-131034755D01*
X44571038Y-131713635D01*
X44955593Y-132289162D01*
X45531120Y-132673717D01*
X46210000Y-132808755D01*
X46888880Y-132673717D01*
X47145950Y-132501948D01*
X47180015Y-132554886D01*
X47433318Y-132727960D01*
X47734000Y-132788850D01*
X49766000Y-132788850D01*
X50046898Y-132735995D01*
X50304886Y-132569985D01*
X50477960Y-132316682D01*
X50538850Y-132016000D01*
X50538850Y-129984000D01*
X50485995Y-129703102D01*
X50319985Y-129445114D01*
X50066682Y-129272040D01*
X49766000Y-129211150D01*
X47734000Y-129211150D01*
X47453102Y-129264005D01*
X47195114Y-129430015D01*
X47147788Y-129499280D01*
X46888880Y-129326283D01*
X46210000Y-129191245D01*
X45531120Y-129326283D01*
X44955593Y-129710838D01*
X44571038Y-130286365D01*
X44436000Y-130965245D01*
X37758000Y-130965245D01*
X37758000Y-130000000D01*
X37706161Y-129724499D01*
X37543340Y-129471469D01*
X37331342Y-129326617D01*
X37508063Y-128901025D01*
X37509194Y-127604662D01*
X37374568Y-127278840D01*
X43591756Y-127278840D01*
X43805660Y-127796526D01*
X44201391Y-128192948D01*
X44718703Y-128407755D01*
X45278840Y-128408244D01*
X45796526Y-128194340D01*
X46192948Y-127798609D01*
X46407755Y-127281297D01*
X46408244Y-126721160D01*
X46254884Y-126350000D01*
X48577150Y-126350000D01*
X48577150Y-127650000D01*
X48630005Y-127930898D01*
X48796015Y-128188886D01*
X49049318Y-128361960D01*
X49350000Y-128422850D01*
X50650000Y-128422850D01*
X50930898Y-128369995D01*
X51188886Y-128203985D01*
X51361960Y-127950682D01*
X51422850Y-127650000D01*
X51422850Y-126350000D01*
X51399501Y-126225908D01*
X108619749Y-126225908D01*
X108699973Y-126542042D01*
X109335574Y-126833340D01*
X110034268Y-126859230D01*
X110689684Y-126615771D01*
X110800027Y-126542042D01*
X110880251Y-126225908D01*
X109750000Y-125095657D01*
X108619749Y-126225908D01*
X51399501Y-126225908D01*
X51369995Y-126069102D01*
X51203985Y-125811114D01*
X50950682Y-125638040D01*
X50650000Y-125577150D01*
X49350000Y-125577150D01*
X49069102Y-125630005D01*
X48811114Y-125796015D01*
X48638040Y-126049318D01*
X48577150Y-126350000D01*
X46254884Y-126350000D01*
X46194340Y-126203474D01*
X45798609Y-125807052D01*
X45281297Y-125592245D01*
X44721160Y-125591756D01*
X44203474Y-125805660D01*
X43807052Y-126201391D01*
X43592245Y-126718703D01*
X43591756Y-127278840D01*
X37374568Y-127278840D01*
X37014143Y-126406546D01*
X36098275Y-125489079D01*
X34901025Y-124991937D01*
X33604662Y-124990806D01*
X32406546Y-125485857D01*
X31489079Y-126401725D01*
X30991937Y-127598975D01*
X30990806Y-128895338D01*
X30508067Y-128895338D01*
X30509194Y-127604662D01*
X30014143Y-126406546D01*
X29098275Y-125489079D01*
X27901025Y-124991937D01*
X26604662Y-124990806D01*
X25406546Y-125485857D01*
X24558000Y-126332924D01*
X24558000Y-107750000D01*
X26992000Y-107750000D01*
X26992000Y-109750000D01*
X27106790Y-110327087D01*
X27345060Y-110683683D01*
X27433683Y-110816317D01*
X31617366Y-115000000D01*
X28250000Y-115000000D01*
X28159136Y-115017097D01*
X28075682Y-115070798D01*
X28019696Y-115152736D01*
X28000000Y-115250000D01*
X28000000Y-120250000D01*
X28017097Y-120340864D01*
X28070798Y-120424318D01*
X28152736Y-120480304D01*
X28250000Y-120500000D01*
X28469113Y-120500000D01*
X28231760Y-120598072D01*
X27849415Y-120979750D01*
X27642236Y-121478692D01*
X27641765Y-122018938D01*
X27848072Y-122518240D01*
X28229750Y-122900585D01*
X28728692Y-123107764D01*
X29268938Y-123108235D01*
X29768240Y-122901928D01*
X30150585Y-122520250D01*
X30156503Y-122505997D01*
X30180005Y-122630898D01*
X30346015Y-122888886D01*
X30599318Y-123061960D01*
X30900000Y-123122850D01*
X32100000Y-123122850D01*
X32380898Y-123069995D01*
X32638886Y-122903985D01*
X32811960Y-122650682D01*
X32872850Y-122350000D01*
X32872850Y-121150000D01*
X32819995Y-120869102D01*
X32653985Y-120611114D01*
X32491364Y-120500000D01*
X32750000Y-120500000D01*
X32840864Y-120482903D01*
X32924318Y-120429202D01*
X32980304Y-120347264D01*
X33000000Y-120250000D01*
X33000000Y-119882634D01*
X35803683Y-122686317D01*
X36292913Y-123013210D01*
X36870000Y-123128000D01*
X37493360Y-123128000D01*
X38064465Y-123241600D01*
X39935535Y-123241600D01*
X40556094Y-123118163D01*
X40802134Y-122953764D01*
X41235857Y-124003454D01*
X42151725Y-124920921D01*
X43348975Y-125418063D01*
X44645338Y-125419194D01*
X44754067Y-125374268D01*
X107980770Y-125374268D01*
X108224229Y-126029684D01*
X108297958Y-126140027D01*
X108614092Y-126220251D01*
X109744343Y-125090000D01*
X109755657Y-125090000D01*
X110885908Y-126220251D01*
X111202042Y-126140027D01*
X111493340Y-125504426D01*
X111519230Y-124805732D01*
X111275771Y-124150316D01*
X111202042Y-124039973D01*
X110885908Y-123959749D01*
X109755657Y-125090000D01*
X109744343Y-125090000D01*
X108614092Y-123959749D01*
X108297958Y-124039973D01*
X108006660Y-124675574D01*
X107980770Y-125374268D01*
X44754067Y-125374268D01*
X45843454Y-124924143D01*
X46760921Y-124008275D01*
X47258063Y-122811025D01*
X47258286Y-122555338D01*
X47490806Y-122555338D01*
X47985857Y-123753454D01*
X48901725Y-124670921D01*
X50098975Y-125168063D01*
X51395338Y-125169194D01*
X52593454Y-124674143D01*
X53314762Y-123954092D01*
X108619749Y-123954092D01*
X109750000Y-125084343D01*
X110880251Y-123954092D01*
X110800027Y-123637958D01*
X110164426Y-123346660D01*
X109465732Y-123320770D01*
X108810316Y-123564229D01*
X108699973Y-123637958D01*
X108619749Y-123954092D01*
X53314762Y-123954092D01*
X53510921Y-123758275D01*
X54008063Y-122561025D01*
X54008398Y-122176997D01*
X63828660Y-122176997D01*
X64000191Y-122571114D01*
X64906938Y-122987412D01*
X65903974Y-123025024D01*
X66839508Y-122678224D01*
X66999809Y-122571114D01*
X67171340Y-122176997D01*
X65500000Y-120505657D01*
X63828660Y-122176997D01*
X54008398Y-122176997D01*
X54009194Y-121264662D01*
X53514143Y-120066546D01*
X53297975Y-119850000D01*
X59077150Y-119850000D01*
X59077150Y-121150000D01*
X59130005Y-121430898D01*
X59296015Y-121688886D01*
X59549318Y-121861960D01*
X59850000Y-121922850D01*
X61150000Y-121922850D01*
X61430898Y-121869995D01*
X61688886Y-121703985D01*
X61861960Y-121450682D01*
X61922850Y-121150000D01*
X61922850Y-120903974D01*
X62974976Y-120903974D01*
X63321776Y-121839508D01*
X63428886Y-121999809D01*
X63823003Y-122171340D01*
X65494343Y-120500000D01*
X65505657Y-120500000D01*
X67176997Y-122171340D01*
X67571114Y-121999809D01*
X67987412Y-121093062D01*
X68025024Y-120096026D01*
X67678224Y-119160492D01*
X67571114Y-119000191D01*
X67176997Y-118828660D01*
X65505657Y-120500000D01*
X65494343Y-120500000D01*
X63823003Y-118828660D01*
X63428886Y-119000191D01*
X63012588Y-119906938D01*
X62974976Y-120903974D01*
X61922850Y-120903974D01*
X61922850Y-119850000D01*
X61869995Y-119569102D01*
X61703985Y-119311114D01*
X61450682Y-119138040D01*
X61150000Y-119077150D01*
X59850000Y-119077150D01*
X59569102Y-119130005D01*
X59311114Y-119296015D01*
X59138040Y-119549318D01*
X59077150Y-119850000D01*
X53297975Y-119850000D01*
X52598275Y-119149079D01*
X51812998Y-118823003D01*
X63828660Y-118823003D01*
X65500000Y-120494343D01*
X67171340Y-118823003D01*
X66999809Y-118428886D01*
X66093062Y-118012588D01*
X65096026Y-117974976D01*
X64160492Y-118321776D01*
X64000191Y-118428886D01*
X63828660Y-118823003D01*
X51812998Y-118823003D01*
X51401025Y-118651937D01*
X50104662Y-118650806D01*
X48906546Y-119145857D01*
X47989079Y-120061725D01*
X47491937Y-121258975D01*
X47490806Y-122555338D01*
X47258286Y-122555338D01*
X47259194Y-121514662D01*
X46764143Y-120316546D01*
X45848275Y-119399079D01*
X44651025Y-118901937D01*
X43354662Y-118900806D01*
X42156546Y-119395857D01*
X41239079Y-120311725D01*
X41137552Y-120556228D01*
X41082179Y-120473356D01*
X40897564Y-120350000D01*
X41082179Y-120226644D01*
X41433698Y-119700559D01*
X41557135Y-119080000D01*
X41433698Y-118459441D01*
X41082179Y-117933356D01*
X40872731Y-117793407D01*
X41035873Y-117683816D01*
X41386094Y-117156864D01*
X41487405Y-116797624D01*
X41318494Y-116544000D01*
X39004000Y-116544000D01*
X39004000Y-116564000D01*
X38996000Y-116564000D01*
X38996000Y-116544000D01*
X38976000Y-116544000D01*
X38976000Y-116536000D01*
X38996000Y-116536000D01*
X38996000Y-116516000D01*
X39004000Y-116516000D01*
X39004000Y-116536000D01*
X41318494Y-116536000D01*
X41487405Y-116282376D01*
X41386094Y-115923136D01*
X41121627Y-115525212D01*
X41288886Y-115417585D01*
X41461960Y-115164282D01*
X41522850Y-114863600D01*
X41522850Y-114130948D01*
X42151725Y-114760921D01*
X43348975Y-115258063D01*
X44645338Y-115259194D01*
X45843454Y-114764143D01*
X46760921Y-113848275D01*
X47258063Y-112651025D01*
X47258286Y-112395338D01*
X47490806Y-112395338D01*
X47985857Y-113593454D01*
X48901725Y-114510921D01*
X50098975Y-115008063D01*
X51395338Y-115009194D01*
X52453054Y-114572155D01*
X66927681Y-114572155D01*
X67040817Y-114916398D01*
X67774148Y-115252749D01*
X68580374Y-115282864D01*
X69336755Y-115002157D01*
X69465103Y-114916398D01*
X69578239Y-114572155D01*
X68252960Y-113246877D01*
X66927681Y-114572155D01*
X52453054Y-114572155D01*
X52593454Y-114514143D01*
X53510921Y-113598275D01*
X54008063Y-112401025D01*
X54008187Y-112258053D01*
X59992206Y-112258053D01*
X60259204Y-112904237D01*
X60753162Y-113399059D01*
X61398880Y-113667184D01*
X62098053Y-113667794D01*
X62338038Y-113568634D01*
X66211316Y-113568634D01*
X66492023Y-114325015D01*
X66577782Y-114453363D01*
X66922025Y-114566499D01*
X68247303Y-113241220D01*
X68258617Y-113241220D01*
X69583895Y-114566499D01*
X69928138Y-114453363D01*
X70264489Y-113720032D01*
X70294604Y-112913806D01*
X70223735Y-112722845D01*
X96428400Y-112722845D01*
X96428400Y-113097155D01*
X96551837Y-113717714D01*
X96903356Y-114243799D01*
X97429441Y-114595318D01*
X98050000Y-114718755D01*
X98670559Y-114595318D01*
X99196644Y-114243799D01*
X99320000Y-114059184D01*
X99443356Y-114243799D01*
X99969441Y-114595318D01*
X100590000Y-114718755D01*
X101210559Y-114595318D01*
X101535419Y-114378253D01*
X101889735Y-114905922D01*
X102460938Y-115285711D01*
X102851038Y-115395725D01*
X103126000Y-115228495D01*
X103126000Y-112914000D01*
X103106000Y-112914000D01*
X103106000Y-112906000D01*
X103126000Y-112906000D01*
X103126000Y-110591505D01*
X103134000Y-110591505D01*
X103134000Y-112906000D01*
X103154000Y-112906000D01*
X103154000Y-112914000D01*
X103134000Y-112914000D01*
X103134000Y-115228495D01*
X103408962Y-115395725D01*
X103799062Y-115285711D01*
X103852771Y-115250000D01*
X108000000Y-115250000D01*
X108000000Y-120250000D01*
X108017097Y-120340864D01*
X108070798Y-120424318D01*
X108152736Y-120480304D01*
X108250000Y-120500000D01*
X112943998Y-120500000D01*
X112583424Y-120572568D01*
X112008764Y-120958421D01*
X111625507Y-121534815D01*
X111514472Y-121928535D01*
X111681505Y-122206000D01*
X113996000Y-122206000D01*
X113996000Y-120436000D01*
X113413754Y-120436000D01*
X113424318Y-120429202D01*
X113480304Y-120347264D01*
X113500000Y-120250000D01*
X113500000Y-115250000D01*
X113482903Y-115159136D01*
X113429202Y-115075682D01*
X113347264Y-115019696D01*
X113250000Y-115000000D01*
X108250000Y-115000000D01*
X108159136Y-115017097D01*
X108075682Y-115070798D01*
X108019696Y-115152736D01*
X108000000Y-115250000D01*
X103852771Y-115250000D01*
X104370265Y-114905922D01*
X104724581Y-114378253D01*
X105049441Y-114595318D01*
X105670000Y-114718755D01*
X106290559Y-114595318D01*
X106816644Y-114243799D01*
X106940000Y-114059184D01*
X107063356Y-114243799D01*
X107589441Y-114595318D01*
X108210000Y-114718755D01*
X108830559Y-114595318D01*
X109240211Y-114321597D01*
X109332415Y-114464886D01*
X109585718Y-114637960D01*
X109886400Y-114698850D01*
X111613600Y-114698850D01*
X111894498Y-114645995D01*
X112152486Y-114479985D01*
X112325560Y-114226682D01*
X112386450Y-113926000D01*
X112386450Y-111894000D01*
X112333595Y-111613102D01*
X112167585Y-111355114D01*
X111914282Y-111182040D01*
X111613600Y-111121150D01*
X109886400Y-111121150D01*
X109605502Y-111174005D01*
X109347514Y-111340015D01*
X109239580Y-111497982D01*
X108830559Y-111224682D01*
X108210000Y-111101245D01*
X107589441Y-111224682D01*
X107063356Y-111576201D01*
X106940000Y-111760816D01*
X106816644Y-111576201D01*
X106290559Y-111224682D01*
X105670000Y-111101245D01*
X105049441Y-111224682D01*
X104724581Y-111441747D01*
X104370265Y-110914078D01*
X103799062Y-110534289D01*
X103408962Y-110424275D01*
X103134000Y-110591505D01*
X103126000Y-110591505D01*
X102851038Y-110424275D01*
X102460938Y-110534289D01*
X101889735Y-110914078D01*
X101535419Y-111441747D01*
X101210559Y-111224682D01*
X100590000Y-111101245D01*
X99969441Y-111224682D01*
X99443356Y-111576201D01*
X99320000Y-111760816D01*
X99196644Y-111576201D01*
X98670559Y-111224682D01*
X98050000Y-111101245D01*
X97429441Y-111224682D01*
X96903356Y-111576201D01*
X96551837Y-112102286D01*
X96428400Y-112722845D01*
X70223735Y-112722845D01*
X70013897Y-112157425D01*
X69928138Y-112029077D01*
X69583895Y-111915941D01*
X68258617Y-113241220D01*
X68247303Y-113241220D01*
X66922025Y-111915941D01*
X66577782Y-112029077D01*
X66241431Y-112762408D01*
X66211316Y-113568634D01*
X62338038Y-113568634D01*
X62744237Y-113400796D01*
X63239059Y-112906838D01*
X63507184Y-112261120D01*
X63507490Y-111910285D01*
X66927681Y-111910285D01*
X68252960Y-113235563D01*
X69578239Y-111910285D01*
X69465103Y-111566042D01*
X68731772Y-111229691D01*
X67925546Y-111199576D01*
X67169165Y-111480283D01*
X67040817Y-111566042D01*
X66927681Y-111910285D01*
X63507490Y-111910285D01*
X63507794Y-111561947D01*
X63240796Y-110915763D01*
X62766585Y-110440722D01*
X72860964Y-110440722D01*
X72955063Y-110774390D01*
X73280782Y-111264672D01*
X73769330Y-111592986D01*
X74346330Y-111709350D01*
X74845440Y-111709350D01*
X74845440Y-110204780D01*
X74853440Y-110204780D01*
X74853440Y-111709350D01*
X75352550Y-111709350D01*
X75929550Y-111592986D01*
X76418098Y-111264672D01*
X76743817Y-110774390D01*
X76837916Y-110440722D01*
X76667614Y-110204780D01*
X74853440Y-110204780D01*
X74845440Y-110204780D01*
X73031266Y-110204780D01*
X72860964Y-110440722D01*
X62766585Y-110440722D01*
X62746838Y-110420941D01*
X62101120Y-110152816D01*
X61401947Y-110152206D01*
X60755763Y-110419204D01*
X60260941Y-110913162D01*
X59992816Y-111558880D01*
X59992206Y-112258053D01*
X54008187Y-112258053D01*
X54009194Y-111104662D01*
X53514143Y-109906546D01*
X52598275Y-108989079D01*
X51401025Y-108491937D01*
X50104662Y-108490806D01*
X48906546Y-108985857D01*
X47989079Y-109901725D01*
X47491937Y-111098975D01*
X47490806Y-112395338D01*
X47258286Y-112395338D01*
X47259194Y-111354662D01*
X46764143Y-110156546D01*
X45848275Y-109239079D01*
X44651025Y-108741937D01*
X43354662Y-108740806D01*
X42156546Y-109235857D01*
X41239079Y-110151725D01*
X40741937Y-111348975D01*
X40741052Y-112363550D01*
X40186500Y-112363550D01*
X40066317Y-112183683D01*
X38295634Y-110413000D01*
X39294135Y-110413000D01*
X39966892Y-110279180D01*
X40140768Y-110163000D01*
X40345000Y-110163000D01*
X40922087Y-110048210D01*
X41411317Y-109721317D01*
X42831774Y-108300860D01*
X72802427Y-108300860D01*
X72917260Y-108878165D01*
X73185732Y-109279961D01*
X72955063Y-109627170D01*
X72860964Y-109960838D01*
X73031266Y-110196780D01*
X74845440Y-110196780D01*
X74845440Y-110176780D01*
X74853440Y-110176780D01*
X74853440Y-110196780D01*
X76667614Y-110196780D01*
X76837916Y-109960838D01*
X76743817Y-109627170D01*
X76513148Y-109279961D01*
X76781620Y-108878165D01*
X76896453Y-108300860D01*
X76781620Y-107723555D01*
X76546148Y-107371147D01*
X76743817Y-107073610D01*
X76837916Y-106739942D01*
X76667614Y-106504000D01*
X74853440Y-106504000D01*
X74853440Y-106524000D01*
X74845440Y-106524000D01*
X74845440Y-106504000D01*
X73031266Y-106504000D01*
X72860964Y-106739942D01*
X72955063Y-107073610D01*
X73152732Y-107371147D01*
X72917260Y-107723555D01*
X72802427Y-108300860D01*
X42831774Y-108300860D01*
X44642008Y-106490626D01*
X44641765Y-106768938D01*
X44848072Y-107268240D01*
X45229750Y-107650585D01*
X45728692Y-107857764D01*
X46268938Y-107858235D01*
X46768240Y-107651928D01*
X47150585Y-107270250D01*
X47156503Y-107255997D01*
X47180005Y-107380898D01*
X47346015Y-107638886D01*
X47599318Y-107811960D01*
X47900000Y-107872850D01*
X49100000Y-107872850D01*
X49380898Y-107819995D01*
X49638886Y-107653985D01*
X49811960Y-107400682D01*
X49872850Y-107100000D01*
X49872850Y-105900000D01*
X49819995Y-105619102D01*
X49653985Y-105361114D01*
X49400682Y-105188040D01*
X49100000Y-105127150D01*
X47900000Y-105127150D01*
X47619102Y-105180005D01*
X47361114Y-105346015D01*
X47188040Y-105599318D01*
X47158164Y-105746851D01*
X47151928Y-105731760D01*
X46770250Y-105349415D01*
X46271308Y-105142236D01*
X45990643Y-105141991D01*
X49034581Y-102098053D01*
X59992206Y-102098053D01*
X60259204Y-102744237D01*
X60753162Y-103239059D01*
X61398880Y-103507184D01*
X62098053Y-103507794D01*
X62744237Y-103240796D01*
X63186585Y-102799220D01*
X72802427Y-102799220D01*
X72917260Y-103376525D01*
X73166260Y-103749180D01*
X72917260Y-104121835D01*
X72802427Y-104699140D01*
X72917260Y-105276445D01*
X73152732Y-105628853D01*
X72955063Y-105926390D01*
X72860964Y-106260058D01*
X73031266Y-106496000D01*
X74845440Y-106496000D01*
X74845440Y-106476000D01*
X74853440Y-106476000D01*
X74853440Y-106496000D01*
X76667614Y-106496000D01*
X76837916Y-106260058D01*
X76743817Y-105926390D01*
X76546148Y-105628853D01*
X76781620Y-105276445D01*
X76896453Y-104699140D01*
X76781620Y-104121835D01*
X76532620Y-103749180D01*
X76781620Y-103376525D01*
X76896453Y-102799220D01*
X76849436Y-102562845D01*
X96428400Y-102562845D01*
X96428400Y-102937155D01*
X96551837Y-103557714D01*
X96903356Y-104083799D01*
X97429441Y-104435318D01*
X98050000Y-104558755D01*
X98670559Y-104435318D01*
X99196644Y-104083799D01*
X99320000Y-103899184D01*
X99443356Y-104083799D01*
X99969441Y-104435318D01*
X100590000Y-104558755D01*
X101210559Y-104435318D01*
X101535419Y-104218253D01*
X101889735Y-104745922D01*
X102460938Y-105125711D01*
X102851038Y-105235725D01*
X103126000Y-105068495D01*
X103126000Y-102754000D01*
X103106000Y-102754000D01*
X103106000Y-102746000D01*
X103126000Y-102746000D01*
X103126000Y-100431505D01*
X103134000Y-100431505D01*
X103134000Y-102746000D01*
X103154000Y-102746000D01*
X103154000Y-102754000D01*
X103134000Y-102754000D01*
X103134000Y-105068495D01*
X103408962Y-105235725D01*
X103799062Y-105125711D01*
X104370265Y-104745922D01*
X104724581Y-104218253D01*
X105049441Y-104435318D01*
X105670000Y-104558755D01*
X106290559Y-104435318D01*
X106816644Y-104083799D01*
X106940000Y-103899184D01*
X107063356Y-104083799D01*
X107589441Y-104435318D01*
X108210000Y-104558755D01*
X108830559Y-104435318D01*
X109240211Y-104161597D01*
X109332415Y-104304886D01*
X109585718Y-104477960D01*
X109886400Y-104538850D01*
X111613600Y-104538850D01*
X111894498Y-104485995D01*
X112152486Y-104319985D01*
X112325560Y-104066682D01*
X112386450Y-103766000D01*
X112386450Y-101734000D01*
X112333595Y-101453102D01*
X112167585Y-101195114D01*
X111914282Y-101022040D01*
X111613600Y-100961150D01*
X109886400Y-100961150D01*
X109605502Y-101014005D01*
X109347514Y-101180015D01*
X109239580Y-101337982D01*
X108830559Y-101064682D01*
X108210000Y-100941245D01*
X107589441Y-101064682D01*
X107063356Y-101416201D01*
X106940000Y-101600816D01*
X106816644Y-101416201D01*
X106290559Y-101064682D01*
X105670000Y-100941245D01*
X105049441Y-101064682D01*
X104724581Y-101281747D01*
X104370265Y-100754078D01*
X103799062Y-100374289D01*
X103408962Y-100264275D01*
X103134000Y-100431505D01*
X103126000Y-100431505D01*
X102851038Y-100264275D01*
X102460938Y-100374289D01*
X101889735Y-100754078D01*
X101535419Y-101281747D01*
X101210559Y-101064682D01*
X100590000Y-100941245D01*
X99969441Y-101064682D01*
X99443356Y-101416201D01*
X99320000Y-101600816D01*
X99196644Y-101416201D01*
X98670559Y-101064682D01*
X98050000Y-100941245D01*
X97429441Y-101064682D01*
X96903356Y-101416201D01*
X96551837Y-101942286D01*
X96428400Y-102562845D01*
X76849436Y-102562845D01*
X76781620Y-102221915D01*
X76454603Y-101732500D01*
X75965188Y-101405483D01*
X75387883Y-101290650D01*
X74310997Y-101290650D01*
X73733692Y-101405483D01*
X73244277Y-101732500D01*
X72917260Y-102221915D01*
X72802427Y-102799220D01*
X63186585Y-102799220D01*
X63239059Y-102746838D01*
X63507184Y-102101120D01*
X63507794Y-101401947D01*
X63240796Y-100755763D01*
X62746838Y-100260941D01*
X62101120Y-99992816D01*
X61401947Y-99992206D01*
X60755763Y-100259204D01*
X60260941Y-100753162D01*
X59992816Y-101398880D01*
X59992206Y-102098053D01*
X49034581Y-102098053D01*
X52066317Y-99066317D01*
X52393211Y-98577086D01*
X52508000Y-98000000D01*
X52508000Y-96731220D01*
X66210110Y-96731220D01*
X66210110Y-99271220D01*
X66262965Y-99552118D01*
X66428975Y-99810106D01*
X66682278Y-99983180D01*
X66982960Y-100044070D01*
X69522960Y-100044070D01*
X69803858Y-99991215D01*
X70061846Y-99825205D01*
X70234920Y-99571902D01*
X70295810Y-99271220D01*
X70295810Y-98847890D01*
X71407767Y-98847890D01*
X71439389Y-99122516D01*
X71930661Y-99347277D01*
X72470550Y-99366927D01*
X72976862Y-99178475D01*
X73060611Y-99122516D01*
X73092233Y-98847890D01*
X72250000Y-98005657D01*
X71407767Y-98847890D01*
X70295810Y-98847890D01*
X70295810Y-98220550D01*
X70883073Y-98220550D01*
X71071525Y-98726862D01*
X71127484Y-98810611D01*
X71402110Y-98842233D01*
X72244343Y-98000000D01*
X72255657Y-98000000D01*
X73097890Y-98842233D01*
X73372516Y-98810611D01*
X73403880Y-98742057D01*
X73430005Y-98880898D01*
X73596015Y-99138886D01*
X73849318Y-99311960D01*
X74150000Y-99372850D01*
X75350000Y-99372850D01*
X75630898Y-99319995D01*
X75888886Y-99153985D01*
X76061960Y-98900682D01*
X76122850Y-98600000D01*
X76122850Y-97400000D01*
X76069995Y-97119102D01*
X75903985Y-96861114D01*
X75650682Y-96688040D01*
X75350000Y-96627150D01*
X74150000Y-96627150D01*
X73869102Y-96680005D01*
X73611114Y-96846015D01*
X73438040Y-97099318D01*
X73408803Y-97243696D01*
X73372516Y-97189389D01*
X73097890Y-97157767D01*
X72255657Y-98000000D01*
X72244343Y-98000000D01*
X71402110Y-97157767D01*
X71127484Y-97189389D01*
X70902723Y-97680661D01*
X70883073Y-98220550D01*
X70295810Y-98220550D01*
X70295810Y-97152110D01*
X71407767Y-97152110D01*
X72250000Y-97994343D01*
X73092233Y-97152110D01*
X73060611Y-96877484D01*
X72569339Y-96652723D01*
X72029450Y-96633073D01*
X71523138Y-96821525D01*
X71439389Y-96877484D01*
X71407767Y-97152110D01*
X70295810Y-97152110D01*
X70295810Y-96731220D01*
X70264128Y-96562845D01*
X96548400Y-96562845D01*
X96548400Y-96937155D01*
X96671837Y-97557714D01*
X97023356Y-98083799D01*
X97549441Y-98435318D01*
X98170000Y-98558755D01*
X98790559Y-98435318D01*
X99194217Y-98165602D01*
X99213368Y-98260655D01*
X99566184Y-98785873D01*
X100093136Y-99136094D01*
X100452376Y-99237405D01*
X100706000Y-99068494D01*
X100706000Y-96754000D01*
X100686000Y-96754000D01*
X100686000Y-96746000D01*
X100706000Y-96746000D01*
X100706000Y-94431506D01*
X100714000Y-94431506D01*
X100714000Y-96746000D01*
X100734000Y-96746000D01*
X100734000Y-96754000D01*
X100714000Y-96754000D01*
X100714000Y-99068494D01*
X100967624Y-99237405D01*
X101326864Y-99136094D01*
X101853816Y-98785873D01*
X102068541Y-98466224D01*
X102085718Y-98477960D01*
X102386400Y-98538850D01*
X104113600Y-98538850D01*
X104394498Y-98485995D01*
X104652486Y-98319985D01*
X104825560Y-98066682D01*
X104886450Y-97766000D01*
X104886450Y-95734000D01*
X104833595Y-95453102D01*
X104667585Y-95195114D01*
X104414282Y-95022040D01*
X104113600Y-94961150D01*
X102386400Y-94961150D01*
X102105502Y-95014005D01*
X102070423Y-95036578D01*
X101853816Y-94714127D01*
X101326864Y-94363906D01*
X100967624Y-94262595D01*
X100714000Y-94431506D01*
X100706000Y-94431506D01*
X100452376Y-94262595D01*
X100093136Y-94363906D01*
X99566184Y-94714127D01*
X99213368Y-95239345D01*
X99194217Y-95334398D01*
X98790559Y-95064682D01*
X98170000Y-94941245D01*
X97549441Y-95064682D01*
X97023356Y-95416201D01*
X96671837Y-95942286D01*
X96548400Y-96562845D01*
X70264128Y-96562845D01*
X70242955Y-96450322D01*
X70076945Y-96192334D01*
X69823642Y-96019260D01*
X69522960Y-95958370D01*
X66982960Y-95958370D01*
X66702062Y-96011225D01*
X66444074Y-96177235D01*
X66271000Y-96430538D01*
X66210110Y-96731220D01*
X52508000Y-96731220D01*
X52508000Y-96500000D01*
X56000000Y-96500000D01*
X56090864Y-96482903D01*
X56174318Y-96429202D01*
X56230304Y-96347264D01*
X56250000Y-96250000D01*
X56250000Y-91250000D01*
X109000000Y-91250000D01*
X109000000Y-96250000D01*
X109017097Y-96340864D01*
X109070798Y-96424318D01*
X109152736Y-96480304D01*
X109250000Y-96500000D01*
X114250000Y-96500000D01*
X114340864Y-96482903D01*
X114424318Y-96429202D01*
X114480304Y-96347264D01*
X114500000Y-96250000D01*
X114500000Y-91250000D01*
X114482903Y-91159136D01*
X114429202Y-91075682D01*
X114347264Y-91019696D01*
X114250000Y-91000000D01*
X109250000Y-91000000D01*
X109159136Y-91017097D01*
X109075682Y-91070798D01*
X109019696Y-91152736D01*
X109000000Y-91250000D01*
X56250000Y-91250000D01*
X56232903Y-91159136D01*
X56179202Y-91075682D01*
X56097264Y-91019696D01*
X56000000Y-91000000D01*
X54160809Y-91000000D01*
X54288886Y-90917585D01*
X54461960Y-90664282D01*
X54522850Y-90363600D01*
X54522850Y-88636400D01*
X54469995Y-88355502D01*
X54303985Y-88097514D01*
X54122483Y-87973500D01*
X54386094Y-87576864D01*
X54487405Y-87217624D01*
X54318494Y-86964000D01*
X52004000Y-86964000D01*
X52004000Y-86984000D01*
X51996000Y-86984000D01*
X51996000Y-86964000D01*
X51976000Y-86964000D01*
X51976000Y-86956000D01*
X51996000Y-86956000D01*
X51996000Y-86936000D01*
X52004000Y-86936000D01*
X52004000Y-86956000D01*
X54318494Y-86956000D01*
X54487405Y-86702376D01*
X54386094Y-86343136D01*
X54035873Y-85816184D01*
X53872731Y-85706593D01*
X54082179Y-85566644D01*
X54433698Y-85040559D01*
X54557135Y-84420000D01*
X54433698Y-83799441D01*
X54082179Y-83273356D01*
X53897564Y-83150000D01*
X54082179Y-83026644D01*
X54433698Y-82500559D01*
X54557135Y-81880000D01*
X54433698Y-81259441D01*
X54082179Y-80733356D01*
X53556094Y-80381837D01*
X52935535Y-80258400D01*
X51064465Y-80258400D01*
X50493360Y-80372000D01*
X49120000Y-80372000D01*
X48542913Y-80486790D01*
X48219666Y-80702777D01*
X48053683Y-80813683D01*
X46433683Y-82433683D01*
X46106790Y-82922913D01*
X45992000Y-83500000D01*
X45992000Y-87096094D01*
X45569339Y-86902723D01*
X45029450Y-86883073D01*
X44523138Y-87071525D01*
X44439389Y-87127484D01*
X44407767Y-87402110D01*
X45250000Y-88244343D01*
X45264142Y-88230201D01*
X45269799Y-88235858D01*
X45255657Y-88250000D01*
X45269799Y-88264142D01*
X45264142Y-88269799D01*
X45250000Y-88255657D01*
X44407767Y-89097890D01*
X44439389Y-89372516D01*
X44507943Y-89403880D01*
X44369102Y-89430005D01*
X44111114Y-89596015D01*
X43938040Y-89849318D01*
X43877150Y-90150000D01*
X43877150Y-91350000D01*
X43930005Y-91630898D01*
X44096015Y-91888886D01*
X44122526Y-91907000D01*
X42755965Y-91907000D01*
X42768240Y-91901928D01*
X43150585Y-91520250D01*
X43357764Y-91021308D01*
X43358235Y-90481062D01*
X43151928Y-89981760D01*
X42770616Y-89599782D01*
X43029372Y-89492602D01*
X43242601Y-89279373D01*
X43358000Y-89000776D01*
X43358000Y-88470550D01*
X43883073Y-88470550D01*
X44071525Y-88976862D01*
X44127484Y-89060611D01*
X44402110Y-89092233D01*
X45244343Y-88250000D01*
X44402110Y-87407767D01*
X44127484Y-87439389D01*
X43902723Y-87930661D01*
X43883073Y-88470550D01*
X43358000Y-88470550D01*
X43358000Y-88443500D01*
X43168500Y-88254000D01*
X42004000Y-88254000D01*
X42004000Y-88274000D01*
X41996000Y-88274000D01*
X41996000Y-88254000D01*
X40831500Y-88254000D01*
X40642000Y-88443500D01*
X40642000Y-89000776D01*
X40757399Y-89279373D01*
X40970628Y-89492602D01*
X41229853Y-89599976D01*
X40849415Y-89979750D01*
X40642236Y-90478692D01*
X40641765Y-91018938D01*
X40848072Y-91518240D01*
X41229750Y-91900585D01*
X41245199Y-91907000D01*
X40140768Y-91907000D01*
X39966892Y-91790820D01*
X39776661Y-91752981D01*
X39964927Y-91471221D01*
X40083523Y-90875000D01*
X39964927Y-90278779D01*
X39627195Y-89773328D01*
X39121744Y-89435596D01*
X38525523Y-89317000D01*
X38464477Y-89317000D01*
X37868256Y-89435596D01*
X37362805Y-89773328D01*
X37025073Y-90278779D01*
X36906477Y-90875000D01*
X37025073Y-91471221D01*
X37213339Y-91752981D01*
X37023108Y-91790820D01*
X36973045Y-91824271D01*
X36893210Y-91422913D01*
X36566317Y-90933683D01*
X35441317Y-89808683D01*
X35176751Y-89631906D01*
X34952087Y-89481790D01*
X34375000Y-89367000D01*
X32520768Y-89367000D01*
X32346892Y-89250820D01*
X31674135Y-89117000D01*
X30075865Y-89117000D01*
X29403108Y-89250820D01*
X28832771Y-89631906D01*
X28451685Y-90202243D01*
X28317865Y-90875000D01*
X28451685Y-91547757D01*
X28832771Y-92118094D01*
X28873039Y-92145000D01*
X28832771Y-92171906D01*
X28451685Y-92742243D01*
X28317865Y-93415000D01*
X28451685Y-94087757D01*
X28832771Y-94658094D01*
X29403108Y-95039180D01*
X29593339Y-95077019D01*
X29405073Y-95358779D01*
X29286477Y-95955000D01*
X29405073Y-96551221D01*
X29599362Y-96841995D01*
X29448547Y-96872351D01*
X28879078Y-97254735D01*
X28499289Y-97825938D01*
X28389275Y-98216038D01*
X28556505Y-98491000D01*
X30871000Y-98491000D01*
X30871000Y-98471000D01*
X30879000Y-98471000D01*
X30879000Y-98491000D01*
X30899000Y-98491000D01*
X30899000Y-98499000D01*
X30879000Y-98499000D01*
X30879000Y-101031000D01*
X30899000Y-101031000D01*
X30899000Y-101039000D01*
X30879000Y-101039000D01*
X30879000Y-101059000D01*
X30871000Y-101059000D01*
X30871000Y-101039000D01*
X28556505Y-101039000D01*
X28389275Y-101313962D01*
X28499289Y-101704062D01*
X28879078Y-102275265D01*
X29448547Y-102657649D01*
X29599362Y-102688005D01*
X29405073Y-102978779D01*
X29286477Y-103575000D01*
X29405073Y-104171221D01*
X29593339Y-104452981D01*
X29403108Y-104490820D01*
X29229232Y-104607000D01*
X28885000Y-104607000D01*
X28764940Y-104630881D01*
X28642607Y-104626609D01*
X28479112Y-104687736D01*
X28307913Y-104721790D01*
X28206133Y-104789797D01*
X28091476Y-104832665D01*
X27963817Y-104951708D01*
X27818683Y-105048683D01*
X27750676Y-105150462D01*
X27661151Y-105233945D01*
X27588765Y-105392779D01*
X27491790Y-105537913D01*
X27467909Y-105657971D01*
X27417146Y-105769359D01*
X27032146Y-107404358D01*
X27026054Y-107578801D01*
X26992000Y-107750000D01*
X24558000Y-107750000D01*
X24558000Y-98773962D01*
X28389275Y-98773962D01*
X28499289Y-99164062D01*
X28879078Y-99735265D01*
X28923361Y-99765000D01*
X28879078Y-99794735D01*
X28499289Y-100365938D01*
X28389275Y-100756038D01*
X28556505Y-101031000D01*
X30871000Y-101031000D01*
X30871000Y-98499000D01*
X28556505Y-98499000D01*
X28389275Y-98773962D01*
X24558000Y-98773962D01*
X24558000Y-88008000D01*
X29250000Y-88008000D01*
X29525501Y-87956161D01*
X29778531Y-87793340D01*
X29948280Y-87544904D01*
X29957530Y-87499224D01*
X40642000Y-87499224D01*
X40642000Y-88056500D01*
X40831500Y-88246000D01*
X41996000Y-88246000D01*
X41996000Y-87081500D01*
X42004000Y-87081500D01*
X42004000Y-88246000D01*
X43168500Y-88246000D01*
X43358000Y-88056500D01*
X43358000Y-87499224D01*
X43242601Y-87220627D01*
X43029372Y-87007398D01*
X42750775Y-86892000D01*
X42193500Y-86892000D01*
X42004000Y-87081500D01*
X41996000Y-87081500D01*
X41806500Y-86892000D01*
X41249225Y-86892000D01*
X40970628Y-87007398D01*
X40757399Y-87220627D01*
X40642000Y-87499224D01*
X29957530Y-87499224D01*
X30008000Y-87250000D01*
X30008000Y-86169285D01*
X30252325Y-86238188D01*
X30496000Y-86068494D01*
X30496000Y-83754000D01*
X30476000Y-83754000D01*
X30476000Y-83746000D01*
X30496000Y-83746000D01*
X30496000Y-81431506D01*
X30504000Y-81431506D01*
X30504000Y-83746000D01*
X30524000Y-83746000D01*
X30524000Y-83754000D01*
X30504000Y-83754000D01*
X30504000Y-86068494D01*
X30747675Y-86238188D01*
X31092525Y-86140935D01*
X31598844Y-85804501D01*
X31937874Y-85299916D01*
X31983786Y-85072155D01*
X32177681Y-85072155D01*
X32290817Y-85416398D01*
X33024148Y-85752749D01*
X33830374Y-85782864D01*
X34586755Y-85502157D01*
X34715103Y-85416398D01*
X34828239Y-85072155D01*
X33502960Y-83746877D01*
X32177681Y-85072155D01*
X31983786Y-85072155D01*
X31996552Y-85008829D01*
X32172025Y-85066499D01*
X33497303Y-83741220D01*
X33508617Y-83741220D01*
X34833895Y-85066499D01*
X35178138Y-84953363D01*
X35514489Y-84220032D01*
X35544604Y-83413806D01*
X35409454Y-83049634D01*
X37156738Y-83049634D01*
X37386593Y-83605926D01*
X37811836Y-84031911D01*
X38367725Y-84262736D01*
X38969634Y-84263262D01*
X39525926Y-84033407D01*
X39940349Y-83619706D01*
X40351836Y-84031911D01*
X40907725Y-84262736D01*
X41509634Y-84263262D01*
X42065926Y-84033407D01*
X42290205Y-83809519D01*
X42441015Y-84043886D01*
X42694318Y-84216960D01*
X42995000Y-84277850D01*
X44505000Y-84277850D01*
X44785898Y-84224995D01*
X45043886Y-84058985D01*
X45216960Y-83805682D01*
X45277850Y-83505000D01*
X45277850Y-81995000D01*
X45224995Y-81714102D01*
X45058985Y-81456114D01*
X44805682Y-81283040D01*
X44505000Y-81222150D01*
X42995000Y-81222150D01*
X42714102Y-81275005D01*
X42456114Y-81441015D01*
X42287493Y-81687801D01*
X42068164Y-81468089D01*
X41512275Y-81237264D01*
X40910366Y-81236738D01*
X40354074Y-81466593D01*
X39939651Y-81880294D01*
X39528164Y-81468089D01*
X38972275Y-81237264D01*
X38370366Y-81236738D01*
X37814074Y-81466593D01*
X37388089Y-81891836D01*
X37157264Y-82447725D01*
X37156738Y-83049634D01*
X35409454Y-83049634D01*
X35263897Y-82657425D01*
X35178138Y-82529077D01*
X34833895Y-82415941D01*
X33508617Y-83741220D01*
X33497303Y-83741220D01*
X32172025Y-82415941D01*
X31993232Y-82474702D01*
X31980247Y-82410285D01*
X32177681Y-82410285D01*
X33502960Y-83735563D01*
X34828239Y-82410285D01*
X34715103Y-82066042D01*
X33981772Y-81729691D01*
X33175546Y-81699576D01*
X32419165Y-81980283D01*
X32290817Y-82066042D01*
X32177681Y-82410285D01*
X31980247Y-82410285D01*
X31937874Y-82200084D01*
X31598844Y-81695499D01*
X31092525Y-81359065D01*
X30747675Y-81261812D01*
X30504000Y-81431506D01*
X30496000Y-81431506D01*
X30252325Y-81261812D01*
X30008000Y-81330715D01*
X30008000Y-78258053D01*
X44492206Y-78258053D01*
X44759204Y-78904237D01*
X45253162Y-79399059D01*
X45898880Y-79667184D01*
X46598053Y-79667794D01*
X47244237Y-79400796D01*
X47739059Y-78906838D01*
X48007184Y-78261120D01*
X48007794Y-77561947D01*
X47740796Y-76915763D01*
X47246838Y-76420941D01*
X46601120Y-76152816D01*
X45901947Y-76152206D01*
X45255763Y-76419204D01*
X44760941Y-76913162D01*
X44492816Y-77558880D01*
X44492206Y-78258053D01*
X30008000Y-78258053D01*
X30008000Y-77250000D01*
X29956161Y-76974499D01*
X29934427Y-76940722D01*
X37610964Y-76940722D01*
X37705063Y-77274390D01*
X38030782Y-77764672D01*
X38519330Y-78092986D01*
X39096330Y-78209350D01*
X39595440Y-78209350D01*
X39595440Y-76704780D01*
X39603440Y-76704780D01*
X39603440Y-78209350D01*
X40102550Y-78209350D01*
X40679550Y-78092986D01*
X41168098Y-77764672D01*
X41493817Y-77274390D01*
X41587916Y-76940722D01*
X41417614Y-76704780D01*
X39603440Y-76704780D01*
X39595440Y-76704780D01*
X37781266Y-76704780D01*
X37610964Y-76940722D01*
X29934427Y-76940722D01*
X29793340Y-76721469D01*
X29544904Y-76551720D01*
X29250000Y-76492000D01*
X24558000Y-76492000D01*
X24558000Y-74800860D01*
X37552427Y-74800860D01*
X37667260Y-75378165D01*
X37935732Y-75779961D01*
X37705063Y-76127170D01*
X37610964Y-76460838D01*
X37781266Y-76696780D01*
X39595440Y-76696780D01*
X39595440Y-76676780D01*
X39603440Y-76676780D01*
X39603440Y-76696780D01*
X41417614Y-76696780D01*
X41587916Y-76460838D01*
X41493817Y-76127170D01*
X41263148Y-75779961D01*
X41531620Y-75378165D01*
X41646453Y-74800860D01*
X41531620Y-74223555D01*
X41296148Y-73871147D01*
X41493817Y-73573610D01*
X41587916Y-73239942D01*
X41417614Y-73004000D01*
X39603440Y-73004000D01*
X39603440Y-73024000D01*
X39595440Y-73024000D01*
X39595440Y-73004000D01*
X37781266Y-73004000D01*
X37610964Y-73239942D01*
X37705063Y-73573610D01*
X37902732Y-73871147D01*
X37667260Y-74223555D01*
X37552427Y-74800860D01*
X24558000Y-74800860D01*
X24558000Y-72348053D01*
X24992206Y-72348053D01*
X25259204Y-72994237D01*
X25753162Y-73489059D01*
X26398880Y-73757184D01*
X27098053Y-73757794D01*
X27744237Y-73490796D01*
X28239059Y-72996838D01*
X28507184Y-72351120D01*
X28507794Y-71651947D01*
X28240796Y-71005763D01*
X27746838Y-70510941D01*
X27101120Y-70242816D01*
X26401947Y-70242206D01*
X25755763Y-70509204D01*
X25260941Y-71003162D01*
X24992816Y-71648880D01*
X24992206Y-72348053D01*
X24558000Y-72348053D01*
X24558000Y-67231220D01*
X31460110Y-67231220D01*
X31460110Y-69771220D01*
X31512965Y-70052118D01*
X31678975Y-70310106D01*
X31932278Y-70483180D01*
X32232960Y-70544070D01*
X34772960Y-70544070D01*
X35053858Y-70491215D01*
X35311846Y-70325205D01*
X35484920Y-70071902D01*
X35545810Y-69771220D01*
X35545810Y-69299220D01*
X37552427Y-69299220D01*
X37667260Y-69876525D01*
X37916260Y-70249180D01*
X37667260Y-70621835D01*
X37552427Y-71199140D01*
X37667260Y-71776445D01*
X37902732Y-72128853D01*
X37705063Y-72426390D01*
X37610964Y-72760058D01*
X37781266Y-72996000D01*
X39595440Y-72996000D01*
X39595440Y-72976000D01*
X39603440Y-72976000D01*
X39603440Y-72996000D01*
X41417614Y-72996000D01*
X41587916Y-72760058D01*
X41493817Y-72426390D01*
X41296148Y-72128853D01*
X41531620Y-71776445D01*
X41646453Y-71199140D01*
X41531620Y-70621835D01*
X41282620Y-70249180D01*
X41531620Y-69876525D01*
X41646453Y-69299220D01*
X41564241Y-68885908D01*
X45119749Y-68885908D01*
X45199973Y-69202042D01*
X45835574Y-69493340D01*
X46534268Y-69519230D01*
X47189684Y-69275771D01*
X47300027Y-69202042D01*
X47380251Y-68885908D01*
X46250000Y-67755657D01*
X45119749Y-68885908D01*
X41564241Y-68885908D01*
X41531620Y-68721915D01*
X41204603Y-68232500D01*
X40907929Y-68034268D01*
X44480770Y-68034268D01*
X44724229Y-68689684D01*
X44797958Y-68800027D01*
X45114092Y-68880251D01*
X46244343Y-67750000D01*
X46255657Y-67750000D01*
X47385908Y-68880251D01*
X47702042Y-68800027D01*
X47993340Y-68164426D01*
X48019230Y-67465732D01*
X47775771Y-66810316D01*
X47702042Y-66699973D01*
X47385908Y-66619749D01*
X46255657Y-67750000D01*
X46244343Y-67750000D01*
X45114092Y-66619749D01*
X44797958Y-66699973D01*
X44506660Y-67335574D01*
X44480770Y-68034268D01*
X40907929Y-68034268D01*
X40715188Y-67905483D01*
X40137883Y-67790650D01*
X39060997Y-67790650D01*
X38483692Y-67905483D01*
X37994277Y-68232500D01*
X37667260Y-68721915D01*
X37552427Y-69299220D01*
X35545810Y-69299220D01*
X35545810Y-67571614D01*
X35906938Y-67737412D01*
X36903974Y-67775024D01*
X37839508Y-67428224D01*
X37999809Y-67321114D01*
X38171340Y-66926997D01*
X36500000Y-65255657D01*
X36485858Y-65269799D01*
X36480201Y-65264142D01*
X36494343Y-65250000D01*
X36505657Y-65250000D01*
X38176997Y-66921340D01*
X38571114Y-66749809D01*
X38987412Y-65843062D01*
X39025024Y-64846026D01*
X38933823Y-64600000D01*
X40077150Y-64600000D01*
X40077150Y-65900000D01*
X40130005Y-66180898D01*
X40296015Y-66438886D01*
X40549318Y-66611960D01*
X40850000Y-66672850D01*
X42150000Y-66672850D01*
X42430898Y-66619995D01*
X42440071Y-66614092D01*
X45119749Y-66614092D01*
X46250000Y-67744343D01*
X47380251Y-66614092D01*
X47300027Y-66297958D01*
X46664426Y-66006660D01*
X45965732Y-65980770D01*
X45310316Y-66224229D01*
X45199973Y-66297958D01*
X45119749Y-66614092D01*
X42440071Y-66614092D01*
X42688886Y-66453985D01*
X42861960Y-66200682D01*
X42922850Y-65900000D01*
X42922850Y-64600000D01*
X42869995Y-64319102D01*
X42703985Y-64061114D01*
X42450682Y-63888040D01*
X42150000Y-63827150D01*
X40850000Y-63827150D01*
X40569102Y-63880005D01*
X40311114Y-64046015D01*
X40138040Y-64299318D01*
X40077150Y-64600000D01*
X38933823Y-64600000D01*
X38678224Y-63910492D01*
X38571114Y-63750191D01*
X38176997Y-63578660D01*
X36505657Y-65250000D01*
X36494343Y-65250000D01*
X34823003Y-63578660D01*
X34428886Y-63750191D01*
X34012588Y-64656938D01*
X33974976Y-65653974D01*
X34273163Y-66458370D01*
X32232960Y-66458370D01*
X31952062Y-66511225D01*
X31694074Y-66677235D01*
X31521000Y-66930538D01*
X31460110Y-67231220D01*
X24558000Y-67231220D01*
X24558000Y-63573003D01*
X34828660Y-63573003D01*
X36500000Y-65244343D01*
X38171340Y-63573003D01*
X37999809Y-63178886D01*
X37093062Y-62762588D01*
X36096026Y-62724976D01*
X35160492Y-63071776D01*
X35000191Y-63178886D01*
X34828660Y-63573003D01*
X24558000Y-63573003D01*
X24558000Y-60848053D01*
X24742206Y-60848053D01*
X25009204Y-61494237D01*
X25503162Y-61989059D01*
X26148880Y-62257184D01*
X26848053Y-62257794D01*
X27494237Y-61990796D01*
X27989059Y-61496838D01*
X28257184Y-60851120D01*
X28257186Y-60848053D01*
X44742206Y-60848053D01*
X45009204Y-61494237D01*
X45503162Y-61989059D01*
X46148880Y-62257184D01*
X46848053Y-62257794D01*
X47494237Y-61990796D01*
X47989059Y-61496838D01*
X48257184Y-60851120D01*
X48257794Y-60151947D01*
X47990796Y-59505763D01*
X47496838Y-59010941D01*
X46851120Y-58742816D01*
X46151947Y-58742206D01*
X45505763Y-59009204D01*
X45010941Y-59503162D01*
X44742816Y-60148880D01*
X44742206Y-60848053D01*
X28257186Y-60848053D01*
X28257794Y-60151947D01*
X27990796Y-59505763D01*
X27496838Y-59010941D01*
X26851120Y-58742816D01*
X26151947Y-58742206D01*
X25505763Y-59009204D01*
X25010941Y-59503162D01*
X24742816Y-60148880D01*
X24742206Y-60848053D01*
X24558000Y-60848053D01*
X24558000Y-53848053D01*
X24742206Y-53848053D01*
X25009204Y-54494237D01*
X25503162Y-54989059D01*
X26148880Y-55257184D01*
X26848053Y-55257794D01*
X27494237Y-54990796D01*
X27989059Y-54496838D01*
X28257184Y-53851120D01*
X28257186Y-53848053D01*
X44742206Y-53848053D01*
X45009204Y-54494237D01*
X45503162Y-54989059D01*
X46148880Y-55257184D01*
X46848053Y-55257794D01*
X47494237Y-54990796D01*
X47989059Y-54496838D01*
X48257184Y-53851120D01*
X48257794Y-53151947D01*
X47990796Y-52505763D01*
X47496838Y-52010941D01*
X46851120Y-51742816D01*
X46151947Y-51742206D01*
X45505763Y-52009204D01*
X45010941Y-52503162D01*
X44742816Y-53148880D01*
X44742206Y-53848053D01*
X28257186Y-53848053D01*
X28257794Y-53151947D01*
X27990796Y-52505763D01*
X27496838Y-52010941D01*
X26851120Y-51742816D01*
X26151947Y-51742206D01*
X25505763Y-52009204D01*
X25010941Y-52503162D01*
X24742816Y-53148880D01*
X24742206Y-53848053D01*
X24558000Y-53848053D01*
X24558000Y-40734000D01*
X29613550Y-40734000D01*
X29613550Y-42766000D01*
X29666405Y-43046898D01*
X29832415Y-43304886D01*
X30085718Y-43477960D01*
X30386400Y-43538850D01*
X32113600Y-43538850D01*
X32394498Y-43485995D01*
X32652486Y-43319985D01*
X32760420Y-43162018D01*
X33169441Y-43435318D01*
X33790000Y-43558755D01*
X34410559Y-43435318D01*
X34936644Y-43083799D01*
X35060000Y-42899184D01*
X35183356Y-43083799D01*
X35709441Y-43435318D01*
X36330000Y-43558755D01*
X36950559Y-43435318D01*
X37476644Y-43083799D01*
X37600000Y-42899184D01*
X37723356Y-43083799D01*
X38249441Y-43435318D01*
X38870000Y-43558755D01*
X39490559Y-43435318D01*
X39815419Y-43218253D01*
X40169735Y-43745922D01*
X40740938Y-44125711D01*
X41131038Y-44235725D01*
X41406000Y-44068495D01*
X41406000Y-41754000D01*
X41386000Y-41754000D01*
X41386000Y-41746000D01*
X41406000Y-41746000D01*
X41406000Y-39431505D01*
X41414000Y-39431505D01*
X41414000Y-41746000D01*
X41434000Y-41746000D01*
X41434000Y-41754000D01*
X41414000Y-41754000D01*
X41414000Y-44068495D01*
X41688962Y-44235725D01*
X42079062Y-44125711D01*
X42650265Y-43745922D01*
X43004581Y-43218253D01*
X43329441Y-43435318D01*
X43950000Y-43558755D01*
X44570559Y-43435318D01*
X45096644Y-43083799D01*
X45448163Y-42557714D01*
X45509371Y-42250000D01*
X51000000Y-42250000D01*
X51000000Y-47250000D01*
X51017097Y-47340864D01*
X51070798Y-47424318D01*
X51152736Y-47480304D01*
X51250000Y-47500000D01*
X56250000Y-47500000D01*
X56340864Y-47482903D01*
X56424318Y-47429202D01*
X56480304Y-47347264D01*
X56500000Y-47250000D01*
X56500000Y-42250000D01*
X56482903Y-42159136D01*
X56429202Y-42075682D01*
X56347264Y-42019696D01*
X56250000Y-42000000D01*
X51250000Y-42000000D01*
X51159136Y-42017097D01*
X51075682Y-42070798D01*
X51019696Y-42152736D01*
X51000000Y-42250000D01*
X45509371Y-42250000D01*
X45571600Y-41937155D01*
X45571600Y-41562845D01*
X45448163Y-40942286D01*
X45096644Y-40416201D01*
X44570559Y-40064682D01*
X43950000Y-39941245D01*
X43329441Y-40064682D01*
X43004581Y-40281747D01*
X42650265Y-39754078D01*
X42644132Y-39750000D01*
X60500000Y-39750000D01*
X60500000Y-46750000D01*
X60517097Y-46840864D01*
X60570798Y-46924318D01*
X60652736Y-46980304D01*
X60750000Y-47000000D01*
X67750000Y-47000000D01*
X67840864Y-46982903D01*
X67924318Y-46929202D01*
X67980304Y-46847264D01*
X68000000Y-46750000D01*
X68000000Y-42234000D01*
X91461150Y-42234000D01*
X91461150Y-44266000D01*
X91514005Y-44546898D01*
X91680015Y-44804886D01*
X91933318Y-44977960D01*
X92234000Y-45038850D01*
X94266000Y-45038850D01*
X94387215Y-45016042D01*
X94538421Y-45241236D01*
X95114815Y-45624493D01*
X95508535Y-45735528D01*
X95786000Y-45568495D01*
X95786000Y-43254000D01*
X95794000Y-43254000D01*
X95794000Y-45568495D01*
X96071465Y-45735528D01*
X96465185Y-45624493D01*
X97041579Y-45241236D01*
X97427432Y-44666576D01*
X97564000Y-43988000D01*
X97564000Y-43254000D01*
X95794000Y-43254000D01*
X95786000Y-43254000D01*
X95766000Y-43254000D01*
X95766000Y-43246000D01*
X95786000Y-43246000D01*
X95786000Y-40931505D01*
X95794000Y-40931505D01*
X95794000Y-43246000D01*
X97564000Y-43246000D01*
X97564000Y-42512000D01*
X97427432Y-41833424D01*
X97041579Y-41258764D01*
X96465185Y-40875507D01*
X96071465Y-40764472D01*
X95794000Y-40931505D01*
X95786000Y-40931505D01*
X95508535Y-40764472D01*
X95114815Y-40875507D01*
X94538421Y-41258764D01*
X94386188Y-41485489D01*
X94266000Y-41461150D01*
X92234000Y-41461150D01*
X91953102Y-41514005D01*
X91695114Y-41680015D01*
X91522040Y-41933318D01*
X91461150Y-42234000D01*
X68000000Y-42234000D01*
X68000000Y-39750000D01*
X100500000Y-39750000D01*
X100500000Y-46750000D01*
X100517097Y-46840864D01*
X100570798Y-46924318D01*
X100652736Y-46980304D01*
X100750000Y-47000000D01*
X107750000Y-47000000D01*
X107840864Y-46982903D01*
X107924318Y-46929202D01*
X107980304Y-46847264D01*
X108000000Y-46750000D01*
X108000000Y-42250000D01*
X109000000Y-42250000D01*
X109000000Y-47250000D01*
X109017097Y-47340864D01*
X109070798Y-47424318D01*
X109152736Y-47480304D01*
X109250000Y-47500000D01*
X114250000Y-47500000D01*
X114340864Y-47482903D01*
X114424318Y-47429202D01*
X114480304Y-47347264D01*
X114500000Y-47250000D01*
X114500000Y-42250000D01*
X114482903Y-42159136D01*
X114429202Y-42075682D01*
X114347264Y-42019696D01*
X114250000Y-42000000D01*
X109250000Y-42000000D01*
X109159136Y-42017097D01*
X109075682Y-42070798D01*
X109019696Y-42152736D01*
X109000000Y-42250000D01*
X108000000Y-42250000D01*
X108000000Y-39750000D01*
X107982903Y-39659136D01*
X107929202Y-39575682D01*
X107847264Y-39519696D01*
X107750000Y-39500000D01*
X100750000Y-39500000D01*
X100659136Y-39517097D01*
X100575682Y-39570798D01*
X100519696Y-39652736D01*
X100500000Y-39750000D01*
X68000000Y-39750000D01*
X67982903Y-39659136D01*
X67929202Y-39575682D01*
X67847264Y-39519696D01*
X67750000Y-39500000D01*
X60750000Y-39500000D01*
X60659136Y-39517097D01*
X60575682Y-39570798D01*
X60519696Y-39652736D01*
X60500000Y-39750000D01*
X42644132Y-39750000D01*
X42079062Y-39374289D01*
X41688962Y-39264275D01*
X41414000Y-39431505D01*
X41406000Y-39431505D01*
X41131038Y-39264275D01*
X40740938Y-39374289D01*
X40169735Y-39754078D01*
X39815419Y-40281747D01*
X39490559Y-40064682D01*
X38870000Y-39941245D01*
X38249441Y-40064682D01*
X37723356Y-40416201D01*
X37600000Y-40600816D01*
X37476644Y-40416201D01*
X36950559Y-40064682D01*
X36330000Y-39941245D01*
X35709441Y-40064682D01*
X35183356Y-40416201D01*
X35060000Y-40600816D01*
X34936644Y-40416201D01*
X34410559Y-40064682D01*
X33790000Y-39941245D01*
X33169441Y-40064682D01*
X32759789Y-40338403D01*
X32667585Y-40195114D01*
X32414282Y-40022040D01*
X32113600Y-39961150D01*
X30386400Y-39961150D01*
X30105502Y-40014005D01*
X29847514Y-40180015D01*
X29674440Y-40433318D01*
X29613550Y-40734000D01*
X24558000Y-40734000D01*
X24558000Y-39225908D01*
X25119749Y-39225908D01*
X25199973Y-39542042D01*
X25835574Y-39833340D01*
X26534268Y-39859230D01*
X27189684Y-39615771D01*
X27300027Y-39542042D01*
X27380251Y-39225908D01*
X26250000Y-38095657D01*
X25119749Y-39225908D01*
X24558000Y-39225908D01*
X24558000Y-38582179D01*
X24724229Y-39029684D01*
X24797958Y-39140027D01*
X25114092Y-39220251D01*
X26244343Y-38090000D01*
X26255657Y-38090000D01*
X27385908Y-39220251D01*
X27702042Y-39140027D01*
X27993340Y-38504426D01*
X28019230Y-37805732D01*
X27775771Y-37150316D01*
X27702042Y-37039973D01*
X27385908Y-36959749D01*
X26255657Y-38090000D01*
X26244343Y-38090000D01*
X25114092Y-36959749D01*
X24797958Y-37039973D01*
X24558000Y-37563552D01*
X24558000Y-36954092D01*
X25119749Y-36954092D01*
X26250000Y-38084343D01*
X27380251Y-36954092D01*
X27300027Y-36637958D01*
X26664426Y-36346660D01*
X25965732Y-36320770D01*
X25310316Y-36564229D01*
X25199973Y-36637958D01*
X25119749Y-36954092D01*
X24558000Y-36954092D01*
X24558000Y-36058000D01*
X115942000Y-36058000D01*
X115942000Y-120925362D01*
X115942000Y-120925362D01*
G37*
X115942000Y-120925362D02*
X115416576Y-120572568D01*
X114738000Y-120436000D01*
X114004000Y-120436000D01*
X114004000Y-122206000D01*
X114024000Y-122206000D01*
X114024000Y-122214000D01*
X114004000Y-122214000D01*
X114004000Y-122234000D01*
X113996000Y-122234000D01*
X113996000Y-122214000D01*
X111681505Y-122214000D01*
X111514472Y-122491465D01*
X111625507Y-122885185D01*
X112008764Y-123461579D01*
X112235489Y-123613812D01*
X112211150Y-123734000D01*
X112211150Y-125766000D01*
X112264005Y-126046898D01*
X112430015Y-126304886D01*
X112683318Y-126477960D01*
X112984000Y-126538850D01*
X115016000Y-126538850D01*
X115296898Y-126485995D01*
X115554886Y-126319985D01*
X115727960Y-126066682D01*
X115788850Y-125766000D01*
X115788850Y-123734000D01*
X115766042Y-123612785D01*
X115942000Y-123494638D01*
X115942000Y-132873125D01*
X115510655Y-132583368D01*
X115415602Y-132564217D01*
X115685318Y-132160559D01*
X115808755Y-131540000D01*
X115685318Y-130919441D01*
X115411597Y-130509789D01*
X115554886Y-130417585D01*
X115727960Y-130164282D01*
X115788850Y-129863600D01*
X115788850Y-128136400D01*
X115735995Y-127855502D01*
X115569985Y-127597514D01*
X115316682Y-127424440D01*
X115016000Y-127363550D01*
X112984000Y-127363550D01*
X112703102Y-127416405D01*
X112445114Y-127582415D01*
X112272040Y-127835718D01*
X112211150Y-128136400D01*
X112211150Y-129863600D01*
X112264005Y-130144498D01*
X112430015Y-130402486D01*
X112587982Y-130510420D01*
X112314682Y-130919441D01*
X112191245Y-131540000D01*
X112314682Y-132160559D01*
X112584398Y-132564217D01*
X112489345Y-132583368D01*
X111964127Y-132936184D01*
X111613906Y-133463136D01*
X111512595Y-133822376D01*
X111681506Y-134076000D01*
X113996000Y-134076000D01*
X113996000Y-134056000D01*
X114004000Y-134056000D01*
X114004000Y-134076000D01*
X114024000Y-134076000D01*
X114024000Y-134084000D01*
X114004000Y-134084000D01*
X114004000Y-135701600D01*
X114890400Y-135701600D01*
X115510655Y-135576632D01*
X115942000Y-135286875D01*
X115942000Y-138123035D01*
X115923717Y-138031120D01*
X115539162Y-137455593D01*
X114963635Y-137071038D01*
X114284755Y-136936000D01*
X114215245Y-136936000D01*
X113536365Y-137071038D01*
X112960838Y-137455593D01*
X112576283Y-138031120D01*
X112441245Y-138710000D01*
X112576283Y-139388880D01*
X112748052Y-139645950D01*
X112695114Y-139680015D01*
X112522040Y-139933318D01*
X112461150Y-140234000D01*
X112461150Y-142266000D01*
X112514005Y-142546898D01*
X112680015Y-142804886D01*
X112933318Y-142977960D01*
X113234000Y-143038850D01*
X115266000Y-143038850D01*
X115546898Y-142985995D01*
X115804886Y-142819985D01*
X115942000Y-142619311D01*
X115942000Y-169442000D01*
X24558000Y-169442000D01*
X24558000Y-163250000D01*
X28000000Y-163250000D01*
X28000000Y-168250000D01*
X28017097Y-168340864D01*
X28070798Y-168424318D01*
X28152736Y-168480304D01*
X28250000Y-168500000D01*
X33250000Y-168500000D01*
X33340864Y-168482903D01*
X33424318Y-168429202D01*
X33480304Y-168347264D01*
X33500000Y-168250000D01*
X33500000Y-163250000D01*
X33482903Y-163159136D01*
X33429202Y-163075682D01*
X33347264Y-163019696D01*
X33250000Y-163000000D01*
X28250000Y-163000000D01*
X28159136Y-163017097D01*
X28075682Y-163070798D01*
X28019696Y-163152736D01*
X28000000Y-163250000D01*
X24558000Y-163250000D01*
X24558000Y-159750000D01*
X44500000Y-159750000D01*
X44500000Y-166750000D01*
X44517097Y-166840864D01*
X44570798Y-166924318D01*
X44652736Y-166980304D01*
X44750000Y-167000000D01*
X51750000Y-167000000D01*
X51840864Y-166982903D01*
X51924318Y-166929202D01*
X51980304Y-166847264D01*
X52000000Y-166750000D01*
X52000000Y-159750000D01*
X51982903Y-159659136D01*
X51929202Y-159575682D01*
X51847264Y-159519696D01*
X51750000Y-159500000D01*
X44750000Y-159500000D01*
X44659136Y-159517097D01*
X44575682Y-159570798D01*
X44519696Y-159652736D01*
X44500000Y-159750000D01*
X24558000Y-159750000D01*
X24558000Y-157133939D01*
X66621718Y-157133939D01*
X66659425Y-157413758D01*
X67168761Y-157646846D01*
X67728525Y-157667277D01*
X68253498Y-157471941D01*
X68340575Y-157413758D01*
X68378282Y-157133939D01*
X67500000Y-156255657D01*
X66621718Y-157133939D01*
X24558000Y-157133939D01*
X24558000Y-156478525D01*
X66082723Y-156478525D01*
X66278059Y-157003498D01*
X66336242Y-157090575D01*
X66616061Y-157128282D01*
X67494343Y-156250000D01*
X67505657Y-156250000D01*
X68383939Y-157128282D01*
X68663758Y-157090575D01*
X68896846Y-156581239D01*
X68917277Y-156021475D01*
X68760452Y-155600000D01*
X71077150Y-155600000D01*
X71077150Y-156900000D01*
X71130005Y-157180898D01*
X71296015Y-157438886D01*
X71549318Y-157611960D01*
X71850000Y-157672850D01*
X73150000Y-157672850D01*
X73430898Y-157619995D01*
X73688886Y-157453985D01*
X73861960Y-157200682D01*
X73922850Y-156900000D01*
X73922850Y-156489697D01*
X75241168Y-156489697D01*
X75470351Y-157044360D01*
X75894348Y-157469098D01*
X76448610Y-157699248D01*
X77048757Y-157699772D01*
X77603420Y-157470589D01*
X78028158Y-157046592D01*
X78258308Y-156492330D01*
X78258832Y-155892183D01*
X78029649Y-155337520D01*
X77605652Y-154912782D01*
X77051390Y-154682632D01*
X76451243Y-154682108D01*
X75896580Y-154911291D01*
X75471842Y-155335288D01*
X75241692Y-155889550D01*
X75241168Y-156489697D01*
X73922850Y-156489697D01*
X73922850Y-155600000D01*
X73869995Y-155319102D01*
X73703985Y-155061114D01*
X73450682Y-154888040D01*
X73150000Y-154827150D01*
X71850000Y-154827150D01*
X71569102Y-154880005D01*
X71311114Y-155046015D01*
X71138040Y-155299318D01*
X71077150Y-155600000D01*
X68760452Y-155600000D01*
X68721941Y-155496502D01*
X68663758Y-155409425D01*
X68383939Y-155371718D01*
X67505657Y-156250000D01*
X67494343Y-156250000D01*
X66616061Y-155371718D01*
X66336242Y-155409425D01*
X66103154Y-155918761D01*
X66082723Y-156478525D01*
X24558000Y-156478525D01*
X24558000Y-155366061D01*
X66621718Y-155366061D01*
X67500000Y-156244343D01*
X68378282Y-155366061D01*
X68340575Y-155086242D01*
X67831239Y-154853154D01*
X67271475Y-154832723D01*
X66746502Y-155028059D01*
X66659425Y-155086242D01*
X66621718Y-155366061D01*
X24558000Y-155366061D01*
X24558000Y-152133939D01*
X66621718Y-152133939D01*
X66659425Y-152413758D01*
X67168761Y-152646846D01*
X67728525Y-152667277D01*
X68253498Y-152471941D01*
X68340575Y-152413758D01*
X68378282Y-152133939D01*
X67500000Y-151255657D01*
X66621718Y-152133939D01*
X24558000Y-152133939D01*
X24558000Y-151478525D01*
X66082723Y-151478525D01*
X66278059Y-152003498D01*
X66336242Y-152090575D01*
X66616061Y-152128282D01*
X67494343Y-151250000D01*
X67505657Y-151250000D01*
X68383939Y-152128282D01*
X68663758Y-152090575D01*
X68896846Y-151581239D01*
X68917277Y-151021475D01*
X68760452Y-150600000D01*
X71077150Y-150600000D01*
X71077150Y-151900000D01*
X71130005Y-152180898D01*
X71296015Y-152438886D01*
X71549318Y-152611960D01*
X71850000Y-152672850D01*
X73150000Y-152672850D01*
X73430898Y-152619995D01*
X73688886Y-152453985D01*
X73861960Y-152200682D01*
X73922850Y-151900000D01*
X73922850Y-151607817D01*
X75241168Y-151607817D01*
X75470351Y-152162480D01*
X75894348Y-152587218D01*
X76448610Y-152817368D01*
X77048757Y-152817892D01*
X77603420Y-152588709D01*
X78028158Y-152164712D01*
X78258308Y-151610450D01*
X78258832Y-151010303D01*
X78029649Y-150455640D01*
X77605652Y-150030902D01*
X77051390Y-149800752D01*
X76451243Y-149800228D01*
X75896580Y-150029411D01*
X75471842Y-150453408D01*
X75241692Y-151007670D01*
X75241168Y-151607817D01*
X73922850Y-151607817D01*
X73922850Y-150600000D01*
X73869995Y-150319102D01*
X73703985Y-150061114D01*
X73450682Y-149888040D01*
X73150000Y-149827150D01*
X71850000Y-149827150D01*
X71569102Y-149880005D01*
X71311114Y-150046015D01*
X71138040Y-150299318D01*
X71077150Y-150600000D01*
X68760452Y-150600000D01*
X68721941Y-150496502D01*
X68663758Y-150409425D01*
X68383939Y-150371718D01*
X67505657Y-151250000D01*
X67494343Y-151250000D01*
X66616061Y-150371718D01*
X66336242Y-150409425D01*
X66103154Y-150918761D01*
X66082723Y-151478525D01*
X24558000Y-151478525D01*
X24558000Y-146210000D01*
X24941245Y-146210000D01*
X25076283Y-146888880D01*
X25248052Y-147145950D01*
X25195114Y-147180015D01*
X25022040Y-147433318D01*
X24961150Y-147734000D01*
X24961150Y-149766000D01*
X25014005Y-150046898D01*
X25180015Y-150304886D01*
X25433318Y-150477960D01*
X25734000Y-150538850D01*
X27766000Y-150538850D01*
X28046898Y-150485995D01*
X28233281Y-150366061D01*
X66621718Y-150366061D01*
X67500000Y-151244343D01*
X68378282Y-150366061D01*
X68340575Y-150086242D01*
X67831239Y-149853154D01*
X67271475Y-149832723D01*
X66746502Y-150028059D01*
X66659425Y-150086242D01*
X66621718Y-150366061D01*
X28233281Y-150366061D01*
X28304886Y-150319985D01*
X28477960Y-150066682D01*
X28538850Y-149766000D01*
X28538850Y-147734000D01*
X28485995Y-147453102D01*
X28418294Y-147347890D01*
X72907767Y-147347890D01*
X72939389Y-147622516D01*
X73430661Y-147847277D01*
X73970550Y-147866927D01*
X74476862Y-147678475D01*
X74560611Y-147622516D01*
X74592233Y-147347890D01*
X73750000Y-146505657D01*
X72907767Y-147347890D01*
X28418294Y-147347890D01*
X28319985Y-147195114D01*
X28250720Y-147147788D01*
X28423717Y-146888880D01*
X28457200Y-146720550D01*
X72383073Y-146720550D01*
X72571525Y-147226862D01*
X72627484Y-147310611D01*
X72902110Y-147342233D01*
X73744343Y-146500000D01*
X73755657Y-146500000D01*
X74597890Y-147342233D01*
X74872516Y-147310611D01*
X75097277Y-146819339D01*
X75101857Y-146693500D01*
X76142000Y-146693500D01*
X76142000Y-147250776D01*
X76257399Y-147529373D01*
X76470628Y-147742602D01*
X76749225Y-147858000D01*
X77306500Y-147858000D01*
X77496000Y-147668500D01*
X77496000Y-146504000D01*
X76331500Y-146504000D01*
X76142000Y-146693500D01*
X75101857Y-146693500D01*
X75116927Y-146279450D01*
X74928475Y-145773138D01*
X74872516Y-145689389D01*
X74597890Y-145657767D01*
X73755657Y-146500000D01*
X73744343Y-146500000D01*
X72902110Y-145657767D01*
X72627484Y-145689389D01*
X72402723Y-146180661D01*
X72383073Y-146720550D01*
X28457200Y-146720550D01*
X28558755Y-146210000D01*
X28423717Y-145531120D01*
X28039162Y-144955593D01*
X27463635Y-144571038D01*
X26784755Y-144436000D01*
X26715245Y-144436000D01*
X26036365Y-144571038D01*
X25460838Y-144955593D01*
X25076283Y-145531120D01*
X24941245Y-146210000D01*
X24558000Y-146210000D01*
X24558000Y-140325723D01*
X25401725Y-141170921D01*
X26141339Y-141478036D01*
X25953474Y-141555660D01*
X25557052Y-141951391D01*
X25342245Y-142468703D01*
X25341756Y-143028840D01*
X25555660Y-143546526D01*
X25951391Y-143942948D01*
X26468703Y-144157755D01*
X27028840Y-144158244D01*
X27546526Y-143944340D01*
X27942948Y-143548609D01*
X28157755Y-143031297D01*
X28158244Y-142471160D01*
X28004884Y-142100000D01*
X30327150Y-142100000D01*
X30327150Y-143400000D01*
X30380005Y-143680898D01*
X30546015Y-143938886D01*
X30799318Y-144111960D01*
X31100000Y-144172850D01*
X32400000Y-144172850D01*
X32680898Y-144119995D01*
X32938886Y-143953985D01*
X33111960Y-143700682D01*
X33172850Y-143400000D01*
X72377150Y-143400000D01*
X72377150Y-144600000D01*
X72430005Y-144880898D01*
X72596015Y-145138886D01*
X72849318Y-145311960D01*
X72993696Y-145341197D01*
X72939389Y-145377484D01*
X72907767Y-145652110D01*
X73750000Y-146494343D01*
X74592233Y-145652110D01*
X74560611Y-145377484D01*
X74492057Y-145346120D01*
X74630898Y-145319995D01*
X74888886Y-145153985D01*
X75061960Y-144900682D01*
X75122850Y-144600000D01*
X75122850Y-144268938D01*
X76141765Y-144268938D01*
X76348072Y-144768240D01*
X76729384Y-145150218D01*
X76470628Y-145257398D01*
X76257399Y-145470627D01*
X76142000Y-145749224D01*
X76142000Y-146306500D01*
X76331500Y-146496000D01*
X77496000Y-146496000D01*
X77496000Y-146476000D01*
X77504000Y-146476000D01*
X77504000Y-146496000D01*
X77524000Y-146496000D01*
X77524000Y-146504000D01*
X77504000Y-146504000D01*
X77504000Y-147668500D01*
X77693500Y-147858000D01*
X78250775Y-147858000D01*
X78529372Y-147742602D01*
X78742601Y-147529373D01*
X78781489Y-147435490D01*
X79004078Y-147770265D01*
X79573547Y-148152649D01*
X79724362Y-148183005D01*
X79530073Y-148473779D01*
X79411477Y-149070000D01*
X79530073Y-149666221D01*
X79867805Y-150171672D01*
X80119725Y-150340000D01*
X79867805Y-150508328D01*
X79530073Y-151013779D01*
X79411477Y-151610000D01*
X79530073Y-152206221D01*
X79867805Y-152711672D01*
X80119725Y-152880000D01*
X79867805Y-153048328D01*
X79530073Y-153553779D01*
X79411477Y-154150000D01*
X79530073Y-154746221D01*
X79867805Y-155251672D01*
X80119725Y-155420000D01*
X79867805Y-155588328D01*
X79530073Y-156093779D01*
X79411477Y-156690000D01*
X79530073Y-157286221D01*
X79867805Y-157791672D01*
X80119725Y-157960000D01*
X79867805Y-158128328D01*
X79530073Y-158633779D01*
X79411477Y-159230000D01*
X79530073Y-159826221D01*
X79867805Y-160331672D01*
X80119725Y-160500000D01*
X79867805Y-160668328D01*
X79530073Y-161173779D01*
X79411477Y-161770000D01*
X79530073Y-162366221D01*
X79867805Y-162871672D01*
X80373256Y-163209404D01*
X80969477Y-163328000D01*
X81030523Y-163328000D01*
X81626744Y-163209404D01*
X82132195Y-162871672D01*
X82469927Y-162366221D01*
X82588523Y-161770000D01*
X82469927Y-161173779D01*
X82132195Y-160668328D01*
X81880275Y-160500000D01*
X82132195Y-160331672D01*
X82469927Y-159826221D01*
X82588523Y-159230000D01*
X82469927Y-158633779D01*
X82132195Y-158128328D01*
X81880275Y-157960000D01*
X82132195Y-157791672D01*
X82469927Y-157286221D01*
X82588523Y-156690000D01*
X82469927Y-156093779D01*
X82132195Y-155588328D01*
X81880275Y-155420000D01*
X82132195Y-155251672D01*
X82469927Y-154746221D01*
X82588523Y-154150000D01*
X82469927Y-153553779D01*
X82132195Y-153048328D01*
X81880275Y-152880000D01*
X82132195Y-152711672D01*
X82469927Y-152206221D01*
X82588523Y-151610000D01*
X82469927Y-151013779D01*
X82132195Y-150508328D01*
X81880275Y-150340000D01*
X82132195Y-150171672D01*
X82469927Y-149666221D01*
X82588523Y-149070000D01*
X82469927Y-148473779D01*
X82275638Y-148183005D01*
X82426453Y-148152649D01*
X82995922Y-147770265D01*
X83375711Y-147199062D01*
X83485725Y-146808962D01*
X83318495Y-146534000D01*
X81004000Y-146534000D01*
X81004000Y-146554000D01*
X80996000Y-146554000D01*
X80996000Y-146534000D01*
X80976000Y-146534000D01*
X80976000Y-146526000D01*
X80996000Y-146526000D01*
X80996000Y-146506000D01*
X81004000Y-146506000D01*
X81004000Y-146526000D01*
X83318495Y-146526000D01*
X83485725Y-146251038D01*
X83375711Y-145860938D01*
X82995922Y-145289735D01*
X82426453Y-144907351D01*
X82275638Y-144876995D01*
X82469927Y-144586221D01*
X82533033Y-144268962D01*
X86134275Y-144268962D01*
X86244289Y-144659062D01*
X86624078Y-145230265D01*
X87193547Y-145612649D01*
X87344362Y-145643005D01*
X87150073Y-145933779D01*
X87031477Y-146530000D01*
X87150073Y-147126221D01*
X87487805Y-147631672D01*
X87739725Y-147800000D01*
X87487805Y-147968328D01*
X87150073Y-148473779D01*
X87031477Y-149070000D01*
X87150073Y-149666221D01*
X87487805Y-150171672D01*
X87739725Y-150340000D01*
X87487805Y-150508328D01*
X87150073Y-151013779D01*
X87031477Y-151610000D01*
X87150073Y-152206221D01*
X87487805Y-152711672D01*
X87739725Y-152880000D01*
X87487805Y-153048328D01*
X87150073Y-153553779D01*
X87031477Y-154150000D01*
X87150073Y-154746221D01*
X87487805Y-155251672D01*
X87739725Y-155420000D01*
X87487805Y-155588328D01*
X87150073Y-156093779D01*
X87031477Y-156690000D01*
X87150073Y-157286221D01*
X87487805Y-157791672D01*
X87739725Y-157960000D01*
X87487805Y-158128328D01*
X87150073Y-158633779D01*
X87031477Y-159230000D01*
X87150073Y-159826221D01*
X87487805Y-160331672D01*
X87739725Y-160500000D01*
X87487805Y-160668328D01*
X87150073Y-161173779D01*
X87031477Y-161770000D01*
X87150073Y-162366221D01*
X87487805Y-162871672D01*
X87993256Y-163209404D01*
X88589477Y-163328000D01*
X88650523Y-163328000D01*
X89246744Y-163209404D01*
X89752195Y-162871672D01*
X90089927Y-162366221D01*
X90208523Y-161770000D01*
X90089927Y-161173779D01*
X89752195Y-160668328D01*
X89500275Y-160500000D01*
X89752195Y-160331672D01*
X90089927Y-159826221D01*
X90105088Y-159750000D01*
X100500000Y-159750000D01*
X100500000Y-168250000D01*
X100517097Y-168340864D01*
X100570798Y-168424318D01*
X100652736Y-168480304D01*
X100750000Y-168500000D01*
X113250000Y-168500000D01*
X113340864Y-168482903D01*
X113424318Y-168429202D01*
X113480304Y-168347264D01*
X113500000Y-168250000D01*
X113500000Y-163250000D01*
X113482903Y-163159136D01*
X113429202Y-163075682D01*
X113347264Y-163019696D01*
X113250000Y-163000000D01*
X108500000Y-163000000D01*
X108500000Y-159750000D01*
X108482903Y-159659136D01*
X108429202Y-159575682D01*
X108347264Y-159519696D01*
X108250000Y-159500000D01*
X100750000Y-159500000D01*
X100659136Y-159517097D01*
X100575682Y-159570798D01*
X100519696Y-159652736D01*
X100500000Y-159750000D01*
X90105088Y-159750000D01*
X90208523Y-159230000D01*
X90089927Y-158633779D01*
X89752195Y-158128328D01*
X89500275Y-157960000D01*
X89752195Y-157791672D01*
X90089927Y-157286221D01*
X90208523Y-156690000D01*
X90089927Y-156093779D01*
X89752195Y-155588328D01*
X89500275Y-155420000D01*
X89752195Y-155251672D01*
X90089927Y-154746221D01*
X90208523Y-154150000D01*
X90089927Y-153553779D01*
X89752195Y-153048328D01*
X89500275Y-152880000D01*
X89752195Y-152711672D01*
X90089927Y-152206221D01*
X90208523Y-151610000D01*
X90089927Y-151013779D01*
X89752195Y-150508328D01*
X89500275Y-150340000D01*
X89752195Y-150171672D01*
X90089927Y-149666221D01*
X90119223Y-149518938D01*
X90641765Y-149518938D01*
X90848072Y-150018240D01*
X91229750Y-150400585D01*
X91728692Y-150607764D01*
X92268938Y-150608235D01*
X92768240Y-150401928D01*
X93150218Y-150020616D01*
X93257398Y-150279372D01*
X93470627Y-150492601D01*
X93749224Y-150608000D01*
X94306500Y-150608000D01*
X94496000Y-150418500D01*
X94496000Y-149254000D01*
X94504000Y-149254000D01*
X94504000Y-150418500D01*
X94693500Y-150608000D01*
X95250776Y-150608000D01*
X95529373Y-150492601D01*
X95742602Y-150279372D01*
X95858000Y-150000775D01*
X95858000Y-149443500D01*
X95668500Y-149254000D01*
X94504000Y-149254000D01*
X94496000Y-149254000D01*
X94476000Y-149254000D01*
X94476000Y-149246000D01*
X94496000Y-149246000D01*
X94496000Y-148081500D01*
X94504000Y-148081500D01*
X94504000Y-149246000D01*
X95668500Y-149246000D01*
X95858000Y-149056500D01*
X95858000Y-148499225D01*
X95742602Y-148220628D01*
X95529373Y-148007399D01*
X95250776Y-147892000D01*
X94693500Y-147892000D01*
X94504000Y-148081500D01*
X94496000Y-148081500D01*
X94306500Y-147892000D01*
X93749224Y-147892000D01*
X93470627Y-148007399D01*
X93257398Y-148220628D01*
X93150024Y-148479853D01*
X92770250Y-148099415D01*
X92271308Y-147892236D01*
X91731062Y-147891765D01*
X91231760Y-148098072D01*
X90849415Y-148479750D01*
X90642236Y-148978692D01*
X90641765Y-149518938D01*
X90119223Y-149518938D01*
X90208523Y-149070000D01*
X90089927Y-148473779D01*
X89752195Y-147968328D01*
X89500275Y-147800000D01*
X89752195Y-147631672D01*
X90089927Y-147126221D01*
X90160995Y-146768938D01*
X91141765Y-146768938D01*
X91348072Y-147268240D01*
X91729750Y-147650585D01*
X92228692Y-147857764D01*
X92768938Y-147858235D01*
X93268240Y-147651928D01*
X93650585Y-147270250D01*
X93857764Y-146771308D01*
X93858235Y-146231062D01*
X93651928Y-145731760D01*
X93270616Y-145349782D01*
X93529372Y-145242602D01*
X93742601Y-145029373D01*
X93858000Y-144750776D01*
X93858000Y-144193500D01*
X93668500Y-144004000D01*
X92504000Y-144004000D01*
X92504000Y-144024000D01*
X92496000Y-144024000D01*
X92496000Y-144004000D01*
X91331500Y-144004000D01*
X91142000Y-144193500D01*
X91142000Y-144750776D01*
X91257399Y-145029373D01*
X91470628Y-145242602D01*
X91729853Y-145349976D01*
X91349415Y-145729750D01*
X91142236Y-146228692D01*
X91141765Y-146768938D01*
X90160995Y-146768938D01*
X90208523Y-146530000D01*
X90089927Y-145933779D01*
X89895638Y-145643005D01*
X90046453Y-145612649D01*
X90615922Y-145230265D01*
X90995711Y-144659062D01*
X91105725Y-144268962D01*
X90938495Y-143994000D01*
X88624000Y-143994000D01*
X88624000Y-144014000D01*
X88616000Y-144014000D01*
X88616000Y-143994000D01*
X86301505Y-143994000D01*
X86134275Y-144268962D01*
X82533033Y-144268962D01*
X82588523Y-143990000D01*
X82533034Y-143711038D01*
X86134275Y-143711038D01*
X86301505Y-143986000D01*
X88616000Y-143986000D01*
X88616000Y-143966000D01*
X88624000Y-143966000D01*
X88624000Y-143986000D01*
X90938495Y-143986000D01*
X91105725Y-143711038D01*
X90995711Y-143320938D01*
X90948029Y-143249224D01*
X91142000Y-143249224D01*
X91142000Y-143806500D01*
X91331500Y-143996000D01*
X92496000Y-143996000D01*
X92496000Y-142831500D01*
X92504000Y-142831500D01*
X92504000Y-143996000D01*
X93668500Y-143996000D01*
X93858000Y-143806500D01*
X93858000Y-143758053D01*
X103992206Y-143758053D01*
X104259204Y-144404237D01*
X104753162Y-144899059D01*
X105398880Y-145167184D01*
X106098053Y-145167794D01*
X106744237Y-144900796D01*
X107239059Y-144406838D01*
X107507184Y-143761120D01*
X107507794Y-143061947D01*
X107240796Y-142415763D01*
X106746838Y-141920941D01*
X106101120Y-141652816D01*
X105401947Y-141652206D01*
X104755763Y-141919204D01*
X104260941Y-142413162D01*
X103992816Y-143058880D01*
X103992206Y-143758053D01*
X93858000Y-143758053D01*
X93858000Y-143249224D01*
X93742601Y-142970627D01*
X93529372Y-142757398D01*
X93250775Y-142642000D01*
X92693500Y-142642000D01*
X92504000Y-142831500D01*
X92496000Y-142831500D01*
X92306500Y-142642000D01*
X91749225Y-142642000D01*
X91470628Y-142757398D01*
X91257399Y-142970627D01*
X91142000Y-143249224D01*
X90948029Y-143249224D01*
X90615922Y-142749735D01*
X90046453Y-142367351D01*
X89895638Y-142336995D01*
X90089927Y-142046221D01*
X90208523Y-141450000D01*
X90089927Y-140853779D01*
X89752195Y-140348328D01*
X89500275Y-140180000D01*
X89752195Y-140011672D01*
X90089927Y-139506221D01*
X90208523Y-138910000D01*
X90152828Y-138630000D01*
X108441245Y-138630000D01*
X108564682Y-139250559D01*
X108916201Y-139776644D01*
X109100816Y-139900000D01*
X108916201Y-140023356D01*
X108564682Y-140549441D01*
X108441245Y-141170000D01*
X108564682Y-141790559D01*
X108916201Y-142316644D01*
X109100816Y-142440000D01*
X108916201Y-142563356D01*
X108564682Y-143089441D01*
X108441245Y-143710000D01*
X108564682Y-144330559D01*
X108838403Y-144740211D01*
X108695114Y-144832415D01*
X108522040Y-145085718D01*
X108461150Y-145386400D01*
X108461150Y-147113600D01*
X108514005Y-147394498D01*
X108680015Y-147652486D01*
X108933318Y-147825560D01*
X109234000Y-147886450D01*
X111266000Y-147886450D01*
X111546898Y-147833595D01*
X111804886Y-147667585D01*
X111977960Y-147414282D01*
X112038850Y-147113600D01*
X112038850Y-145386400D01*
X111985995Y-145105502D01*
X111819985Y-144847514D01*
X111662018Y-144739580D01*
X111935318Y-144330559D01*
X112058755Y-143710000D01*
X111935318Y-143089441D01*
X111583799Y-142563356D01*
X111399184Y-142440000D01*
X111583799Y-142316644D01*
X111935318Y-141790559D01*
X112058755Y-141170000D01*
X111935318Y-140549441D01*
X111583799Y-140023356D01*
X111399184Y-139900000D01*
X111583799Y-139776644D01*
X111935318Y-139250559D01*
X112058755Y-138630000D01*
X111935318Y-138009441D01*
X111583799Y-137483356D01*
X111057714Y-137131837D01*
X110437155Y-137008400D01*
X110062845Y-137008400D01*
X109442286Y-137131837D01*
X108916201Y-137483356D01*
X108564682Y-138009441D01*
X108441245Y-138630000D01*
X90152828Y-138630000D01*
X90089927Y-138313779D01*
X89752195Y-137808328D01*
X89500275Y-137640000D01*
X89752195Y-137471672D01*
X90089927Y-136966221D01*
X90208523Y-136370000D01*
X90089927Y-135773779D01*
X89972511Y-135598053D01*
X107992206Y-135598053D01*
X108259204Y-136244237D01*
X108753162Y-136739059D01*
X109398880Y-137007184D01*
X110098053Y-137007794D01*
X110744237Y-136740796D01*
X111239059Y-136246838D01*
X111507184Y-135601120D01*
X111507794Y-134901947D01*
X111274621Y-134337624D01*
X111512595Y-134337624D01*
X111613906Y-134696864D01*
X111964127Y-135223816D01*
X112489345Y-135576632D01*
X113109600Y-135701600D01*
X113996000Y-135701600D01*
X113996000Y-134084000D01*
X111681506Y-134084000D01*
X111512595Y-134337624D01*
X111274621Y-134337624D01*
X111240796Y-134255763D01*
X110746838Y-133760941D01*
X110101120Y-133492816D01*
X109401947Y-133492206D01*
X108755763Y-133759204D01*
X108260941Y-134253162D01*
X107992816Y-134898880D01*
X107992206Y-135598053D01*
X89972511Y-135598053D01*
X89752195Y-135268328D01*
X89500275Y-135100000D01*
X89752195Y-134931672D01*
X90089927Y-134426221D01*
X90097945Y-134385908D01*
X104619749Y-134385908D01*
X104699973Y-134702042D01*
X105335574Y-134993340D01*
X106034268Y-135019230D01*
X106689684Y-134775771D01*
X106800027Y-134702042D01*
X106880251Y-134385908D01*
X105750000Y-133255657D01*
X104619749Y-134385908D01*
X90097945Y-134385908D01*
X90208523Y-133830000D01*
X90149699Y-133534268D01*
X103980770Y-133534268D01*
X104224229Y-134189684D01*
X104297958Y-134300027D01*
X104614092Y-134380251D01*
X105744343Y-133250000D01*
X105755657Y-133250000D01*
X106885908Y-134380251D01*
X107202042Y-134300027D01*
X107493340Y-133664426D01*
X107519230Y-132965732D01*
X107275771Y-132310316D01*
X107202042Y-132199973D01*
X106885908Y-132119749D01*
X105755657Y-133250000D01*
X105744343Y-133250000D01*
X104614092Y-132119749D01*
X104297958Y-132199973D01*
X104006660Y-132835574D01*
X103980770Y-133534268D01*
X90149699Y-133534268D01*
X90089927Y-133233779D01*
X89752195Y-132728328D01*
X89500275Y-132560000D01*
X89752195Y-132391672D01*
X89937668Y-132114092D01*
X104619749Y-132114092D01*
X105750000Y-133244343D01*
X106880251Y-132114092D01*
X106800027Y-131797958D01*
X106164426Y-131506660D01*
X105465732Y-131480770D01*
X104810316Y-131724229D01*
X104699973Y-131797958D01*
X104619749Y-132114092D01*
X89937668Y-132114092D01*
X90089927Y-131886221D01*
X90208523Y-131290000D01*
X90089927Y-130693779D01*
X89752195Y-130188328D01*
X89500275Y-130020000D01*
X89752195Y-129851672D01*
X90089927Y-129346221D01*
X90208523Y-128750000D01*
X90089927Y-128153779D01*
X89752195Y-127648328D01*
X89246744Y-127310596D01*
X88650523Y-127192000D01*
X88589477Y-127192000D01*
X87993256Y-127310596D01*
X87487805Y-127648328D01*
X87150073Y-128153779D01*
X87031477Y-128750000D01*
X87150073Y-129346221D01*
X87487805Y-129851672D01*
X87739725Y-130020000D01*
X87487805Y-130188328D01*
X87150073Y-130693779D01*
X87031477Y-131290000D01*
X87150073Y-131886221D01*
X87487805Y-132391672D01*
X87739725Y-132560000D01*
X87487805Y-132728328D01*
X87150073Y-133233779D01*
X87031477Y-133830000D01*
X87150073Y-134426221D01*
X87487805Y-134931672D01*
X87739725Y-135100000D01*
X87487805Y-135268328D01*
X87150073Y-135773779D01*
X87031477Y-136370000D01*
X87150073Y-136966221D01*
X87487805Y-137471672D01*
X87739725Y-137640000D01*
X87487805Y-137808328D01*
X87150073Y-138313779D01*
X87031477Y-138910000D01*
X87150073Y-139506221D01*
X87487805Y-140011672D01*
X87739725Y-140180000D01*
X87487805Y-140348328D01*
X87150073Y-140853779D01*
X87031477Y-141450000D01*
X87150073Y-142046221D01*
X87344362Y-142336995D01*
X87193547Y-142367351D01*
X86624078Y-142749735D01*
X86244289Y-143320938D01*
X86134275Y-143711038D01*
X82533034Y-143711038D01*
X82469927Y-143393779D01*
X82132195Y-142888328D01*
X81880275Y-142720000D01*
X82132195Y-142551672D01*
X82469927Y-142046221D01*
X82588523Y-141450000D01*
X82469927Y-140853779D01*
X82132195Y-140348328D01*
X81880275Y-140180000D01*
X82132195Y-140011672D01*
X82469927Y-139506221D01*
X82588523Y-138910000D01*
X82469927Y-138313779D01*
X82132195Y-137808328D01*
X81880275Y-137640000D01*
X82132195Y-137471672D01*
X82469927Y-136966221D01*
X82588523Y-136370000D01*
X82469927Y-135773779D01*
X82132195Y-135268328D01*
X81880275Y-135100000D01*
X82132195Y-134931672D01*
X82469927Y-134426221D01*
X82588523Y-133830000D01*
X82469927Y-133233779D01*
X82132195Y-132728328D01*
X81880275Y-132560000D01*
X82132195Y-132391672D01*
X82469927Y-131886221D01*
X82588523Y-131290000D01*
X82469927Y-130693779D01*
X82132195Y-130188328D01*
X81880275Y-130020000D01*
X82132195Y-129851672D01*
X82469927Y-129346221D01*
X82588523Y-128750000D01*
X82469927Y-128153779D01*
X82132195Y-127648328D01*
X81626744Y-127310596D01*
X81030523Y-127192000D01*
X80969477Y-127192000D01*
X80373256Y-127310596D01*
X79867805Y-127648328D01*
X79530073Y-128153779D01*
X79411477Y-128750000D01*
X79530073Y-129346221D01*
X79867805Y-129851672D01*
X80119725Y-130020000D01*
X79867805Y-130188328D01*
X79530073Y-130693779D01*
X79411477Y-131290000D01*
X79530073Y-131886221D01*
X79867805Y-132391672D01*
X80119725Y-132560000D01*
X79867805Y-132728328D01*
X79530073Y-133233779D01*
X79411477Y-133830000D01*
X79530073Y-134426221D01*
X79867805Y-134931672D01*
X80119725Y-135100000D01*
X79867805Y-135268328D01*
X79530073Y-135773779D01*
X79411477Y-136370000D01*
X79530073Y-136966221D01*
X79867805Y-137471672D01*
X80119725Y-137640000D01*
X79867805Y-137808328D01*
X79530073Y-138313779D01*
X79411477Y-138910000D01*
X79530073Y-139506221D01*
X79867805Y-140011672D01*
X80119725Y-140180000D01*
X79867805Y-140348328D01*
X79530073Y-140853779D01*
X79411477Y-141450000D01*
X79530073Y-142046221D01*
X79867805Y-142551672D01*
X80119725Y-142720000D01*
X79867805Y-142888328D01*
X79530073Y-143393779D01*
X79411477Y-143990000D01*
X79530073Y-144586221D01*
X79724362Y-144876995D01*
X79573547Y-144907351D01*
X79004078Y-145289735D01*
X78796802Y-145601479D01*
X78742601Y-145470627D01*
X78529372Y-145257398D01*
X78270147Y-145150024D01*
X78650585Y-144770250D01*
X78857764Y-144271308D01*
X78858235Y-143731062D01*
X78651928Y-143231760D01*
X78270250Y-142849415D01*
X77771308Y-142642236D01*
X77231062Y-142641765D01*
X76731760Y-142848072D01*
X76349415Y-143229750D01*
X76142236Y-143728692D01*
X76141765Y-144268938D01*
X75122850Y-144268938D01*
X75122850Y-143400000D01*
X75069995Y-143119102D01*
X74903985Y-142861114D01*
X74650682Y-142688040D01*
X74350000Y-142627150D01*
X73150000Y-142627150D01*
X72869102Y-142680005D01*
X72611114Y-142846015D01*
X72438040Y-143099318D01*
X72377150Y-143400000D01*
X33172850Y-143400000D01*
X33172850Y-142100000D01*
X33119995Y-141819102D01*
X32953985Y-141561114D01*
X32700682Y-141388040D01*
X32400000Y-141327150D01*
X31100000Y-141327150D01*
X30819102Y-141380005D01*
X30561114Y-141546015D01*
X30388040Y-141799318D01*
X30327150Y-142100000D01*
X28004884Y-142100000D01*
X27944340Y-141953474D01*
X27660351Y-141668989D01*
X27895338Y-141669194D01*
X29093454Y-141174143D01*
X30010921Y-140258275D01*
X30508063Y-139061025D01*
X30509194Y-137764662D01*
X30429655Y-137572163D01*
X30448280Y-137544904D01*
X30508000Y-137250000D01*
X30508000Y-130000000D01*
X30456161Y-129724499D01*
X30293340Y-129471469D01*
X30276088Y-129459681D01*
X30508063Y-128901025D01*
X30508067Y-128895338D01*
X30990806Y-128895338D01*
X31222473Y-129456014D01*
X31221469Y-129456660D01*
X31051720Y-129705096D01*
X30992000Y-130000000D01*
X30992000Y-137250000D01*
X31043839Y-137525501D01*
X31071217Y-137568048D01*
X30991937Y-137758975D01*
X30990806Y-139055338D01*
X31485857Y-140253454D01*
X32401725Y-141170921D01*
X33598975Y-141668063D01*
X34895338Y-141669194D01*
X36093454Y-141174143D01*
X37010921Y-140258275D01*
X37508063Y-139061025D01*
X37509158Y-137805806D01*
X37528531Y-137793340D01*
X37698280Y-137544904D01*
X37758000Y-137250000D01*
X37758000Y-136504000D01*
X62968400Y-136504000D01*
X62968400Y-137390400D01*
X63093368Y-138010655D01*
X63446184Y-138535873D01*
X63973136Y-138886094D01*
X64332376Y-138987405D01*
X64586000Y-138818494D01*
X64586000Y-136504000D01*
X62968400Y-136504000D01*
X37758000Y-136504000D01*
X37758000Y-135609600D01*
X62968400Y-135609600D01*
X62968400Y-136496000D01*
X64586000Y-136496000D01*
X64586000Y-134181506D01*
X64594000Y-134181506D01*
X64594000Y-136496000D01*
X64614000Y-136496000D01*
X64614000Y-136504000D01*
X64594000Y-136504000D01*
X64594000Y-138818494D01*
X64847624Y-138987405D01*
X65206864Y-138886094D01*
X65733816Y-138535873D01*
X66086632Y-138010655D01*
X66105783Y-137915602D01*
X66509441Y-138185318D01*
X67130000Y-138308755D01*
X67750559Y-138185318D01*
X68276644Y-137833799D01*
X68400000Y-137649184D01*
X68523356Y-137833799D01*
X69049441Y-138185318D01*
X69670000Y-138308755D01*
X70290559Y-138185318D01*
X70816644Y-137833799D01*
X70940000Y-137649184D01*
X71063356Y-137833799D01*
X71589441Y-138185318D01*
X72210000Y-138308755D01*
X72830559Y-138185318D01*
X73128400Y-137986307D01*
X73128400Y-138400776D01*
X73243799Y-138679373D01*
X73457028Y-138892602D01*
X73735625Y-139008000D01*
X74556500Y-139008000D01*
X74746000Y-138818500D01*
X74746000Y-136504000D01*
X74754000Y-136504000D01*
X74754000Y-138818500D01*
X74943500Y-139008000D01*
X75764375Y-139008000D01*
X76042972Y-138892602D01*
X76256201Y-138679373D01*
X76371600Y-138400776D01*
X76371600Y-136693500D01*
X76182100Y-136504000D01*
X74754000Y-136504000D01*
X74746000Y-136504000D01*
X74726000Y-136504000D01*
X74726000Y-136496000D01*
X74746000Y-136496000D01*
X74746000Y-134181500D01*
X74754000Y-134181500D01*
X74754000Y-136496000D01*
X76182100Y-136496000D01*
X76371600Y-136306500D01*
X76371600Y-134599224D01*
X76256201Y-134320627D01*
X76042972Y-134107398D01*
X75764375Y-133992000D01*
X74943500Y-133992000D01*
X74754000Y-134181500D01*
X74746000Y-134181500D01*
X74556500Y-133992000D01*
X73735625Y-133992000D01*
X73457028Y-134107398D01*
X73243799Y-134320627D01*
X73128400Y-134599224D01*
X73128400Y-135013693D01*
X72830559Y-134814682D01*
X72210000Y-134691245D01*
X71589441Y-134814682D01*
X71063356Y-135166201D01*
X70940000Y-135350816D01*
X70816644Y-135166201D01*
X70290559Y-134814682D01*
X69670000Y-134691245D01*
X69049441Y-134814682D01*
X68523356Y-135166201D01*
X68400000Y-135350816D01*
X68276644Y-135166201D01*
X67750559Y-134814682D01*
X67130000Y-134691245D01*
X66509441Y-134814682D01*
X66105783Y-135084398D01*
X66086632Y-134989345D01*
X65733816Y-134464127D01*
X65206864Y-134113906D01*
X64847624Y-134012595D01*
X64594000Y-134181506D01*
X64586000Y-134181506D01*
X64332376Y-134012595D01*
X63973136Y-134113906D01*
X63446184Y-134464127D01*
X63093368Y-134989345D01*
X62968400Y-135609600D01*
X37758000Y-135609600D01*
X37758000Y-130965245D01*
X44436000Y-130965245D01*
X44436000Y-131034755D01*
X44571038Y-131713635D01*
X44955593Y-132289162D01*
X45531120Y-132673717D01*
X46210000Y-132808755D01*
X46888880Y-132673717D01*
X47145950Y-132501948D01*
X47180015Y-132554886D01*
X47433318Y-132727960D01*
X47734000Y-132788850D01*
X49766000Y-132788850D01*
X50046898Y-132735995D01*
X50304886Y-132569985D01*
X50477960Y-132316682D01*
X50538850Y-132016000D01*
X50538850Y-129984000D01*
X50485995Y-129703102D01*
X50319985Y-129445114D01*
X50066682Y-129272040D01*
X49766000Y-129211150D01*
X47734000Y-129211150D01*
X47453102Y-129264005D01*
X47195114Y-129430015D01*
X47147788Y-129499280D01*
X46888880Y-129326283D01*
X46210000Y-129191245D01*
X45531120Y-129326283D01*
X44955593Y-129710838D01*
X44571038Y-130286365D01*
X44436000Y-130965245D01*
X37758000Y-130965245D01*
X37758000Y-130000000D01*
X37706161Y-129724499D01*
X37543340Y-129471469D01*
X37331342Y-129326617D01*
X37508063Y-128901025D01*
X37509194Y-127604662D01*
X37374568Y-127278840D01*
X43591756Y-127278840D01*
X43805660Y-127796526D01*
X44201391Y-128192948D01*
X44718703Y-128407755D01*
X45278840Y-128408244D01*
X45796526Y-128194340D01*
X46192948Y-127798609D01*
X46407755Y-127281297D01*
X46408244Y-126721160D01*
X46254884Y-126350000D01*
X48577150Y-126350000D01*
X48577150Y-127650000D01*
X48630005Y-127930898D01*
X48796015Y-128188886D01*
X49049318Y-128361960D01*
X49350000Y-128422850D01*
X50650000Y-128422850D01*
X50930898Y-128369995D01*
X51188886Y-128203985D01*
X51361960Y-127950682D01*
X51422850Y-127650000D01*
X51422850Y-126350000D01*
X51399501Y-126225908D01*
X108619749Y-126225908D01*
X108699973Y-126542042D01*
X109335574Y-126833340D01*
X110034268Y-126859230D01*
X110689684Y-126615771D01*
X110800027Y-126542042D01*
X110880251Y-126225908D01*
X109750000Y-125095657D01*
X108619749Y-126225908D01*
X51399501Y-126225908D01*
X51369995Y-126069102D01*
X51203985Y-125811114D01*
X50950682Y-125638040D01*
X50650000Y-125577150D01*
X49350000Y-125577150D01*
X49069102Y-125630005D01*
X48811114Y-125796015D01*
X48638040Y-126049318D01*
X48577150Y-126350000D01*
X46254884Y-126350000D01*
X46194340Y-126203474D01*
X45798609Y-125807052D01*
X45281297Y-125592245D01*
X44721160Y-125591756D01*
X44203474Y-125805660D01*
X43807052Y-126201391D01*
X43592245Y-126718703D01*
X43591756Y-127278840D01*
X37374568Y-127278840D01*
X37014143Y-126406546D01*
X36098275Y-125489079D01*
X34901025Y-124991937D01*
X33604662Y-124990806D01*
X32406546Y-125485857D01*
X31489079Y-126401725D01*
X30991937Y-127598975D01*
X30990806Y-128895338D01*
X30508067Y-128895338D01*
X30509194Y-127604662D01*
X30014143Y-126406546D01*
X29098275Y-125489079D01*
X27901025Y-124991937D01*
X26604662Y-124990806D01*
X25406546Y-125485857D01*
X24558000Y-126332924D01*
X24558000Y-107750000D01*
X26992000Y-107750000D01*
X26992000Y-109750000D01*
X27106790Y-110327087D01*
X27345060Y-110683683D01*
X27433683Y-110816317D01*
X31617366Y-115000000D01*
X28250000Y-115000000D01*
X28159136Y-115017097D01*
X28075682Y-115070798D01*
X28019696Y-115152736D01*
X28000000Y-115250000D01*
X28000000Y-120250000D01*
X28017097Y-120340864D01*
X28070798Y-120424318D01*
X28152736Y-120480304D01*
X28250000Y-120500000D01*
X28469113Y-120500000D01*
X28231760Y-120598072D01*
X27849415Y-120979750D01*
X27642236Y-121478692D01*
X27641765Y-122018938D01*
X27848072Y-122518240D01*
X28229750Y-122900585D01*
X28728692Y-123107764D01*
X29268938Y-123108235D01*
X29768240Y-122901928D01*
X30150585Y-122520250D01*
X30156503Y-122505997D01*
X30180005Y-122630898D01*
X30346015Y-122888886D01*
X30599318Y-123061960D01*
X30900000Y-123122850D01*
X32100000Y-123122850D01*
X32380898Y-123069995D01*
X32638886Y-122903985D01*
X32811960Y-122650682D01*
X32872850Y-122350000D01*
X32872850Y-121150000D01*
X32819995Y-120869102D01*
X32653985Y-120611114D01*
X32491364Y-120500000D01*
X32750000Y-120500000D01*
X32840864Y-120482903D01*
X32924318Y-120429202D01*
X32980304Y-120347264D01*
X33000000Y-120250000D01*
X33000000Y-119882634D01*
X35803683Y-122686317D01*
X36292913Y-123013210D01*
X36870000Y-123128000D01*
X37493360Y-123128000D01*
X38064465Y-123241600D01*
X39935535Y-123241600D01*
X40556094Y-123118163D01*
X40802134Y-122953764D01*
X41235857Y-124003454D01*
X42151725Y-124920921D01*
X43348975Y-125418063D01*
X44645338Y-125419194D01*
X44754067Y-125374268D01*
X107980770Y-125374268D01*
X108224229Y-126029684D01*
X108297958Y-126140027D01*
X108614092Y-126220251D01*
X109744343Y-125090000D01*
X109755657Y-125090000D01*
X110885908Y-126220251D01*
X111202042Y-126140027D01*
X111493340Y-125504426D01*
X111519230Y-124805732D01*
X111275771Y-124150316D01*
X111202042Y-124039973D01*
X110885908Y-123959749D01*
X109755657Y-125090000D01*
X109744343Y-125090000D01*
X108614092Y-123959749D01*
X108297958Y-124039973D01*
X108006660Y-124675574D01*
X107980770Y-125374268D01*
X44754067Y-125374268D01*
X45843454Y-124924143D01*
X46760921Y-124008275D01*
X47258063Y-122811025D01*
X47258286Y-122555338D01*
X47490806Y-122555338D01*
X47985857Y-123753454D01*
X48901725Y-124670921D01*
X50098975Y-125168063D01*
X51395338Y-125169194D01*
X52593454Y-124674143D01*
X53314762Y-123954092D01*
X108619749Y-123954092D01*
X109750000Y-125084343D01*
X110880251Y-123954092D01*
X110800027Y-123637958D01*
X110164426Y-123346660D01*
X109465732Y-123320770D01*
X108810316Y-123564229D01*
X108699973Y-123637958D01*
X108619749Y-123954092D01*
X53314762Y-123954092D01*
X53510921Y-123758275D01*
X54008063Y-122561025D01*
X54008398Y-122176997D01*
X63828660Y-122176997D01*
X64000191Y-122571114D01*
X64906938Y-122987412D01*
X65903974Y-123025024D01*
X66839508Y-122678224D01*
X66999809Y-122571114D01*
X67171340Y-122176997D01*
X65500000Y-120505657D01*
X63828660Y-122176997D01*
X54008398Y-122176997D01*
X54009194Y-121264662D01*
X53514143Y-120066546D01*
X53297975Y-119850000D01*
X59077150Y-119850000D01*
X59077150Y-121150000D01*
X59130005Y-121430898D01*
X59296015Y-121688886D01*
X59549318Y-121861960D01*
X59850000Y-121922850D01*
X61150000Y-121922850D01*
X61430898Y-121869995D01*
X61688886Y-121703985D01*
X61861960Y-121450682D01*
X61922850Y-121150000D01*
X61922850Y-120903974D01*
X62974976Y-120903974D01*
X63321776Y-121839508D01*
X63428886Y-121999809D01*
X63823003Y-122171340D01*
X65494343Y-120500000D01*
X65505657Y-120500000D01*
X67176997Y-122171340D01*
X67571114Y-121999809D01*
X67987412Y-121093062D01*
X68025024Y-120096026D01*
X67678224Y-119160492D01*
X67571114Y-119000191D01*
X67176997Y-118828660D01*
X65505657Y-120500000D01*
X65494343Y-120500000D01*
X63823003Y-118828660D01*
X63428886Y-119000191D01*
X63012588Y-119906938D01*
X62974976Y-120903974D01*
X61922850Y-120903974D01*
X61922850Y-119850000D01*
X61869995Y-119569102D01*
X61703985Y-119311114D01*
X61450682Y-119138040D01*
X61150000Y-119077150D01*
X59850000Y-119077150D01*
X59569102Y-119130005D01*
X59311114Y-119296015D01*
X59138040Y-119549318D01*
X59077150Y-119850000D01*
X53297975Y-119850000D01*
X52598275Y-119149079D01*
X51812998Y-118823003D01*
X63828660Y-118823003D01*
X65500000Y-120494343D01*
X67171340Y-118823003D01*
X66999809Y-118428886D01*
X66093062Y-118012588D01*
X65096026Y-117974976D01*
X64160492Y-118321776D01*
X64000191Y-118428886D01*
X63828660Y-118823003D01*
X51812998Y-118823003D01*
X51401025Y-118651937D01*
X50104662Y-118650806D01*
X48906546Y-119145857D01*
X47989079Y-120061725D01*
X47491937Y-121258975D01*
X47490806Y-122555338D01*
X47258286Y-122555338D01*
X47259194Y-121514662D01*
X46764143Y-120316546D01*
X45848275Y-119399079D01*
X44651025Y-118901937D01*
X43354662Y-118900806D01*
X42156546Y-119395857D01*
X41239079Y-120311725D01*
X41137552Y-120556228D01*
X41082179Y-120473356D01*
X40897564Y-120350000D01*
X41082179Y-120226644D01*
X41433698Y-119700559D01*
X41557135Y-119080000D01*
X41433698Y-118459441D01*
X41082179Y-117933356D01*
X40872731Y-117793407D01*
X41035873Y-117683816D01*
X41386094Y-117156864D01*
X41487405Y-116797624D01*
X41318494Y-116544000D01*
X39004000Y-116544000D01*
X39004000Y-116564000D01*
X38996000Y-116564000D01*
X38996000Y-116544000D01*
X38976000Y-116544000D01*
X38976000Y-116536000D01*
X38996000Y-116536000D01*
X38996000Y-116516000D01*
X39004000Y-116516000D01*
X39004000Y-116536000D01*
X41318494Y-116536000D01*
X41487405Y-116282376D01*
X41386094Y-115923136D01*
X41121627Y-115525212D01*
X41288886Y-115417585D01*
X41461960Y-115164282D01*
X41522850Y-114863600D01*
X41522850Y-114130948D01*
X42151725Y-114760921D01*
X43348975Y-115258063D01*
X44645338Y-115259194D01*
X45843454Y-114764143D01*
X46760921Y-113848275D01*
X47258063Y-112651025D01*
X47258286Y-112395338D01*
X47490806Y-112395338D01*
X47985857Y-113593454D01*
X48901725Y-114510921D01*
X50098975Y-115008063D01*
X51395338Y-115009194D01*
X52453054Y-114572155D01*
X66927681Y-114572155D01*
X67040817Y-114916398D01*
X67774148Y-115252749D01*
X68580374Y-115282864D01*
X69336755Y-115002157D01*
X69465103Y-114916398D01*
X69578239Y-114572155D01*
X68252960Y-113246877D01*
X66927681Y-114572155D01*
X52453054Y-114572155D01*
X52593454Y-114514143D01*
X53510921Y-113598275D01*
X54008063Y-112401025D01*
X54008187Y-112258053D01*
X59992206Y-112258053D01*
X60259204Y-112904237D01*
X60753162Y-113399059D01*
X61398880Y-113667184D01*
X62098053Y-113667794D01*
X62338038Y-113568634D01*
X66211316Y-113568634D01*
X66492023Y-114325015D01*
X66577782Y-114453363D01*
X66922025Y-114566499D01*
X68247303Y-113241220D01*
X68258617Y-113241220D01*
X69583895Y-114566499D01*
X69928138Y-114453363D01*
X70264489Y-113720032D01*
X70294604Y-112913806D01*
X70223735Y-112722845D01*
X96428400Y-112722845D01*
X96428400Y-113097155D01*
X96551837Y-113717714D01*
X96903356Y-114243799D01*
X97429441Y-114595318D01*
X98050000Y-114718755D01*
X98670559Y-114595318D01*
X99196644Y-114243799D01*
X99320000Y-114059184D01*
X99443356Y-114243799D01*
X99969441Y-114595318D01*
X100590000Y-114718755D01*
X101210559Y-114595318D01*
X101535419Y-114378253D01*
X101889735Y-114905922D01*
X102460938Y-115285711D01*
X102851038Y-115395725D01*
X103126000Y-115228495D01*
X103126000Y-112914000D01*
X103106000Y-112914000D01*
X103106000Y-112906000D01*
X103126000Y-112906000D01*
X103126000Y-110591505D01*
X103134000Y-110591505D01*
X103134000Y-112906000D01*
X103154000Y-112906000D01*
X103154000Y-112914000D01*
X103134000Y-112914000D01*
X103134000Y-115228495D01*
X103408962Y-115395725D01*
X103799062Y-115285711D01*
X103852771Y-115250000D01*
X108000000Y-115250000D01*
X108000000Y-120250000D01*
X108017097Y-120340864D01*
X108070798Y-120424318D01*
X108152736Y-120480304D01*
X108250000Y-120500000D01*
X112943998Y-120500000D01*
X112583424Y-120572568D01*
X112008764Y-120958421D01*
X111625507Y-121534815D01*
X111514472Y-121928535D01*
X111681505Y-122206000D01*
X113996000Y-122206000D01*
X113996000Y-120436000D01*
X113413754Y-120436000D01*
X113424318Y-120429202D01*
X113480304Y-120347264D01*
X113500000Y-120250000D01*
X113500000Y-115250000D01*
X113482903Y-115159136D01*
X113429202Y-115075682D01*
X113347264Y-115019696D01*
X113250000Y-115000000D01*
X108250000Y-115000000D01*
X108159136Y-115017097D01*
X108075682Y-115070798D01*
X108019696Y-115152736D01*
X108000000Y-115250000D01*
X103852771Y-115250000D01*
X104370265Y-114905922D01*
X104724581Y-114378253D01*
X105049441Y-114595318D01*
X105670000Y-114718755D01*
X106290559Y-114595318D01*
X106816644Y-114243799D01*
X106940000Y-114059184D01*
X107063356Y-114243799D01*
X107589441Y-114595318D01*
X108210000Y-114718755D01*
X108830559Y-114595318D01*
X109240211Y-114321597D01*
X109332415Y-114464886D01*
X109585718Y-114637960D01*
X109886400Y-114698850D01*
X111613600Y-114698850D01*
X111894498Y-114645995D01*
X112152486Y-114479985D01*
X112325560Y-114226682D01*
X112386450Y-113926000D01*
X112386450Y-111894000D01*
X112333595Y-111613102D01*
X112167585Y-111355114D01*
X111914282Y-111182040D01*
X111613600Y-111121150D01*
X109886400Y-111121150D01*
X109605502Y-111174005D01*
X109347514Y-111340015D01*
X109239580Y-111497982D01*
X108830559Y-111224682D01*
X108210000Y-111101245D01*
X107589441Y-111224682D01*
X107063356Y-111576201D01*
X106940000Y-111760816D01*
X106816644Y-111576201D01*
X106290559Y-111224682D01*
X105670000Y-111101245D01*
X105049441Y-111224682D01*
X104724581Y-111441747D01*
X104370265Y-110914078D01*
X103799062Y-110534289D01*
X103408962Y-110424275D01*
X103134000Y-110591505D01*
X103126000Y-110591505D01*
X102851038Y-110424275D01*
X102460938Y-110534289D01*
X101889735Y-110914078D01*
X101535419Y-111441747D01*
X101210559Y-111224682D01*
X100590000Y-111101245D01*
X99969441Y-111224682D01*
X99443356Y-111576201D01*
X99320000Y-111760816D01*
X99196644Y-111576201D01*
X98670559Y-111224682D01*
X98050000Y-111101245D01*
X97429441Y-111224682D01*
X96903356Y-111576201D01*
X96551837Y-112102286D01*
X96428400Y-112722845D01*
X70223735Y-112722845D01*
X70013897Y-112157425D01*
X69928138Y-112029077D01*
X69583895Y-111915941D01*
X68258617Y-113241220D01*
X68247303Y-113241220D01*
X66922025Y-111915941D01*
X66577782Y-112029077D01*
X66241431Y-112762408D01*
X66211316Y-113568634D01*
X62338038Y-113568634D01*
X62744237Y-113400796D01*
X63239059Y-112906838D01*
X63507184Y-112261120D01*
X63507490Y-111910285D01*
X66927681Y-111910285D01*
X68252960Y-113235563D01*
X69578239Y-111910285D01*
X69465103Y-111566042D01*
X68731772Y-111229691D01*
X67925546Y-111199576D01*
X67169165Y-111480283D01*
X67040817Y-111566042D01*
X66927681Y-111910285D01*
X63507490Y-111910285D01*
X63507794Y-111561947D01*
X63240796Y-110915763D01*
X62766585Y-110440722D01*
X72860964Y-110440722D01*
X72955063Y-110774390D01*
X73280782Y-111264672D01*
X73769330Y-111592986D01*
X74346330Y-111709350D01*
X74845440Y-111709350D01*
X74845440Y-110204780D01*
X74853440Y-110204780D01*
X74853440Y-111709350D01*
X75352550Y-111709350D01*
X75929550Y-111592986D01*
X76418098Y-111264672D01*
X76743817Y-110774390D01*
X76837916Y-110440722D01*
X76667614Y-110204780D01*
X74853440Y-110204780D01*
X74845440Y-110204780D01*
X73031266Y-110204780D01*
X72860964Y-110440722D01*
X62766585Y-110440722D01*
X62746838Y-110420941D01*
X62101120Y-110152816D01*
X61401947Y-110152206D01*
X60755763Y-110419204D01*
X60260941Y-110913162D01*
X59992816Y-111558880D01*
X59992206Y-112258053D01*
X54008187Y-112258053D01*
X54009194Y-111104662D01*
X53514143Y-109906546D01*
X52598275Y-108989079D01*
X51401025Y-108491937D01*
X50104662Y-108490806D01*
X48906546Y-108985857D01*
X47989079Y-109901725D01*
X47491937Y-111098975D01*
X47490806Y-112395338D01*
X47258286Y-112395338D01*
X47259194Y-111354662D01*
X46764143Y-110156546D01*
X45848275Y-109239079D01*
X44651025Y-108741937D01*
X43354662Y-108740806D01*
X42156546Y-109235857D01*
X41239079Y-110151725D01*
X40741937Y-111348975D01*
X40741052Y-112363550D01*
X40186500Y-112363550D01*
X40066317Y-112183683D01*
X38295634Y-110413000D01*
X39294135Y-110413000D01*
X39966892Y-110279180D01*
X40140768Y-110163000D01*
X40345000Y-110163000D01*
X40922087Y-110048210D01*
X41411317Y-109721317D01*
X42831774Y-108300860D01*
X72802427Y-108300860D01*
X72917260Y-108878165D01*
X73185732Y-109279961D01*
X72955063Y-109627170D01*
X72860964Y-109960838D01*
X73031266Y-110196780D01*
X74845440Y-110196780D01*
X74845440Y-110176780D01*
X74853440Y-110176780D01*
X74853440Y-110196780D01*
X76667614Y-110196780D01*
X76837916Y-109960838D01*
X76743817Y-109627170D01*
X76513148Y-109279961D01*
X76781620Y-108878165D01*
X76896453Y-108300860D01*
X76781620Y-107723555D01*
X76546148Y-107371147D01*
X76743817Y-107073610D01*
X76837916Y-106739942D01*
X76667614Y-106504000D01*
X74853440Y-106504000D01*
X74853440Y-106524000D01*
X74845440Y-106524000D01*
X74845440Y-106504000D01*
X73031266Y-106504000D01*
X72860964Y-106739942D01*
X72955063Y-107073610D01*
X73152732Y-107371147D01*
X72917260Y-107723555D01*
X72802427Y-108300860D01*
X42831774Y-108300860D01*
X44642008Y-106490626D01*
X44641765Y-106768938D01*
X44848072Y-107268240D01*
X45229750Y-107650585D01*
X45728692Y-107857764D01*
X46268938Y-107858235D01*
X46768240Y-107651928D01*
X47150585Y-107270250D01*
X47156503Y-107255997D01*
X47180005Y-107380898D01*
X47346015Y-107638886D01*
X47599318Y-107811960D01*
X47900000Y-107872850D01*
X49100000Y-107872850D01*
X49380898Y-107819995D01*
X49638886Y-107653985D01*
X49811960Y-107400682D01*
X49872850Y-107100000D01*
X49872850Y-105900000D01*
X49819995Y-105619102D01*
X49653985Y-105361114D01*
X49400682Y-105188040D01*
X49100000Y-105127150D01*
X47900000Y-105127150D01*
X47619102Y-105180005D01*
X47361114Y-105346015D01*
X47188040Y-105599318D01*
X47158164Y-105746851D01*
X47151928Y-105731760D01*
X46770250Y-105349415D01*
X46271308Y-105142236D01*
X45990643Y-105141991D01*
X49034581Y-102098053D01*
X59992206Y-102098053D01*
X60259204Y-102744237D01*
X60753162Y-103239059D01*
X61398880Y-103507184D01*
X62098053Y-103507794D01*
X62744237Y-103240796D01*
X63186585Y-102799220D01*
X72802427Y-102799220D01*
X72917260Y-103376525D01*
X73166260Y-103749180D01*
X72917260Y-104121835D01*
X72802427Y-104699140D01*
X72917260Y-105276445D01*
X73152732Y-105628853D01*
X72955063Y-105926390D01*
X72860964Y-106260058D01*
X73031266Y-106496000D01*
X74845440Y-106496000D01*
X74845440Y-106476000D01*
X74853440Y-106476000D01*
X74853440Y-106496000D01*
X76667614Y-106496000D01*
X76837916Y-106260058D01*
X76743817Y-105926390D01*
X76546148Y-105628853D01*
X76781620Y-105276445D01*
X76896453Y-104699140D01*
X76781620Y-104121835D01*
X76532620Y-103749180D01*
X76781620Y-103376525D01*
X76896453Y-102799220D01*
X76849436Y-102562845D01*
X96428400Y-102562845D01*
X96428400Y-102937155D01*
X96551837Y-103557714D01*
X96903356Y-104083799D01*
X97429441Y-104435318D01*
X98050000Y-104558755D01*
X98670559Y-104435318D01*
X99196644Y-104083799D01*
X99320000Y-103899184D01*
X99443356Y-104083799D01*
X99969441Y-104435318D01*
X100590000Y-104558755D01*
X101210559Y-104435318D01*
X101535419Y-104218253D01*
X101889735Y-104745922D01*
X102460938Y-105125711D01*
X102851038Y-105235725D01*
X103126000Y-105068495D01*
X103126000Y-102754000D01*
X103106000Y-102754000D01*
X103106000Y-102746000D01*
X103126000Y-102746000D01*
X103126000Y-100431505D01*
X103134000Y-100431505D01*
X103134000Y-102746000D01*
X103154000Y-102746000D01*
X103154000Y-102754000D01*
X103134000Y-102754000D01*
X103134000Y-105068495D01*
X103408962Y-105235725D01*
X103799062Y-105125711D01*
X104370265Y-104745922D01*
X104724581Y-104218253D01*
X105049441Y-104435318D01*
X105670000Y-104558755D01*
X106290559Y-104435318D01*
X106816644Y-104083799D01*
X106940000Y-103899184D01*
X107063356Y-104083799D01*
X107589441Y-104435318D01*
X108210000Y-104558755D01*
X108830559Y-104435318D01*
X109240211Y-104161597D01*
X109332415Y-104304886D01*
X109585718Y-104477960D01*
X109886400Y-104538850D01*
X111613600Y-104538850D01*
X111894498Y-104485995D01*
X112152486Y-104319985D01*
X112325560Y-104066682D01*
X112386450Y-103766000D01*
X112386450Y-101734000D01*
X112333595Y-101453102D01*
X112167585Y-101195114D01*
X111914282Y-101022040D01*
X111613600Y-100961150D01*
X109886400Y-100961150D01*
X109605502Y-101014005D01*
X109347514Y-101180015D01*
X109239580Y-101337982D01*
X108830559Y-101064682D01*
X108210000Y-100941245D01*
X107589441Y-101064682D01*
X107063356Y-101416201D01*
X106940000Y-101600816D01*
X106816644Y-101416201D01*
X106290559Y-101064682D01*
X105670000Y-100941245D01*
X105049441Y-101064682D01*
X104724581Y-101281747D01*
X104370265Y-100754078D01*
X103799062Y-100374289D01*
X103408962Y-100264275D01*
X103134000Y-100431505D01*
X103126000Y-100431505D01*
X102851038Y-100264275D01*
X102460938Y-100374289D01*
X101889735Y-100754078D01*
X101535419Y-101281747D01*
X101210559Y-101064682D01*
X100590000Y-100941245D01*
X99969441Y-101064682D01*
X99443356Y-101416201D01*
X99320000Y-101600816D01*
X99196644Y-101416201D01*
X98670559Y-101064682D01*
X98050000Y-100941245D01*
X97429441Y-101064682D01*
X96903356Y-101416201D01*
X96551837Y-101942286D01*
X96428400Y-102562845D01*
X76849436Y-102562845D01*
X76781620Y-102221915D01*
X76454603Y-101732500D01*
X75965188Y-101405483D01*
X75387883Y-101290650D01*
X74310997Y-101290650D01*
X73733692Y-101405483D01*
X73244277Y-101732500D01*
X72917260Y-102221915D01*
X72802427Y-102799220D01*
X63186585Y-102799220D01*
X63239059Y-102746838D01*
X63507184Y-102101120D01*
X63507794Y-101401947D01*
X63240796Y-100755763D01*
X62746838Y-100260941D01*
X62101120Y-99992816D01*
X61401947Y-99992206D01*
X60755763Y-100259204D01*
X60260941Y-100753162D01*
X59992816Y-101398880D01*
X59992206Y-102098053D01*
X49034581Y-102098053D01*
X52066317Y-99066317D01*
X52393211Y-98577086D01*
X52508000Y-98000000D01*
X52508000Y-96731220D01*
X66210110Y-96731220D01*
X66210110Y-99271220D01*
X66262965Y-99552118D01*
X66428975Y-99810106D01*
X66682278Y-99983180D01*
X66982960Y-100044070D01*
X69522960Y-100044070D01*
X69803858Y-99991215D01*
X70061846Y-99825205D01*
X70234920Y-99571902D01*
X70295810Y-99271220D01*
X70295810Y-98847890D01*
X71407767Y-98847890D01*
X71439389Y-99122516D01*
X71930661Y-99347277D01*
X72470550Y-99366927D01*
X72976862Y-99178475D01*
X73060611Y-99122516D01*
X73092233Y-98847890D01*
X72250000Y-98005657D01*
X71407767Y-98847890D01*
X70295810Y-98847890D01*
X70295810Y-98220550D01*
X70883073Y-98220550D01*
X71071525Y-98726862D01*
X71127484Y-98810611D01*
X71402110Y-98842233D01*
X72244343Y-98000000D01*
X72255657Y-98000000D01*
X73097890Y-98842233D01*
X73372516Y-98810611D01*
X73403880Y-98742057D01*
X73430005Y-98880898D01*
X73596015Y-99138886D01*
X73849318Y-99311960D01*
X74150000Y-99372850D01*
X75350000Y-99372850D01*
X75630898Y-99319995D01*
X75888886Y-99153985D01*
X76061960Y-98900682D01*
X76122850Y-98600000D01*
X76122850Y-97400000D01*
X76069995Y-97119102D01*
X75903985Y-96861114D01*
X75650682Y-96688040D01*
X75350000Y-96627150D01*
X74150000Y-96627150D01*
X73869102Y-96680005D01*
X73611114Y-96846015D01*
X73438040Y-97099318D01*
X73408803Y-97243696D01*
X73372516Y-97189389D01*
X73097890Y-97157767D01*
X72255657Y-98000000D01*
X72244343Y-98000000D01*
X71402110Y-97157767D01*
X71127484Y-97189389D01*
X70902723Y-97680661D01*
X70883073Y-98220550D01*
X70295810Y-98220550D01*
X70295810Y-97152110D01*
X71407767Y-97152110D01*
X72250000Y-97994343D01*
X73092233Y-97152110D01*
X73060611Y-96877484D01*
X72569339Y-96652723D01*
X72029450Y-96633073D01*
X71523138Y-96821525D01*
X71439389Y-96877484D01*
X71407767Y-97152110D01*
X70295810Y-97152110D01*
X70295810Y-96731220D01*
X70264128Y-96562845D01*
X96548400Y-96562845D01*
X96548400Y-96937155D01*
X96671837Y-97557714D01*
X97023356Y-98083799D01*
X97549441Y-98435318D01*
X98170000Y-98558755D01*
X98790559Y-98435318D01*
X99194217Y-98165602D01*
X99213368Y-98260655D01*
X99566184Y-98785873D01*
X100093136Y-99136094D01*
X100452376Y-99237405D01*
X100706000Y-99068494D01*
X100706000Y-96754000D01*
X100686000Y-96754000D01*
X100686000Y-96746000D01*
X100706000Y-96746000D01*
X100706000Y-94431506D01*
X100714000Y-94431506D01*
X100714000Y-96746000D01*
X100734000Y-96746000D01*
X100734000Y-96754000D01*
X100714000Y-96754000D01*
X100714000Y-99068494D01*
X100967624Y-99237405D01*
X101326864Y-99136094D01*
X101853816Y-98785873D01*
X102068541Y-98466224D01*
X102085718Y-98477960D01*
X102386400Y-98538850D01*
X104113600Y-98538850D01*
X104394498Y-98485995D01*
X104652486Y-98319985D01*
X104825560Y-98066682D01*
X104886450Y-97766000D01*
X104886450Y-95734000D01*
X104833595Y-95453102D01*
X104667585Y-95195114D01*
X104414282Y-95022040D01*
X104113600Y-94961150D01*
X102386400Y-94961150D01*
X102105502Y-95014005D01*
X102070423Y-95036578D01*
X101853816Y-94714127D01*
X101326864Y-94363906D01*
X100967624Y-94262595D01*
X100714000Y-94431506D01*
X100706000Y-94431506D01*
X100452376Y-94262595D01*
X100093136Y-94363906D01*
X99566184Y-94714127D01*
X99213368Y-95239345D01*
X99194217Y-95334398D01*
X98790559Y-95064682D01*
X98170000Y-94941245D01*
X97549441Y-95064682D01*
X97023356Y-95416201D01*
X96671837Y-95942286D01*
X96548400Y-96562845D01*
X70264128Y-96562845D01*
X70242955Y-96450322D01*
X70076945Y-96192334D01*
X69823642Y-96019260D01*
X69522960Y-95958370D01*
X66982960Y-95958370D01*
X66702062Y-96011225D01*
X66444074Y-96177235D01*
X66271000Y-96430538D01*
X66210110Y-96731220D01*
X52508000Y-96731220D01*
X52508000Y-96500000D01*
X56000000Y-96500000D01*
X56090864Y-96482903D01*
X56174318Y-96429202D01*
X56230304Y-96347264D01*
X56250000Y-96250000D01*
X56250000Y-91250000D01*
X109000000Y-91250000D01*
X109000000Y-96250000D01*
X109017097Y-96340864D01*
X109070798Y-96424318D01*
X109152736Y-96480304D01*
X109250000Y-96500000D01*
X114250000Y-96500000D01*
X114340864Y-96482903D01*
X114424318Y-96429202D01*
X114480304Y-96347264D01*
X114500000Y-96250000D01*
X114500000Y-91250000D01*
X114482903Y-91159136D01*
X114429202Y-91075682D01*
X114347264Y-91019696D01*
X114250000Y-91000000D01*
X109250000Y-91000000D01*
X109159136Y-91017097D01*
X109075682Y-91070798D01*
X109019696Y-91152736D01*
X109000000Y-91250000D01*
X56250000Y-91250000D01*
X56232903Y-91159136D01*
X56179202Y-91075682D01*
X56097264Y-91019696D01*
X56000000Y-91000000D01*
X54160809Y-91000000D01*
X54288886Y-90917585D01*
X54461960Y-90664282D01*
X54522850Y-90363600D01*
X54522850Y-88636400D01*
X54469995Y-88355502D01*
X54303985Y-88097514D01*
X54122483Y-87973500D01*
X54386094Y-87576864D01*
X54487405Y-87217624D01*
X54318494Y-86964000D01*
X52004000Y-86964000D01*
X52004000Y-86984000D01*
X51996000Y-86984000D01*
X51996000Y-86964000D01*
X51976000Y-86964000D01*
X51976000Y-86956000D01*
X51996000Y-86956000D01*
X51996000Y-86936000D01*
X52004000Y-86936000D01*
X52004000Y-86956000D01*
X54318494Y-86956000D01*
X54487405Y-86702376D01*
X54386094Y-86343136D01*
X54035873Y-85816184D01*
X53872731Y-85706593D01*
X54082179Y-85566644D01*
X54433698Y-85040559D01*
X54557135Y-84420000D01*
X54433698Y-83799441D01*
X54082179Y-83273356D01*
X53897564Y-83150000D01*
X54082179Y-83026644D01*
X54433698Y-82500559D01*
X54557135Y-81880000D01*
X54433698Y-81259441D01*
X54082179Y-80733356D01*
X53556094Y-80381837D01*
X52935535Y-80258400D01*
X51064465Y-80258400D01*
X50493360Y-80372000D01*
X49120000Y-80372000D01*
X48542913Y-80486790D01*
X48219666Y-80702777D01*
X48053683Y-80813683D01*
X46433683Y-82433683D01*
X46106790Y-82922913D01*
X45992000Y-83500000D01*
X45992000Y-87096094D01*
X45569339Y-86902723D01*
X45029450Y-86883073D01*
X44523138Y-87071525D01*
X44439389Y-87127484D01*
X44407767Y-87402110D01*
X45250000Y-88244343D01*
X45264142Y-88230201D01*
X45269799Y-88235858D01*
X45255657Y-88250000D01*
X45269799Y-88264142D01*
X45264142Y-88269799D01*
X45250000Y-88255657D01*
X44407767Y-89097890D01*
X44439389Y-89372516D01*
X44507943Y-89403880D01*
X44369102Y-89430005D01*
X44111114Y-89596015D01*
X43938040Y-89849318D01*
X43877150Y-90150000D01*
X43877150Y-91350000D01*
X43930005Y-91630898D01*
X44096015Y-91888886D01*
X44122526Y-91907000D01*
X42755965Y-91907000D01*
X42768240Y-91901928D01*
X43150585Y-91520250D01*
X43357764Y-91021308D01*
X43358235Y-90481062D01*
X43151928Y-89981760D01*
X42770616Y-89599782D01*
X43029372Y-89492602D01*
X43242601Y-89279373D01*
X43358000Y-89000776D01*
X43358000Y-88470550D01*
X43883073Y-88470550D01*
X44071525Y-88976862D01*
X44127484Y-89060611D01*
X44402110Y-89092233D01*
X45244343Y-88250000D01*
X44402110Y-87407767D01*
X44127484Y-87439389D01*
X43902723Y-87930661D01*
X43883073Y-88470550D01*
X43358000Y-88470550D01*
X43358000Y-88443500D01*
X43168500Y-88254000D01*
X42004000Y-88254000D01*
X42004000Y-88274000D01*
X41996000Y-88274000D01*
X41996000Y-88254000D01*
X40831500Y-88254000D01*
X40642000Y-88443500D01*
X40642000Y-89000776D01*
X40757399Y-89279373D01*
X40970628Y-89492602D01*
X41229853Y-89599976D01*
X40849415Y-89979750D01*
X40642236Y-90478692D01*
X40641765Y-91018938D01*
X40848072Y-91518240D01*
X41229750Y-91900585D01*
X41245199Y-91907000D01*
X40140768Y-91907000D01*
X39966892Y-91790820D01*
X39776661Y-91752981D01*
X39964927Y-91471221D01*
X40083523Y-90875000D01*
X39964927Y-90278779D01*
X39627195Y-89773328D01*
X39121744Y-89435596D01*
X38525523Y-89317000D01*
X38464477Y-89317000D01*
X37868256Y-89435596D01*
X37362805Y-89773328D01*
X37025073Y-90278779D01*
X36906477Y-90875000D01*
X37025073Y-91471221D01*
X37213339Y-91752981D01*
X37023108Y-91790820D01*
X36973045Y-91824271D01*
X36893210Y-91422913D01*
X36566317Y-90933683D01*
X35441317Y-89808683D01*
X35176751Y-89631906D01*
X34952087Y-89481790D01*
X34375000Y-89367000D01*
X32520768Y-89367000D01*
X32346892Y-89250820D01*
X31674135Y-89117000D01*
X30075865Y-89117000D01*
X29403108Y-89250820D01*
X28832771Y-89631906D01*
X28451685Y-90202243D01*
X28317865Y-90875000D01*
X28451685Y-91547757D01*
X28832771Y-92118094D01*
X28873039Y-92145000D01*
X28832771Y-92171906D01*
X28451685Y-92742243D01*
X28317865Y-93415000D01*
X28451685Y-94087757D01*
X28832771Y-94658094D01*
X29403108Y-95039180D01*
X29593339Y-95077019D01*
X29405073Y-95358779D01*
X29286477Y-95955000D01*
X29405073Y-96551221D01*
X29599362Y-96841995D01*
X29448547Y-96872351D01*
X28879078Y-97254735D01*
X28499289Y-97825938D01*
X28389275Y-98216038D01*
X28556505Y-98491000D01*
X30871000Y-98491000D01*
X30871000Y-98471000D01*
X30879000Y-98471000D01*
X30879000Y-98491000D01*
X30899000Y-98491000D01*
X30899000Y-98499000D01*
X30879000Y-98499000D01*
X30879000Y-101031000D01*
X30899000Y-101031000D01*
X30899000Y-101039000D01*
X30879000Y-101039000D01*
X30879000Y-101059000D01*
X30871000Y-101059000D01*
X30871000Y-101039000D01*
X28556505Y-101039000D01*
X28389275Y-101313962D01*
X28499289Y-101704062D01*
X28879078Y-102275265D01*
X29448547Y-102657649D01*
X29599362Y-102688005D01*
X29405073Y-102978779D01*
X29286477Y-103575000D01*
X29405073Y-104171221D01*
X29593339Y-104452981D01*
X29403108Y-104490820D01*
X29229232Y-104607000D01*
X28885000Y-104607000D01*
X28764940Y-104630881D01*
X28642607Y-104626609D01*
X28479112Y-104687736D01*
X28307913Y-104721790D01*
X28206133Y-104789797D01*
X28091476Y-104832665D01*
X27963817Y-104951708D01*
X27818683Y-105048683D01*
X27750676Y-105150462D01*
X27661151Y-105233945D01*
X27588765Y-105392779D01*
X27491790Y-105537913D01*
X27467909Y-105657971D01*
X27417146Y-105769359D01*
X27032146Y-107404358D01*
X27026054Y-107578801D01*
X26992000Y-107750000D01*
X24558000Y-107750000D01*
X24558000Y-98773962D01*
X28389275Y-98773962D01*
X28499289Y-99164062D01*
X28879078Y-99735265D01*
X28923361Y-99765000D01*
X28879078Y-99794735D01*
X28499289Y-100365938D01*
X28389275Y-100756038D01*
X28556505Y-101031000D01*
X30871000Y-101031000D01*
X30871000Y-98499000D01*
X28556505Y-98499000D01*
X28389275Y-98773962D01*
X24558000Y-98773962D01*
X24558000Y-88008000D01*
X29250000Y-88008000D01*
X29525501Y-87956161D01*
X29778531Y-87793340D01*
X29948280Y-87544904D01*
X29957530Y-87499224D01*
X40642000Y-87499224D01*
X40642000Y-88056500D01*
X40831500Y-88246000D01*
X41996000Y-88246000D01*
X41996000Y-87081500D01*
X42004000Y-87081500D01*
X42004000Y-88246000D01*
X43168500Y-88246000D01*
X43358000Y-88056500D01*
X43358000Y-87499224D01*
X43242601Y-87220627D01*
X43029372Y-87007398D01*
X42750775Y-86892000D01*
X42193500Y-86892000D01*
X42004000Y-87081500D01*
X41996000Y-87081500D01*
X41806500Y-86892000D01*
X41249225Y-86892000D01*
X40970628Y-87007398D01*
X40757399Y-87220627D01*
X40642000Y-87499224D01*
X29957530Y-87499224D01*
X30008000Y-87250000D01*
X30008000Y-86169285D01*
X30252325Y-86238188D01*
X30496000Y-86068494D01*
X30496000Y-83754000D01*
X30476000Y-83754000D01*
X30476000Y-83746000D01*
X30496000Y-83746000D01*
X30496000Y-81431506D01*
X30504000Y-81431506D01*
X30504000Y-83746000D01*
X30524000Y-83746000D01*
X30524000Y-83754000D01*
X30504000Y-83754000D01*
X30504000Y-86068494D01*
X30747675Y-86238188D01*
X31092525Y-86140935D01*
X31598844Y-85804501D01*
X31937874Y-85299916D01*
X31983786Y-85072155D01*
X32177681Y-85072155D01*
X32290817Y-85416398D01*
X33024148Y-85752749D01*
X33830374Y-85782864D01*
X34586755Y-85502157D01*
X34715103Y-85416398D01*
X34828239Y-85072155D01*
X33502960Y-83746877D01*
X32177681Y-85072155D01*
X31983786Y-85072155D01*
X31996552Y-85008829D01*
X32172025Y-85066499D01*
X33497303Y-83741220D01*
X33508617Y-83741220D01*
X34833895Y-85066499D01*
X35178138Y-84953363D01*
X35514489Y-84220032D01*
X35544604Y-83413806D01*
X35409454Y-83049634D01*
X37156738Y-83049634D01*
X37386593Y-83605926D01*
X37811836Y-84031911D01*
X38367725Y-84262736D01*
X38969634Y-84263262D01*
X39525926Y-84033407D01*
X39940349Y-83619706D01*
X40351836Y-84031911D01*
X40907725Y-84262736D01*
X41509634Y-84263262D01*
X42065926Y-84033407D01*
X42290205Y-83809519D01*
X42441015Y-84043886D01*
X42694318Y-84216960D01*
X42995000Y-84277850D01*
X44505000Y-84277850D01*
X44785898Y-84224995D01*
X45043886Y-84058985D01*
X45216960Y-83805682D01*
X45277850Y-83505000D01*
X45277850Y-81995000D01*
X45224995Y-81714102D01*
X45058985Y-81456114D01*
X44805682Y-81283040D01*
X44505000Y-81222150D01*
X42995000Y-81222150D01*
X42714102Y-81275005D01*
X42456114Y-81441015D01*
X42287493Y-81687801D01*
X42068164Y-81468089D01*
X41512275Y-81237264D01*
X40910366Y-81236738D01*
X40354074Y-81466593D01*
X39939651Y-81880294D01*
X39528164Y-81468089D01*
X38972275Y-81237264D01*
X38370366Y-81236738D01*
X37814074Y-81466593D01*
X37388089Y-81891836D01*
X37157264Y-82447725D01*
X37156738Y-83049634D01*
X35409454Y-83049634D01*
X35263897Y-82657425D01*
X35178138Y-82529077D01*
X34833895Y-82415941D01*
X33508617Y-83741220D01*
X33497303Y-83741220D01*
X32172025Y-82415941D01*
X31993232Y-82474702D01*
X31980247Y-82410285D01*
X32177681Y-82410285D01*
X33502960Y-83735563D01*
X34828239Y-82410285D01*
X34715103Y-82066042D01*
X33981772Y-81729691D01*
X33175546Y-81699576D01*
X32419165Y-81980283D01*
X32290817Y-82066042D01*
X32177681Y-82410285D01*
X31980247Y-82410285D01*
X31937874Y-82200084D01*
X31598844Y-81695499D01*
X31092525Y-81359065D01*
X30747675Y-81261812D01*
X30504000Y-81431506D01*
X30496000Y-81431506D01*
X30252325Y-81261812D01*
X30008000Y-81330715D01*
X30008000Y-78258053D01*
X44492206Y-78258053D01*
X44759204Y-78904237D01*
X45253162Y-79399059D01*
X45898880Y-79667184D01*
X46598053Y-79667794D01*
X47244237Y-79400796D01*
X47739059Y-78906838D01*
X48007184Y-78261120D01*
X48007794Y-77561947D01*
X47740796Y-76915763D01*
X47246838Y-76420941D01*
X46601120Y-76152816D01*
X45901947Y-76152206D01*
X45255763Y-76419204D01*
X44760941Y-76913162D01*
X44492816Y-77558880D01*
X44492206Y-78258053D01*
X30008000Y-78258053D01*
X30008000Y-77250000D01*
X29956161Y-76974499D01*
X29934427Y-76940722D01*
X37610964Y-76940722D01*
X37705063Y-77274390D01*
X38030782Y-77764672D01*
X38519330Y-78092986D01*
X39096330Y-78209350D01*
X39595440Y-78209350D01*
X39595440Y-76704780D01*
X39603440Y-76704780D01*
X39603440Y-78209350D01*
X40102550Y-78209350D01*
X40679550Y-78092986D01*
X41168098Y-77764672D01*
X41493817Y-77274390D01*
X41587916Y-76940722D01*
X41417614Y-76704780D01*
X39603440Y-76704780D01*
X39595440Y-76704780D01*
X37781266Y-76704780D01*
X37610964Y-76940722D01*
X29934427Y-76940722D01*
X29793340Y-76721469D01*
X29544904Y-76551720D01*
X29250000Y-76492000D01*
X24558000Y-76492000D01*
X24558000Y-74800860D01*
X37552427Y-74800860D01*
X37667260Y-75378165D01*
X37935732Y-75779961D01*
X37705063Y-76127170D01*
X37610964Y-76460838D01*
X37781266Y-76696780D01*
X39595440Y-76696780D01*
X39595440Y-76676780D01*
X39603440Y-76676780D01*
X39603440Y-76696780D01*
X41417614Y-76696780D01*
X41587916Y-76460838D01*
X41493817Y-76127170D01*
X41263148Y-75779961D01*
X41531620Y-75378165D01*
X41646453Y-74800860D01*
X41531620Y-74223555D01*
X41296148Y-73871147D01*
X41493817Y-73573610D01*
X41587916Y-73239942D01*
X41417614Y-73004000D01*
X39603440Y-73004000D01*
X39603440Y-73024000D01*
X39595440Y-73024000D01*
X39595440Y-73004000D01*
X37781266Y-73004000D01*
X37610964Y-73239942D01*
X37705063Y-73573610D01*
X37902732Y-73871147D01*
X37667260Y-74223555D01*
X37552427Y-74800860D01*
X24558000Y-74800860D01*
X24558000Y-72348053D01*
X24992206Y-72348053D01*
X25259204Y-72994237D01*
X25753162Y-73489059D01*
X26398880Y-73757184D01*
X27098053Y-73757794D01*
X27744237Y-73490796D01*
X28239059Y-72996838D01*
X28507184Y-72351120D01*
X28507794Y-71651947D01*
X28240796Y-71005763D01*
X27746838Y-70510941D01*
X27101120Y-70242816D01*
X26401947Y-70242206D01*
X25755763Y-70509204D01*
X25260941Y-71003162D01*
X24992816Y-71648880D01*
X24992206Y-72348053D01*
X24558000Y-72348053D01*
X24558000Y-67231220D01*
X31460110Y-67231220D01*
X31460110Y-69771220D01*
X31512965Y-70052118D01*
X31678975Y-70310106D01*
X31932278Y-70483180D01*
X32232960Y-70544070D01*
X34772960Y-70544070D01*
X35053858Y-70491215D01*
X35311846Y-70325205D01*
X35484920Y-70071902D01*
X35545810Y-69771220D01*
X35545810Y-69299220D01*
X37552427Y-69299220D01*
X37667260Y-69876525D01*
X37916260Y-70249180D01*
X37667260Y-70621835D01*
X37552427Y-71199140D01*
X37667260Y-71776445D01*
X37902732Y-72128853D01*
X37705063Y-72426390D01*
X37610964Y-72760058D01*
X37781266Y-72996000D01*
X39595440Y-72996000D01*
X39595440Y-72976000D01*
X39603440Y-72976000D01*
X39603440Y-72996000D01*
X41417614Y-72996000D01*
X41587916Y-72760058D01*
X41493817Y-72426390D01*
X41296148Y-72128853D01*
X41531620Y-71776445D01*
X41646453Y-71199140D01*
X41531620Y-70621835D01*
X41282620Y-70249180D01*
X41531620Y-69876525D01*
X41646453Y-69299220D01*
X41564241Y-68885908D01*
X45119749Y-68885908D01*
X45199973Y-69202042D01*
X45835574Y-69493340D01*
X46534268Y-69519230D01*
X47189684Y-69275771D01*
X47300027Y-69202042D01*
X47380251Y-68885908D01*
X46250000Y-67755657D01*
X45119749Y-68885908D01*
X41564241Y-68885908D01*
X41531620Y-68721915D01*
X41204603Y-68232500D01*
X40907929Y-68034268D01*
X44480770Y-68034268D01*
X44724229Y-68689684D01*
X44797958Y-68800027D01*
X45114092Y-68880251D01*
X46244343Y-67750000D01*
X46255657Y-67750000D01*
X47385908Y-68880251D01*
X47702042Y-68800027D01*
X47993340Y-68164426D01*
X48019230Y-67465732D01*
X47775771Y-66810316D01*
X47702042Y-66699973D01*
X47385908Y-66619749D01*
X46255657Y-67750000D01*
X46244343Y-67750000D01*
X45114092Y-66619749D01*
X44797958Y-66699973D01*
X44506660Y-67335574D01*
X44480770Y-68034268D01*
X40907929Y-68034268D01*
X40715188Y-67905483D01*
X40137883Y-67790650D01*
X39060997Y-67790650D01*
X38483692Y-67905483D01*
X37994277Y-68232500D01*
X37667260Y-68721915D01*
X37552427Y-69299220D01*
X35545810Y-69299220D01*
X35545810Y-67571614D01*
X35906938Y-67737412D01*
X36903974Y-67775024D01*
X37839508Y-67428224D01*
X37999809Y-67321114D01*
X38171340Y-66926997D01*
X36500000Y-65255657D01*
X36485858Y-65269799D01*
X36480201Y-65264142D01*
X36494343Y-65250000D01*
X36505657Y-65250000D01*
X38176997Y-66921340D01*
X38571114Y-66749809D01*
X38987412Y-65843062D01*
X39025024Y-64846026D01*
X38933823Y-64600000D01*
X40077150Y-64600000D01*
X40077150Y-65900000D01*
X40130005Y-66180898D01*
X40296015Y-66438886D01*
X40549318Y-66611960D01*
X40850000Y-66672850D01*
X42150000Y-66672850D01*
X42430898Y-66619995D01*
X42440071Y-66614092D01*
X45119749Y-66614092D01*
X46250000Y-67744343D01*
X47380251Y-66614092D01*
X47300027Y-66297958D01*
X46664426Y-66006660D01*
X45965732Y-65980770D01*
X45310316Y-66224229D01*
X45199973Y-66297958D01*
X45119749Y-66614092D01*
X42440071Y-66614092D01*
X42688886Y-66453985D01*
X42861960Y-66200682D01*
X42922850Y-65900000D01*
X42922850Y-64600000D01*
X42869995Y-64319102D01*
X42703985Y-64061114D01*
X42450682Y-63888040D01*
X42150000Y-63827150D01*
X40850000Y-63827150D01*
X40569102Y-63880005D01*
X40311114Y-64046015D01*
X40138040Y-64299318D01*
X40077150Y-64600000D01*
X38933823Y-64600000D01*
X38678224Y-63910492D01*
X38571114Y-63750191D01*
X38176997Y-63578660D01*
X36505657Y-65250000D01*
X36494343Y-65250000D01*
X34823003Y-63578660D01*
X34428886Y-63750191D01*
X34012588Y-64656938D01*
X33974976Y-65653974D01*
X34273163Y-66458370D01*
X32232960Y-66458370D01*
X31952062Y-66511225D01*
X31694074Y-66677235D01*
X31521000Y-66930538D01*
X31460110Y-67231220D01*
X24558000Y-67231220D01*
X24558000Y-63573003D01*
X34828660Y-63573003D01*
X36500000Y-65244343D01*
X38171340Y-63573003D01*
X37999809Y-63178886D01*
X37093062Y-62762588D01*
X36096026Y-62724976D01*
X35160492Y-63071776D01*
X35000191Y-63178886D01*
X34828660Y-63573003D01*
X24558000Y-63573003D01*
X24558000Y-60848053D01*
X24742206Y-60848053D01*
X25009204Y-61494237D01*
X25503162Y-61989059D01*
X26148880Y-62257184D01*
X26848053Y-62257794D01*
X27494237Y-61990796D01*
X27989059Y-61496838D01*
X28257184Y-60851120D01*
X28257186Y-60848053D01*
X44742206Y-60848053D01*
X45009204Y-61494237D01*
X45503162Y-61989059D01*
X46148880Y-62257184D01*
X46848053Y-62257794D01*
X47494237Y-61990796D01*
X47989059Y-61496838D01*
X48257184Y-60851120D01*
X48257794Y-60151947D01*
X47990796Y-59505763D01*
X47496838Y-59010941D01*
X46851120Y-58742816D01*
X46151947Y-58742206D01*
X45505763Y-59009204D01*
X45010941Y-59503162D01*
X44742816Y-60148880D01*
X44742206Y-60848053D01*
X28257186Y-60848053D01*
X28257794Y-60151947D01*
X27990796Y-59505763D01*
X27496838Y-59010941D01*
X26851120Y-58742816D01*
X26151947Y-58742206D01*
X25505763Y-59009204D01*
X25010941Y-59503162D01*
X24742816Y-60148880D01*
X24742206Y-60848053D01*
X24558000Y-60848053D01*
X24558000Y-53848053D01*
X24742206Y-53848053D01*
X25009204Y-54494237D01*
X25503162Y-54989059D01*
X26148880Y-55257184D01*
X26848053Y-55257794D01*
X27494237Y-54990796D01*
X27989059Y-54496838D01*
X28257184Y-53851120D01*
X28257186Y-53848053D01*
X44742206Y-53848053D01*
X45009204Y-54494237D01*
X45503162Y-54989059D01*
X46148880Y-55257184D01*
X46848053Y-55257794D01*
X47494237Y-54990796D01*
X47989059Y-54496838D01*
X48257184Y-53851120D01*
X48257794Y-53151947D01*
X47990796Y-52505763D01*
X47496838Y-52010941D01*
X46851120Y-51742816D01*
X46151947Y-51742206D01*
X45505763Y-52009204D01*
X45010941Y-52503162D01*
X44742816Y-53148880D01*
X44742206Y-53848053D01*
X28257186Y-53848053D01*
X28257794Y-53151947D01*
X27990796Y-52505763D01*
X27496838Y-52010941D01*
X26851120Y-51742816D01*
X26151947Y-51742206D01*
X25505763Y-52009204D01*
X25010941Y-52503162D01*
X24742816Y-53148880D01*
X24742206Y-53848053D01*
X24558000Y-53848053D01*
X24558000Y-40734000D01*
X29613550Y-40734000D01*
X29613550Y-42766000D01*
X29666405Y-43046898D01*
X29832415Y-43304886D01*
X30085718Y-43477960D01*
X30386400Y-43538850D01*
X32113600Y-43538850D01*
X32394498Y-43485995D01*
X32652486Y-43319985D01*
X32760420Y-43162018D01*
X33169441Y-43435318D01*
X33790000Y-43558755D01*
X34410559Y-43435318D01*
X34936644Y-43083799D01*
X35060000Y-42899184D01*
X35183356Y-43083799D01*
X35709441Y-43435318D01*
X36330000Y-43558755D01*
X36950559Y-43435318D01*
X37476644Y-43083799D01*
X37600000Y-42899184D01*
X37723356Y-43083799D01*
X38249441Y-43435318D01*
X38870000Y-43558755D01*
X39490559Y-43435318D01*
X39815419Y-43218253D01*
X40169735Y-43745922D01*
X40740938Y-44125711D01*
X41131038Y-44235725D01*
X41406000Y-44068495D01*
X41406000Y-41754000D01*
X41386000Y-41754000D01*
X41386000Y-41746000D01*
X41406000Y-41746000D01*
X41406000Y-39431505D01*
X41414000Y-39431505D01*
X41414000Y-41746000D01*
X41434000Y-41746000D01*
X41434000Y-41754000D01*
X41414000Y-41754000D01*
X41414000Y-44068495D01*
X41688962Y-44235725D01*
X42079062Y-44125711D01*
X42650265Y-43745922D01*
X43004581Y-43218253D01*
X43329441Y-43435318D01*
X43950000Y-43558755D01*
X44570559Y-43435318D01*
X45096644Y-43083799D01*
X45448163Y-42557714D01*
X45509371Y-42250000D01*
X51000000Y-42250000D01*
X51000000Y-47250000D01*
X51017097Y-47340864D01*
X51070798Y-47424318D01*
X51152736Y-47480304D01*
X51250000Y-47500000D01*
X56250000Y-47500000D01*
X56340864Y-47482903D01*
X56424318Y-47429202D01*
X56480304Y-47347264D01*
X56500000Y-47250000D01*
X56500000Y-42250000D01*
X56482903Y-42159136D01*
X56429202Y-42075682D01*
X56347264Y-42019696D01*
X56250000Y-42000000D01*
X51250000Y-42000000D01*
X51159136Y-42017097D01*
X51075682Y-42070798D01*
X51019696Y-42152736D01*
X51000000Y-42250000D01*
X45509371Y-42250000D01*
X45571600Y-41937155D01*
X45571600Y-41562845D01*
X45448163Y-40942286D01*
X45096644Y-40416201D01*
X44570559Y-40064682D01*
X43950000Y-39941245D01*
X43329441Y-40064682D01*
X43004581Y-40281747D01*
X42650265Y-39754078D01*
X42644132Y-39750000D01*
X60500000Y-39750000D01*
X60500000Y-46750000D01*
X60517097Y-46840864D01*
X60570798Y-46924318D01*
X60652736Y-46980304D01*
X60750000Y-47000000D01*
X67750000Y-47000000D01*
X67840864Y-46982903D01*
X67924318Y-46929202D01*
X67980304Y-46847264D01*
X68000000Y-46750000D01*
X68000000Y-42234000D01*
X91461150Y-42234000D01*
X91461150Y-44266000D01*
X91514005Y-44546898D01*
X91680015Y-44804886D01*
X91933318Y-44977960D01*
X92234000Y-45038850D01*
X94266000Y-45038850D01*
X94387215Y-45016042D01*
X94538421Y-45241236D01*
X95114815Y-45624493D01*
X95508535Y-45735528D01*
X95786000Y-45568495D01*
X95786000Y-43254000D01*
X95794000Y-43254000D01*
X95794000Y-45568495D01*
X96071465Y-45735528D01*
X96465185Y-45624493D01*
X97041579Y-45241236D01*
X97427432Y-44666576D01*
X97564000Y-43988000D01*
X97564000Y-43254000D01*
X95794000Y-43254000D01*
X95786000Y-43254000D01*
X95766000Y-43254000D01*
X95766000Y-43246000D01*
X95786000Y-43246000D01*
X95786000Y-40931505D01*
X95794000Y-40931505D01*
X95794000Y-43246000D01*
X97564000Y-43246000D01*
X97564000Y-42512000D01*
X97427432Y-41833424D01*
X97041579Y-41258764D01*
X96465185Y-40875507D01*
X96071465Y-40764472D01*
X95794000Y-40931505D01*
X95786000Y-40931505D01*
X95508535Y-40764472D01*
X95114815Y-40875507D01*
X94538421Y-41258764D01*
X94386188Y-41485489D01*
X94266000Y-41461150D01*
X92234000Y-41461150D01*
X91953102Y-41514005D01*
X91695114Y-41680015D01*
X91522040Y-41933318D01*
X91461150Y-42234000D01*
X68000000Y-42234000D01*
X68000000Y-39750000D01*
X100500000Y-39750000D01*
X100500000Y-46750000D01*
X100517097Y-46840864D01*
X100570798Y-46924318D01*
X100652736Y-46980304D01*
X100750000Y-47000000D01*
X107750000Y-47000000D01*
X107840864Y-46982903D01*
X107924318Y-46929202D01*
X107980304Y-46847264D01*
X108000000Y-46750000D01*
X108000000Y-42250000D01*
X109000000Y-42250000D01*
X109000000Y-47250000D01*
X109017097Y-47340864D01*
X109070798Y-47424318D01*
X109152736Y-47480304D01*
X109250000Y-47500000D01*
X114250000Y-47500000D01*
X114340864Y-47482903D01*
X114424318Y-47429202D01*
X114480304Y-47347264D01*
X114500000Y-47250000D01*
X114500000Y-42250000D01*
X114482903Y-42159136D01*
X114429202Y-42075682D01*
X114347264Y-42019696D01*
X114250000Y-42000000D01*
X109250000Y-42000000D01*
X109159136Y-42017097D01*
X109075682Y-42070798D01*
X109019696Y-42152736D01*
X109000000Y-42250000D01*
X108000000Y-42250000D01*
X108000000Y-39750000D01*
X107982903Y-39659136D01*
X107929202Y-39575682D01*
X107847264Y-39519696D01*
X107750000Y-39500000D01*
X100750000Y-39500000D01*
X100659136Y-39517097D01*
X100575682Y-39570798D01*
X100519696Y-39652736D01*
X100500000Y-39750000D01*
X68000000Y-39750000D01*
X67982903Y-39659136D01*
X67929202Y-39575682D01*
X67847264Y-39519696D01*
X67750000Y-39500000D01*
X60750000Y-39500000D01*
X60659136Y-39517097D01*
X60575682Y-39570798D01*
X60519696Y-39652736D01*
X60500000Y-39750000D01*
X42644132Y-39750000D01*
X42079062Y-39374289D01*
X41688962Y-39264275D01*
X41414000Y-39431505D01*
X41406000Y-39431505D01*
X41131038Y-39264275D01*
X40740938Y-39374289D01*
X40169735Y-39754078D01*
X39815419Y-40281747D01*
X39490559Y-40064682D01*
X38870000Y-39941245D01*
X38249441Y-40064682D01*
X37723356Y-40416201D01*
X37600000Y-40600816D01*
X37476644Y-40416201D01*
X36950559Y-40064682D01*
X36330000Y-39941245D01*
X35709441Y-40064682D01*
X35183356Y-40416201D01*
X35060000Y-40600816D01*
X34936644Y-40416201D01*
X34410559Y-40064682D01*
X33790000Y-39941245D01*
X33169441Y-40064682D01*
X32759789Y-40338403D01*
X32667585Y-40195114D01*
X32414282Y-40022040D01*
X32113600Y-39961150D01*
X30386400Y-39961150D01*
X30105502Y-40014005D01*
X29847514Y-40180015D01*
X29674440Y-40433318D01*
X29613550Y-40734000D01*
X24558000Y-40734000D01*
X24558000Y-39225908D01*
X25119749Y-39225908D01*
X25199973Y-39542042D01*
X25835574Y-39833340D01*
X26534268Y-39859230D01*
X27189684Y-39615771D01*
X27300027Y-39542042D01*
X27380251Y-39225908D01*
X26250000Y-38095657D01*
X25119749Y-39225908D01*
X24558000Y-39225908D01*
X24558000Y-38582179D01*
X24724229Y-39029684D01*
X24797958Y-39140027D01*
X25114092Y-39220251D01*
X26244343Y-38090000D01*
X26255657Y-38090000D01*
X27385908Y-39220251D01*
X27702042Y-39140027D01*
X27993340Y-38504426D01*
X28019230Y-37805732D01*
X27775771Y-37150316D01*
X27702042Y-37039973D01*
X27385908Y-36959749D01*
X26255657Y-38090000D01*
X26244343Y-38090000D01*
X25114092Y-36959749D01*
X24797958Y-37039973D01*
X24558000Y-37563552D01*
X24558000Y-36954092D01*
X25119749Y-36954092D01*
X26250000Y-38084343D01*
X27380251Y-36954092D01*
X27300027Y-36637958D01*
X26664426Y-36346660D01*
X25965732Y-36320770D01*
X25310316Y-36564229D01*
X25199973Y-36637958D01*
X25119749Y-36954092D01*
X24558000Y-36954092D01*
X24558000Y-36058000D01*
X115942000Y-36058000D01*
X115942000Y-120925362D01*
G36*
X47692002Y-95925364D02*
X40076695Y-103540671D01*
X39964927Y-102978779D01*
X39770638Y-102688005D01*
X39921453Y-102657649D01*
X40490922Y-102275265D01*
X40870711Y-101704062D01*
X40980725Y-101313962D01*
X40813495Y-101039000D01*
X38499000Y-101039000D01*
X38499000Y-101059000D01*
X38491000Y-101059000D01*
X38491000Y-101039000D01*
X38471000Y-101039000D01*
X38471000Y-101031000D01*
X38491000Y-101031000D01*
X38491000Y-98499000D01*
X38499000Y-98499000D01*
X38499000Y-101031000D01*
X40813495Y-101031000D01*
X40980725Y-100756038D01*
X40870711Y-100365938D01*
X40490922Y-99794735D01*
X40446639Y-99765000D01*
X40490922Y-99735265D01*
X40870711Y-99164062D01*
X40980725Y-98773962D01*
X40813495Y-98499000D01*
X38499000Y-98499000D01*
X38491000Y-98499000D01*
X38471000Y-98499000D01*
X38471000Y-98491000D01*
X38491000Y-98491000D01*
X38491000Y-98471000D01*
X38499000Y-98471000D01*
X38499000Y-98491000D01*
X40813495Y-98491000D01*
X40980725Y-98216038D01*
X40870711Y-97825938D01*
X40490922Y-97254735D01*
X39921453Y-96872351D01*
X39770638Y-96841995D01*
X39964927Y-96551221D01*
X40083523Y-95955000D01*
X39964927Y-95358779D01*
X39776661Y-95077019D01*
X39966892Y-95039180D01*
X40140768Y-94923000D01*
X46085000Y-94923000D01*
X46662087Y-94808210D01*
X47151317Y-94481317D01*
X47692002Y-93940632D01*
X47692002Y-95925364D01*
X47692002Y-95925364D01*
G37*
X47692002Y-95925364D02*
X40076695Y-103540671D01*
X39964927Y-102978779D01*
X39770638Y-102688005D01*
X39921453Y-102657649D01*
X40490922Y-102275265D01*
X40870711Y-101704062D01*
X40980725Y-101313962D01*
X40813495Y-101039000D01*
X38499000Y-101039000D01*
X38499000Y-101059000D01*
X38491000Y-101059000D01*
X38491000Y-101039000D01*
X38471000Y-101039000D01*
X38471000Y-101031000D01*
X38491000Y-101031000D01*
X38491000Y-98499000D01*
X38499000Y-98499000D01*
X38499000Y-101031000D01*
X40813495Y-101031000D01*
X40980725Y-100756038D01*
X40870711Y-100365938D01*
X40490922Y-99794735D01*
X40446639Y-99765000D01*
X40490922Y-99735265D01*
X40870711Y-99164062D01*
X40980725Y-98773962D01*
X40813495Y-98499000D01*
X38499000Y-98499000D01*
X38491000Y-98499000D01*
X38471000Y-98499000D01*
X38471000Y-98491000D01*
X38491000Y-98491000D01*
X38491000Y-98471000D01*
X38499000Y-98471000D01*
X38499000Y-98491000D01*
X40813495Y-98491000D01*
X40980725Y-98216038D01*
X40870711Y-97825938D01*
X40490922Y-97254735D01*
X39921453Y-96872351D01*
X39770638Y-96841995D01*
X39964927Y-96551221D01*
X40083523Y-95955000D01*
X39964927Y-95358779D01*
X39776661Y-95077019D01*
X39966892Y-95039180D01*
X40140768Y-94923000D01*
X46085000Y-94923000D01*
X46662087Y-94808210D01*
X47151317Y-94481317D01*
X47692002Y-93940632D01*
X47692002Y-95925364D01*
G36*
X29000000Y-81629820D02*
X28592525Y-81359065D01*
X28247675Y-81261812D01*
X28004000Y-81431506D01*
X28004000Y-83746000D01*
X28024000Y-83746000D01*
X28024000Y-83754000D01*
X28004000Y-83754000D01*
X28004000Y-86068494D01*
X28247675Y-86238188D01*
X28592525Y-86140935D01*
X29000000Y-85870180D01*
X29000000Y-87000000D01*
X24550000Y-87000000D01*
X24550000Y-83754000D01*
X26442000Y-83754000D01*
X26442000Y-84704000D01*
X26562126Y-85299916D01*
X26901156Y-85804501D01*
X27407475Y-86140935D01*
X27752325Y-86238188D01*
X27996000Y-86068494D01*
X27996000Y-83754000D01*
X26442000Y-83754000D01*
X24550000Y-83754000D01*
X24550000Y-82796000D01*
X26442000Y-82796000D01*
X26442000Y-83746000D01*
X27996000Y-83746000D01*
X27996000Y-81431506D01*
X27752325Y-81261812D01*
X27407475Y-81359065D01*
X26901156Y-81695499D01*
X26562126Y-82200084D01*
X26442000Y-82796000D01*
X24550000Y-82796000D01*
X24550000Y-80755908D01*
X25619749Y-80755908D01*
X25699973Y-81072042D01*
X26335574Y-81363340D01*
X27034268Y-81389230D01*
X27689684Y-81145771D01*
X27800027Y-81072042D01*
X27880251Y-80755908D01*
X26750000Y-79625657D01*
X25619749Y-80755908D01*
X24550000Y-80755908D01*
X24550000Y-79904268D01*
X24980770Y-79904268D01*
X25224229Y-80559684D01*
X25297958Y-80670027D01*
X25614092Y-80750251D01*
X26744343Y-79620000D01*
X26755657Y-79620000D01*
X27885908Y-80750251D01*
X28202042Y-80670027D01*
X28493340Y-80034426D01*
X28519230Y-79335732D01*
X28275771Y-78680316D01*
X28202042Y-78569973D01*
X27885908Y-78489749D01*
X26755657Y-79620000D01*
X26744343Y-79620000D01*
X25614092Y-78489749D01*
X25297958Y-78569973D01*
X25006660Y-79205574D01*
X24980770Y-79904268D01*
X24550000Y-79904268D01*
X24550000Y-78484092D01*
X25619749Y-78484092D01*
X26750000Y-79614343D01*
X27880251Y-78484092D01*
X27800027Y-78167958D01*
X27164426Y-77876660D01*
X26465732Y-77850770D01*
X25810316Y-78094229D01*
X25699973Y-78167958D01*
X25619749Y-78484092D01*
X24550000Y-78484092D01*
X24550000Y-77500000D01*
X29000000Y-77500000D01*
X29000000Y-81629820D01*
X29000000Y-81629820D01*
G37*
X29000000Y-81629820D02*
X28592525Y-81359065D01*
X28247675Y-81261812D01*
X28004000Y-81431506D01*
X28004000Y-83746000D01*
X28024000Y-83746000D01*
X28024000Y-83754000D01*
X28004000Y-83754000D01*
X28004000Y-86068494D01*
X28247675Y-86238188D01*
X28592525Y-86140935D01*
X29000000Y-85870180D01*
X29000000Y-87000000D01*
X24550000Y-87000000D01*
X24550000Y-83754000D01*
X26442000Y-83754000D01*
X26442000Y-84704000D01*
X26562126Y-85299916D01*
X26901156Y-85804501D01*
X27407475Y-86140935D01*
X27752325Y-86238188D01*
X27996000Y-86068494D01*
X27996000Y-83754000D01*
X26442000Y-83754000D01*
X24550000Y-83754000D01*
X24550000Y-82796000D01*
X26442000Y-82796000D01*
X26442000Y-83746000D01*
X27996000Y-83746000D01*
X27996000Y-81431506D01*
X27752325Y-81261812D01*
X27407475Y-81359065D01*
X26901156Y-81695499D01*
X26562126Y-82200084D01*
X26442000Y-82796000D01*
X24550000Y-82796000D01*
X24550000Y-80755908D01*
X25619749Y-80755908D01*
X25699973Y-81072042D01*
X26335574Y-81363340D01*
X27034268Y-81389230D01*
X27689684Y-81145771D01*
X27800027Y-81072042D01*
X27880251Y-80755908D01*
X26750000Y-79625657D01*
X25619749Y-80755908D01*
X24550000Y-80755908D01*
X24550000Y-79904268D01*
X24980770Y-79904268D01*
X25224229Y-80559684D01*
X25297958Y-80670027D01*
X25614092Y-80750251D01*
X26744343Y-79620000D01*
X26755657Y-79620000D01*
X27885908Y-80750251D01*
X28202042Y-80670027D01*
X28493340Y-80034426D01*
X28519230Y-79335732D01*
X28275771Y-78680316D01*
X28202042Y-78569973D01*
X27885908Y-78489749D01*
X26755657Y-79620000D01*
X26744343Y-79620000D01*
X25614092Y-78489749D01*
X25297958Y-78569973D01*
X25006660Y-79205574D01*
X24980770Y-79904268D01*
X24550000Y-79904268D01*
X24550000Y-78484092D01*
X25619749Y-78484092D01*
X26750000Y-79614343D01*
X27880251Y-78484092D01*
X27800027Y-78167958D01*
X27164426Y-77876660D01*
X26465732Y-77850770D01*
X25810316Y-78094229D01*
X25699973Y-78167958D01*
X25619749Y-78484092D01*
X24550000Y-78484092D01*
X24550000Y-77500000D01*
X29000000Y-77500000D01*
X29000000Y-81629820D01*
G36*
X36750000Y-136313265D02*
X36093738Y-135655857D01*
X34899427Y-135159935D01*
X33606246Y-135158807D01*
X32411071Y-135652643D01*
X32000000Y-136062998D01*
X32000000Y-130597172D01*
X32406262Y-131004143D01*
X33600573Y-131500065D01*
X34893754Y-131501193D01*
X36088929Y-131007357D01*
X36750000Y-130347438D01*
X36750000Y-136313265D01*
X36750000Y-136313265D01*
G37*
X36750000Y-136313265D02*
X36093738Y-135655857D01*
X34899427Y-135159935D01*
X33606246Y-135158807D01*
X32411071Y-135652643D01*
X32000000Y-136062998D01*
X32000000Y-130597172D01*
X32406262Y-131004143D01*
X33600573Y-131500065D01*
X34893754Y-131501193D01*
X36088929Y-131007357D01*
X36750000Y-130347438D01*
X36750000Y-136313265D01*
G36*
X25406262Y-131004143D02*
X26600573Y-131500065D01*
X27893754Y-131501193D01*
X29088929Y-131007357D01*
X29500000Y-130597002D01*
X29500000Y-136062828D01*
X29093738Y-135655857D01*
X27899427Y-135159935D01*
X26606246Y-135158807D01*
X25411071Y-135652643D01*
X24550000Y-136512213D01*
X24550000Y-130250000D01*
X24653433Y-130250000D01*
X25406262Y-131004143D01*
X25406262Y-131004143D01*
G37*
X25406262Y-131004143D02*
X26600573Y-131500065D01*
X27893754Y-131501193D01*
X29088929Y-131007357D01*
X29500000Y-130597002D01*
X29500000Y-136062828D01*
X29093738Y-135655857D01*
X27899427Y-135159935D01*
X26606246Y-135158807D01*
X25411071Y-135652643D01*
X24550000Y-136512213D01*
X24550000Y-130250000D01*
X24653433Y-130250000D01*
X25406262Y-131004143D01*
M02*
