M48
;DRILL file {KiCad 4.0.5} date 2018 March 07, Wednesday 07:55:00
;FORMAT={-:-/ absolute / inch / decimal}
FMAT,2
INCH,TZ
T1C0.028
T2C0.031
T3C0.032
T4C0.039
T5C0.039
T6C0.040
T7C0.043
T8C0.059
T9C0.063
%
G90
G05
M72
T1
X1.1417Y-4.7933
X1.2402Y-4.7933
X1.6535Y-3.4744
X1.6535Y-3.5728
X1.7815Y-3.4744
X1.7815Y-3.5728
X1.811Y-4.1929
X1.9094Y-4.1929
X2.8445Y-3.8583
X2.9035Y-5.6693
X2.9035Y-5.7677
X2.9429Y-3.8583
X3.0512Y-5.6693
X3.0512Y-5.7677
X3.622Y-5.876
X3.6417Y-5.6693
X3.6417Y-5.7677
X3.7205Y-5.876
T2
X1.0531Y-5.6201
X1.1024Y-3.2972
X1.2008Y-3.2972
X1.2156Y-3.5778
X1.2156Y-3.6778
X1.2156Y-3.7778
X1.2156Y-3.8778
X1.2156Y-3.9778
X1.2156Y-4.0778
X1.2156Y-4.1778
X1.2156Y-4.2778
X1.25Y-5.6201
X1.437Y-2.5689
X1.5156Y-3.5778
X1.5156Y-3.6778
X1.5156Y-3.7778
X1.5156Y-3.8778
X1.5156Y-3.9778
X1.5156Y-4.0778
X1.5156Y-4.1778
X1.5156Y-4.2778
X1.552Y-3.2579
X1.6339Y-2.5689
X1.652Y-3.2579
X1.752Y-3.2579
X1.7717Y-5.
X1.9685Y-5.
X2.3819Y-4.7441
X2.5787Y-4.7441
X2.6575Y-5.9547
X2.6575Y-6.1516
X2.8543Y-5.9547
X2.8543Y-6.1516
X3.189Y-5.0689
X3.189Y-5.1689
X3.189Y-5.2689
X3.189Y-5.3689
X3.189Y-5.4689
X3.189Y-5.5689
X3.189Y-5.6689
X3.189Y-5.7689
X3.189Y-5.8689
X3.189Y-5.9689
X3.189Y-6.0689
X3.189Y-6.1689
X3.189Y-6.2689
X3.189Y-6.3689
X3.489Y-5.0689
X3.489Y-5.1689
X3.489Y-5.2689
X3.489Y-5.3689
X3.489Y-5.4689
X3.489Y-5.5689
X3.489Y-5.6689
X3.489Y-5.7689
X3.489Y-5.8689
X3.489Y-5.9689
X3.489Y-6.0689
X3.489Y-6.1689
X3.489Y-6.2689
X3.489Y-6.3689
T3
X3.0217Y-5.957
X3.0217Y-6.1492
T4
X1.5354Y-4.4882
X1.5354Y-4.5882
X1.5354Y-4.6882
X1.5354Y-4.7882
X2.0472Y-3.2236
X2.0472Y-3.3236
X2.0472Y-3.4236
X2.0472Y-3.5236
X2.5429Y-5.374
X2.9429Y-5.374
X3.7713Y-1.7028
X3.965Y-3.8091
X4.0602Y-4.0453
X4.0602Y-4.4453
X4.4882Y-4.8114
X4.4882Y-5.2787
T5
X1.0433Y-2.1063
X1.0433Y-2.3819
X1.0531Y-2.8346
X1.0531Y-3.1346
X1.8209Y-2.6673
X1.8209Y-3.0673
X1.8307Y-2.1063
X1.8307Y-2.3819
X2.4311Y-4.0059
X2.4311Y-4.4059
X4.1634Y-5.2461
X4.1634Y-5.6461
X4.3209Y-4.9248
X4.3209Y-5.3248
T6
X1.0531Y-5.7563
X1.0531Y-5.8563
X1.2303Y-1.6437
X1.3303Y-1.6437
X1.4303Y-1.6437
X1.5303Y-1.6437
X1.6303Y-1.6437
X1.7303Y-1.6437
X1.8193Y-5.1575
X1.9193Y-5.1575
X2.6429Y-5.374
X2.7429Y-5.374
X2.8429Y-5.374
X3.6713Y-1.7028
X3.8602Y-4.0453
X3.8602Y-4.4453
X3.865Y-3.8091
X3.9602Y-4.0453
X3.9602Y-4.4453
X4.065Y-3.8091
X4.1602Y-4.0453
X4.1602Y-4.4453
X4.2602Y-4.0453
X4.2602Y-4.4453
X4.3406Y-5.4579
X4.3406Y-5.5579
X4.3406Y-5.6579
X4.3406Y-5.7579
X4.3602Y-4.0453
X4.3602Y-4.4453
X4.4882Y-4.9114
X4.4882Y-5.0787
X4.4882Y-5.1787
X4.498Y-5.461
X4.498Y-5.561
T7
X1.559Y-2.7283
X1.559Y-2.8031
X1.559Y-2.874
X1.559Y-2.9449
X1.559Y-3.0197
X2.9468Y-4.0472
X2.9468Y-4.122
X2.9468Y-4.1929
X2.9468Y-4.2638
X2.9468Y-4.3386
T8
X1.319Y-2.6969
X1.319Y-3.2969
X2.6871Y-3.8583
X2.6871Y-4.4583
T9
X1.0728Y-5.0492
X1.0728Y-5.4492
X1.3484Y-5.0492
X1.3484Y-5.4492
X1.7323Y-4.4094
X1.7323Y-4.8094
X1.998Y-4.3996
X1.998Y-4.7996
T0
M30
