G04 #@! TF.FileFunction,Legend,Top*
%FSLAX46Y46*%
G04 Gerber Fmt 4.6, Leading zero omitted, Abs format (unit mm)*
G04 Created by KiCad (PCBNEW 4.0.5) date 2018 March 06, Tuesday 18:40:40*
%MOMM*%
%LPD*%
G01*
G04 APERTURE LIST*
%ADD10C,0.100000*%
%ADD11C,0.150000*%
G04 APERTURE END LIST*
D10*
D11*
X51000000Y-128000000D02*
X44000000Y-128000000D01*
X44000000Y-128000000D02*
X44000000Y-126000000D01*
X44000000Y-126000000D02*
X51000000Y-126000000D01*
X51000000Y-126000000D02*
X51000000Y-128000000D01*
X32750000Y-143750000D02*
X25750000Y-143750000D01*
X25750000Y-143750000D02*
X25750000Y-141750000D01*
X25750000Y-141750000D02*
X32750000Y-141750000D01*
X32750000Y-141750000D02*
X32750000Y-143750000D01*
X49250000Y-107750000D02*
X45250000Y-107750000D01*
X49250000Y-105250000D02*
X45250000Y-105250000D01*
X32250000Y-123000000D02*
X28250000Y-123000000D01*
X32250000Y-120500000D02*
X28250000Y-120500000D01*
X73500000Y-157250000D02*
X66500000Y-157250000D01*
X66500000Y-157250000D02*
X66500000Y-155250000D01*
X66500000Y-155250000D02*
X73500000Y-155250000D01*
X73500000Y-155250000D02*
X73500000Y-157250000D01*
X73500000Y-152250000D02*
X66500000Y-152250000D01*
X66500000Y-152250000D02*
X66500000Y-150250000D01*
X66500000Y-150250000D02*
X73500000Y-150250000D01*
X73500000Y-150250000D02*
X73500000Y-152250000D01*
X43250000Y-87500000D02*
X43250000Y-91500000D01*
X40750000Y-87500000D02*
X40750000Y-91500000D01*
X44000000Y-91500000D02*
X44000000Y-87500000D01*
X46500000Y-91500000D02*
X46500000Y-87500000D01*
X93750000Y-143250000D02*
X93750000Y-147250000D01*
X91250000Y-143250000D02*
X91250000Y-147250000D01*
X95250000Y-150500000D02*
X91250000Y-150500000D01*
X95250000Y-148000000D02*
X91250000Y-148000000D01*
X76250000Y-147250000D02*
X76250000Y-143250000D01*
X78750000Y-147250000D02*
X78750000Y-143250000D01*
X75000000Y-143250000D02*
X75000000Y-147250000D01*
X72500000Y-143250000D02*
X72500000Y-147250000D01*
X42500000Y-66250000D02*
X35500000Y-66250000D01*
X35500000Y-66250000D02*
X35500000Y-64250000D01*
X35500000Y-64250000D02*
X42500000Y-64250000D01*
X42500000Y-64250000D02*
X42500000Y-66250000D01*
X75500000Y-99250000D02*
X71500000Y-99250000D01*
X75500000Y-96750000D02*
X71500000Y-96750000D01*
X27250000Y-82500000D02*
X31250000Y-82500000D01*
X27250000Y-85000000D02*
X31250000Y-85000000D01*
X59500000Y-119250000D02*
X66500000Y-119250000D01*
X66500000Y-119250000D02*
X66500000Y-121750000D01*
X66500000Y-121750000D02*
X59500000Y-121750000D01*
X59500000Y-121750000D02*
X59500000Y-119250000D01*
X33502960Y-80693220D02*
X33502960Y-82217220D01*
X33502960Y-71549220D02*
X33502960Y-70025220D01*
X36296960Y-72565220D02*
X30708960Y-72565220D01*
X36296960Y-72311220D02*
X30708960Y-72311220D01*
X36296960Y-72057220D02*
X30708960Y-72057220D01*
X30708960Y-71549220D02*
X36296960Y-71549220D01*
X36296960Y-71549220D02*
X36296960Y-80693220D01*
X36296960Y-80693220D02*
X30708960Y-80693220D01*
X30708960Y-80693220D02*
X30708960Y-71549220D01*
X68252960Y-110193220D02*
X68252960Y-111717220D01*
X68252960Y-101049220D02*
X68252960Y-99525220D01*
X71046960Y-102065220D02*
X65458960Y-102065220D01*
X71046960Y-101811220D02*
X65458960Y-101811220D01*
X71046960Y-101557220D02*
X65458960Y-101557220D01*
X65458960Y-101049220D02*
X71046960Y-101049220D01*
X71046960Y-101049220D02*
X71046960Y-110193220D01*
X71046960Y-110193220D02*
X65458960Y-110193220D01*
X65458960Y-110193220D02*
X65458960Y-101049220D01*
X74750000Y-134950000D02*
X76300000Y-134950000D01*
X76300000Y-134950000D02*
X76300000Y-138050000D01*
X76300000Y-138050000D02*
X74750000Y-138050000D01*
X73480000Y-137770000D02*
X63320000Y-137770000D01*
X63320000Y-137770000D02*
X63320000Y-135230000D01*
X63320000Y-135230000D02*
X73480000Y-135230000D01*
X73480000Y-137770000D02*
X73480000Y-135230000D01*
X112980000Y-139980000D02*
X112980000Y-137440000D01*
X112700000Y-142800000D02*
X112700000Y-141250000D01*
X112980000Y-139980000D02*
X115520000Y-139980000D01*
X115800000Y-141250000D02*
X115800000Y-142800000D01*
X115800000Y-142800000D02*
X112700000Y-142800000D01*
X115520000Y-139980000D02*
X115520000Y-137440000D01*
X115520000Y-137440000D02*
X112980000Y-137440000D01*
X112730000Y-123480000D02*
X112730000Y-120940000D01*
X112450000Y-126300000D02*
X112450000Y-124750000D01*
X112730000Y-123480000D02*
X115270000Y-123480000D01*
X115550000Y-124750000D02*
X115550000Y-126300000D01*
X115550000Y-126300000D02*
X112450000Y-126300000D01*
X115270000Y-123480000D02*
X115270000Y-120940000D01*
X115270000Y-120940000D02*
X112730000Y-120940000D01*
X53270000Y-88230000D02*
X53270000Y-80610000D01*
X50730000Y-88230000D02*
X50730000Y-80610000D01*
X50450000Y-91050000D02*
X50450000Y-89500000D01*
X53270000Y-80610000D02*
X50730000Y-80610000D01*
X50730000Y-88230000D02*
X53270000Y-88230000D01*
X53550000Y-89500000D02*
X53550000Y-91050000D01*
X53550000Y-91050000D02*
X50450000Y-91050000D01*
X37730000Y-115270000D02*
X37730000Y-122890000D01*
X40270000Y-115270000D02*
X40270000Y-122890000D01*
X40550000Y-112450000D02*
X40550000Y-114000000D01*
X37730000Y-122890000D02*
X40270000Y-122890000D01*
X40270000Y-115270000D02*
X37730000Y-115270000D01*
X37450000Y-114000000D02*
X37450000Y-112450000D01*
X37450000Y-112450000D02*
X40550000Y-112450000D01*
X101980000Y-95480000D02*
X96900000Y-95480000D01*
X96900000Y-95480000D02*
X96900000Y-98020000D01*
X96900000Y-98020000D02*
X101980000Y-98020000D01*
X104800000Y-98300000D02*
X103250000Y-98300000D01*
X101980000Y-98020000D02*
X101980000Y-95480000D01*
X103250000Y-95200000D02*
X104800000Y-95200000D01*
X104800000Y-95200000D02*
X104800000Y-98300000D01*
X94520000Y-41980000D02*
X97060000Y-41980000D01*
X91700000Y-41700000D02*
X93250000Y-41700000D01*
X94520000Y-41980000D02*
X94520000Y-44520000D01*
X93250000Y-44800000D02*
X91700000Y-44800000D01*
X91700000Y-44800000D02*
X91700000Y-41700000D01*
X94520000Y-44520000D02*
X97060000Y-44520000D01*
X97060000Y-44520000D02*
X97060000Y-41980000D01*
X28020000Y-73270000D02*
X28020000Y-78350000D01*
X28020000Y-78350000D02*
X25480000Y-78350000D01*
X25480000Y-78350000D02*
X25480000Y-73270000D01*
X25480000Y-73270000D02*
X28020000Y-73270000D01*
X63020000Y-104290000D02*
X63020000Y-109370000D01*
X63020000Y-109370000D02*
X60480000Y-109370000D01*
X60480000Y-109370000D02*
X60480000Y-104290000D01*
X60480000Y-104290000D02*
X63020000Y-104290000D01*
X61750000Y-104290000D02*
X61750000Y-103020000D01*
X61750000Y-109370000D02*
X61750000Y-110640000D01*
X47480000Y-132270000D02*
X44940000Y-132270000D01*
X50300000Y-132550000D02*
X48750000Y-132550000D01*
X47480000Y-132270000D02*
X47480000Y-129730000D01*
X48750000Y-129450000D02*
X50300000Y-129450000D01*
X50300000Y-129450000D02*
X50300000Y-132550000D01*
X47480000Y-129730000D02*
X44940000Y-129730000D01*
X44940000Y-129730000D02*
X44940000Y-132270000D01*
X25480000Y-147480000D02*
X25480000Y-144940000D01*
X25200000Y-150300000D02*
X25200000Y-148750000D01*
X25480000Y-147480000D02*
X28020000Y-147480000D01*
X28300000Y-148750000D02*
X28300000Y-150300000D01*
X28300000Y-150300000D02*
X25200000Y-150300000D01*
X28020000Y-147480000D02*
X28020000Y-144940000D01*
X28020000Y-144940000D02*
X25480000Y-144940000D01*
X112730000Y-130270000D02*
X112730000Y-135350000D01*
X112730000Y-135350000D02*
X115270000Y-135350000D01*
X115270000Y-135350000D02*
X115270000Y-130270000D01*
X115550000Y-127450000D02*
X115550000Y-129000000D01*
X115270000Y-130270000D02*
X112730000Y-130270000D01*
X112450000Y-129000000D02*
X112450000Y-127450000D01*
X112450000Y-127450000D02*
X115550000Y-127450000D01*
X107020000Y-135790000D02*
X107020000Y-140870000D01*
X107020000Y-140870000D02*
X104480000Y-140870000D01*
X104480000Y-140870000D02*
X104480000Y-135790000D01*
X104480000Y-135790000D02*
X107020000Y-135790000D01*
X105750000Y-135790000D02*
X105750000Y-134520000D01*
X105750000Y-140870000D02*
X105750000Y-142140000D01*
X108480000Y-132710000D02*
X108480000Y-127630000D01*
X108480000Y-127630000D02*
X111020000Y-127630000D01*
X111020000Y-127630000D02*
X111020000Y-132710000D01*
X111020000Y-132710000D02*
X108480000Y-132710000D01*
X109750000Y-132710000D02*
X109750000Y-133980000D01*
X109750000Y-127630000D02*
X109750000Y-126360000D01*
X28880000Y-57960000D02*
X28880000Y-63040000D01*
X28880000Y-63040000D02*
X44120000Y-63040000D01*
X44120000Y-63040000D02*
X44120000Y-60500000D01*
X44120000Y-60500000D02*
X44120000Y-57960000D01*
X44120000Y-57960000D02*
X28880000Y-57960000D01*
X45230000Y-60500000D02*
X44120000Y-60500000D01*
X27770000Y-60500000D02*
X28880000Y-60500000D01*
X28880000Y-50960000D02*
X28880000Y-56040000D01*
X28880000Y-56040000D02*
X44120000Y-56040000D01*
X44120000Y-56040000D02*
X44120000Y-53500000D01*
X44120000Y-53500000D02*
X44120000Y-50960000D01*
X44120000Y-50960000D02*
X28880000Y-50960000D01*
X45230000Y-53500000D02*
X44120000Y-53500000D01*
X27770000Y-53500000D02*
X28880000Y-53500000D01*
X45975000Y-86310000D02*
X36445000Y-86310000D01*
X36445000Y-86310000D02*
X36445000Y-81480000D01*
X36445000Y-81860000D02*
X45975000Y-81860000D01*
X45975000Y-86310000D02*
X45975000Y-81480000D01*
X47520000Y-70290000D02*
X47520000Y-75370000D01*
X47520000Y-75370000D02*
X44980000Y-75370000D01*
X44980000Y-75370000D02*
X44980000Y-70290000D01*
X44980000Y-70290000D02*
X47520000Y-70290000D01*
X46250000Y-70290000D02*
X46250000Y-69020000D01*
X46250000Y-75370000D02*
X46250000Y-76640000D01*
X111520000Y-144980000D02*
X111520000Y-137360000D01*
X108980000Y-144980000D02*
X108980000Y-137360000D01*
X108700000Y-147800000D02*
X108700000Y-146250000D01*
X111520000Y-137360000D02*
X108980000Y-137360000D01*
X108980000Y-144980000D02*
X111520000Y-144980000D01*
X111800000Y-146250000D02*
X111800000Y-147800000D01*
X111800000Y-147800000D02*
X108700000Y-147800000D01*
X31010000Y-88580000D02*
X31010000Y-89850000D01*
X38360000Y-88580000D02*
X38360000Y-89850000D01*
X38360000Y-110950000D02*
X38360000Y-109680000D01*
X31010000Y-110950000D02*
X31010000Y-109680000D01*
X31010000Y-88580000D02*
X38360000Y-88580000D01*
X31010000Y-110950000D02*
X38360000Y-110950000D01*
X31010000Y-89850000D02*
X30075000Y-89850000D01*
X81135000Y-126455000D02*
X81135000Y-127725000D01*
X88485000Y-126455000D02*
X88485000Y-127725000D01*
X88485000Y-164065000D02*
X88485000Y-162795000D01*
X81135000Y-164065000D02*
X81135000Y-162795000D01*
X81135000Y-126455000D02*
X88485000Y-126455000D01*
X81135000Y-164065000D02*
X88485000Y-164065000D01*
X81135000Y-127725000D02*
X80200000Y-127725000D01*
X109480000Y-104020000D02*
X109480000Y-101480000D01*
X96780000Y-101480000D02*
X109480000Y-101480000D01*
X96780000Y-104020000D02*
X96780000Y-101480000D01*
X109480000Y-104020000D02*
X96780000Y-104020000D01*
X109480000Y-104020000D02*
X96780000Y-104020000D01*
X96780000Y-104020000D02*
X96780000Y-101480000D01*
X96780000Y-101480000D02*
X109480000Y-101480000D01*
X112300000Y-104300000D02*
X110750000Y-104300000D01*
X109480000Y-104020000D02*
X109480000Y-101480000D01*
X110750000Y-101200000D02*
X112300000Y-101200000D01*
X112300000Y-101200000D02*
X112300000Y-104300000D01*
X40998980Y-77599940D02*
X40998980Y-78300980D01*
X40998980Y-75600960D02*
X40998980Y-75900680D01*
X40998980Y-73800100D02*
X40998980Y-74000760D01*
X40998980Y-72100840D02*
X40998980Y-72199900D01*
X40998980Y-70200920D02*
X40998980Y-70299980D01*
X40998980Y-67699020D02*
X40998980Y-68400060D01*
X41999740Y-74501140D02*
X41301240Y-74501140D01*
X41999740Y-71498860D02*
X41301240Y-71498860D01*
X37199140Y-67699020D02*
X37199140Y-78300980D01*
X40905000Y-78334000D02*
X37222000Y-78334000D01*
X37222000Y-67666000D02*
X40905000Y-67666000D01*
X42048000Y-78334000D02*
X40905000Y-78334000D01*
X40905000Y-67666000D02*
X42048000Y-67666000D01*
X42048000Y-73000000D02*
X42048000Y-67666000D01*
X42048000Y-73000000D02*
X42048000Y-78334000D01*
X76248980Y-111099940D02*
X76248980Y-111800980D01*
X76248980Y-109100960D02*
X76248980Y-109400680D01*
X76248980Y-107300100D02*
X76248980Y-107500760D01*
X76248980Y-105600840D02*
X76248980Y-105699900D01*
X76248980Y-103700920D02*
X76248980Y-103799980D01*
X76248980Y-101199020D02*
X76248980Y-101900060D01*
X77249740Y-108001140D02*
X76551240Y-108001140D01*
X77249740Y-104998860D02*
X76551240Y-104998860D01*
X72449140Y-101199020D02*
X72449140Y-111800980D01*
X76155000Y-111834000D02*
X72472000Y-111834000D01*
X72472000Y-101166000D02*
X76155000Y-101166000D01*
X77298000Y-111834000D02*
X76155000Y-111834000D01*
X76155000Y-101166000D02*
X77298000Y-101166000D01*
X77298000Y-106500000D02*
X77298000Y-101166000D01*
X77298000Y-106500000D02*
X77298000Y-111834000D01*
X32520000Y-40480000D02*
X45220000Y-40480000D01*
X45220000Y-40480000D02*
X45220000Y-43020000D01*
X45220000Y-43020000D02*
X32520000Y-43020000D01*
X29700000Y-40200000D02*
X31250000Y-40200000D01*
X32520000Y-40480000D02*
X32520000Y-43020000D01*
X31250000Y-43300000D02*
X29700000Y-43300000D01*
X29700000Y-43300000D02*
X29700000Y-40200000D01*
X75749240Y-149051000D02*
X76150560Y-148850340D01*
X76150560Y-148850340D02*
X76750000Y-148748740D01*
X76750000Y-148748740D02*
X77250380Y-148850340D01*
X77250380Y-148850340D02*
X77948880Y-149249120D01*
X77948880Y-149249120D02*
X78350200Y-149851100D01*
X78350200Y-149851100D02*
X78550860Y-150450540D01*
X78550860Y-150450540D02*
X78550860Y-157049460D01*
X78550860Y-157049460D02*
X78350200Y-157750500D01*
X78350200Y-157750500D02*
X78050480Y-158149280D01*
X78050480Y-158149280D02*
X77550100Y-158550600D01*
X77550100Y-158550600D02*
X76950660Y-158751260D01*
X76950660Y-158751260D02*
X76450280Y-158751260D01*
X76450280Y-158751260D02*
X75949900Y-158550600D01*
X75949900Y-158550600D02*
X75350460Y-158050220D01*
X75350460Y-158050220D02*
X75050740Y-157549840D01*
X75050740Y-157549840D02*
X74949140Y-157049460D01*
X74949140Y-156950400D02*
X74949140Y-150348940D01*
X74949140Y-150348940D02*
X75050740Y-149950160D01*
X75050740Y-149950160D02*
X75350460Y-149449780D01*
X75350460Y-149449780D02*
X75850840Y-148949400D01*
X74420820Y-156940240D02*
X74469080Y-157399980D01*
X74469080Y-157399980D02*
X74580840Y-157798760D01*
X74580840Y-157798760D02*
X74799280Y-158230560D01*
X74799280Y-158230560D02*
X75030420Y-158520120D01*
X75030420Y-158520120D02*
X75380940Y-158850320D01*
X75380940Y-158850320D02*
X75919420Y-159139880D01*
X75919420Y-159139880D02*
X76518860Y-159269420D01*
X76518860Y-159269420D02*
X77029400Y-159269420D01*
X77029400Y-159269420D02*
X77730440Y-159099240D01*
X77730440Y-159099240D02*
X78319720Y-158700460D01*
X78319720Y-158700460D02*
X78690560Y-158240720D01*
X78690560Y-158240720D02*
X78898840Y-157819080D01*
X78898840Y-157819080D02*
X79058860Y-157369500D01*
X79058860Y-157369500D02*
X79089340Y-156930080D01*
X78870900Y-149589480D02*
X78649920Y-149211020D01*
X78649920Y-149211020D02*
X78370520Y-148890980D01*
X78370520Y-148890980D02*
X78040320Y-148639520D01*
X78040320Y-148639520D02*
X77489140Y-148339800D01*
X77489140Y-148339800D02*
X77019240Y-148230580D01*
X77019240Y-148230580D02*
X76559500Y-148210260D01*
X76559500Y-148210260D02*
X76099760Y-148299160D01*
X76099760Y-148299160D02*
X75650180Y-148489660D01*
X75650180Y-148489660D02*
X75180280Y-148850340D01*
X75180280Y-148850340D02*
X74860240Y-149200860D01*
X74860240Y-149200860D02*
X74629100Y-149589480D01*
X74629100Y-149589480D02*
X74489400Y-150018740D01*
X74489400Y-150018740D02*
X74420820Y-150460700D01*
X79079180Y-156950400D02*
X79079180Y-150498800D01*
X79079180Y-150498800D02*
X79041080Y-150079700D01*
X79041080Y-150079700D02*
X78870900Y-149589480D01*
X74420820Y-156950400D02*
X74420820Y-150498800D01*
X47333334Y-129607143D02*
X47285715Y-129654762D01*
X47142858Y-129702381D01*
X47047620Y-129702381D01*
X46904762Y-129654762D01*
X46809524Y-129559524D01*
X46761905Y-129464286D01*
X46714286Y-129273810D01*
X46714286Y-129130952D01*
X46761905Y-128940476D01*
X46809524Y-128845238D01*
X46904762Y-128750000D01*
X47047620Y-128702381D01*
X47142858Y-128702381D01*
X47285715Y-128750000D01*
X47333334Y-128797619D01*
X48285715Y-129702381D02*
X47714286Y-129702381D01*
X48000000Y-129702381D02*
X48000000Y-128702381D01*
X47904762Y-128845238D01*
X47809524Y-128940476D01*
X47714286Y-128988095D01*
X29083334Y-145357143D02*
X29035715Y-145404762D01*
X28892858Y-145452381D01*
X28797620Y-145452381D01*
X28654762Y-145404762D01*
X28559524Y-145309524D01*
X28511905Y-145214286D01*
X28464286Y-145023810D01*
X28464286Y-144880952D01*
X28511905Y-144690476D01*
X28559524Y-144595238D01*
X28654762Y-144500000D01*
X28797620Y-144452381D01*
X28892858Y-144452381D01*
X29035715Y-144500000D01*
X29083334Y-144547619D01*
X29464286Y-144547619D02*
X29511905Y-144500000D01*
X29607143Y-144452381D01*
X29845239Y-144452381D01*
X29940477Y-144500000D01*
X29988096Y-144547619D01*
X30035715Y-144642857D01*
X30035715Y-144738095D01*
X29988096Y-144880952D01*
X29416667Y-145452381D01*
X30035715Y-145452381D01*
X47083334Y-109357143D02*
X47035715Y-109404762D01*
X46892858Y-109452381D01*
X46797620Y-109452381D01*
X46654762Y-109404762D01*
X46559524Y-109309524D01*
X46511905Y-109214286D01*
X46464286Y-109023810D01*
X46464286Y-108880952D01*
X46511905Y-108690476D01*
X46559524Y-108595238D01*
X46654762Y-108500000D01*
X46797620Y-108452381D01*
X46892858Y-108452381D01*
X47035715Y-108500000D01*
X47083334Y-108547619D01*
X47416667Y-108452381D02*
X48035715Y-108452381D01*
X47702381Y-108833333D01*
X47845239Y-108833333D01*
X47940477Y-108880952D01*
X47988096Y-108928571D01*
X48035715Y-109023810D01*
X48035715Y-109261905D01*
X47988096Y-109357143D01*
X47940477Y-109404762D01*
X47845239Y-109452381D01*
X47559524Y-109452381D01*
X47464286Y-109404762D01*
X47416667Y-109357143D01*
X30083334Y-124607143D02*
X30035715Y-124654762D01*
X29892858Y-124702381D01*
X29797620Y-124702381D01*
X29654762Y-124654762D01*
X29559524Y-124559524D01*
X29511905Y-124464286D01*
X29464286Y-124273810D01*
X29464286Y-124130952D01*
X29511905Y-123940476D01*
X29559524Y-123845238D01*
X29654762Y-123750000D01*
X29797620Y-123702381D01*
X29892858Y-123702381D01*
X30035715Y-123750000D01*
X30083334Y-123797619D01*
X30940477Y-124035714D02*
X30940477Y-124702381D01*
X30702381Y-123654762D02*
X30464286Y-124369048D01*
X31083334Y-124369048D01*
X69833334Y-158857143D02*
X69785715Y-158904762D01*
X69642858Y-158952381D01*
X69547620Y-158952381D01*
X69404762Y-158904762D01*
X69309524Y-158809524D01*
X69261905Y-158714286D01*
X69214286Y-158523810D01*
X69214286Y-158380952D01*
X69261905Y-158190476D01*
X69309524Y-158095238D01*
X69404762Y-158000000D01*
X69547620Y-157952381D01*
X69642858Y-157952381D01*
X69785715Y-158000000D01*
X69833334Y-158047619D01*
X70738096Y-157952381D02*
X70261905Y-157952381D01*
X70214286Y-158428571D01*
X70261905Y-158380952D01*
X70357143Y-158333333D01*
X70595239Y-158333333D01*
X70690477Y-158380952D01*
X70738096Y-158428571D01*
X70785715Y-158523810D01*
X70785715Y-158761905D01*
X70738096Y-158857143D01*
X70690477Y-158904762D01*
X70595239Y-158952381D01*
X70357143Y-158952381D01*
X70261905Y-158904762D01*
X70214286Y-158857143D01*
X69833334Y-153857143D02*
X69785715Y-153904762D01*
X69642858Y-153952381D01*
X69547620Y-153952381D01*
X69404762Y-153904762D01*
X69309524Y-153809524D01*
X69261905Y-153714286D01*
X69214286Y-153523810D01*
X69214286Y-153380952D01*
X69261905Y-153190476D01*
X69309524Y-153095238D01*
X69404762Y-153000000D01*
X69547620Y-152952381D01*
X69642858Y-152952381D01*
X69785715Y-153000000D01*
X69833334Y-153047619D01*
X70690477Y-152952381D02*
X70500000Y-152952381D01*
X70404762Y-153000000D01*
X70357143Y-153047619D01*
X70261905Y-153190476D01*
X70214286Y-153380952D01*
X70214286Y-153761905D01*
X70261905Y-153857143D01*
X70309524Y-153904762D01*
X70404762Y-153952381D01*
X70595239Y-153952381D01*
X70690477Y-153904762D01*
X70738096Y-153857143D01*
X70785715Y-153761905D01*
X70785715Y-153523810D01*
X70738096Y-153428571D01*
X70690477Y-153380952D01*
X70595239Y-153333333D01*
X70404762Y-153333333D01*
X70309524Y-153380952D01*
X70261905Y-153428571D01*
X70214286Y-153523810D01*
X44857143Y-89666666D02*
X44904762Y-89714285D01*
X44952381Y-89857142D01*
X44952381Y-89952380D01*
X44904762Y-90095238D01*
X44809524Y-90190476D01*
X44714286Y-90238095D01*
X44523810Y-90285714D01*
X44380952Y-90285714D01*
X44190476Y-90238095D01*
X44095238Y-90190476D01*
X44000000Y-90095238D01*
X43952381Y-89952380D01*
X43952381Y-89857142D01*
X44000000Y-89714285D01*
X44047619Y-89666666D01*
X43952381Y-89333333D02*
X43952381Y-88666666D01*
X44952381Y-89095238D01*
X43107143Y-89666666D02*
X43154762Y-89714285D01*
X43202381Y-89857142D01*
X43202381Y-89952380D01*
X43154762Y-90095238D01*
X43059524Y-90190476D01*
X42964286Y-90238095D01*
X42773810Y-90285714D01*
X42630952Y-90285714D01*
X42440476Y-90238095D01*
X42345238Y-90190476D01*
X42250000Y-90095238D01*
X42202381Y-89952380D01*
X42202381Y-89857142D01*
X42250000Y-89714285D01*
X42297619Y-89666666D01*
X42630952Y-89095238D02*
X42583333Y-89190476D01*
X42535714Y-89238095D01*
X42440476Y-89285714D01*
X42392857Y-89285714D01*
X42297619Y-89238095D01*
X42250000Y-89190476D01*
X42202381Y-89095238D01*
X42202381Y-88904761D01*
X42250000Y-88809523D01*
X42297619Y-88761904D01*
X42392857Y-88714285D01*
X42440476Y-88714285D01*
X42535714Y-88761904D01*
X42583333Y-88809523D01*
X42630952Y-88904761D01*
X42630952Y-89095238D01*
X42678571Y-89190476D01*
X42726190Y-89238095D01*
X42821429Y-89285714D01*
X43011905Y-89285714D01*
X43107143Y-89238095D01*
X43154762Y-89190476D01*
X43202381Y-89095238D01*
X43202381Y-88904761D01*
X43154762Y-88809523D01*
X43107143Y-88761904D01*
X43011905Y-88714285D01*
X42821429Y-88714285D01*
X42726190Y-88761904D01*
X42678571Y-88809523D01*
X42630952Y-88904761D01*
X95357143Y-145416666D02*
X95404762Y-145464285D01*
X95452381Y-145607142D01*
X95452381Y-145702380D01*
X95404762Y-145845238D01*
X95309524Y-145940476D01*
X95214286Y-145988095D01*
X95023810Y-146035714D01*
X94880952Y-146035714D01*
X94690476Y-145988095D01*
X94595238Y-145940476D01*
X94500000Y-145845238D01*
X94452381Y-145702380D01*
X94452381Y-145607142D01*
X94500000Y-145464285D01*
X94547619Y-145416666D01*
X95452381Y-144940476D02*
X95452381Y-144750000D01*
X95404762Y-144654761D01*
X95357143Y-144607142D01*
X95214286Y-144511904D01*
X95023810Y-144464285D01*
X94642857Y-144464285D01*
X94547619Y-144511904D01*
X94500000Y-144559523D01*
X94452381Y-144654761D01*
X94452381Y-144845238D01*
X94500000Y-144940476D01*
X94547619Y-144988095D01*
X94642857Y-145035714D01*
X94880952Y-145035714D01*
X94976190Y-144988095D01*
X95023810Y-144940476D01*
X95071429Y-144845238D01*
X95071429Y-144654761D01*
X95023810Y-144559523D01*
X94976190Y-144511904D01*
X94880952Y-144464285D01*
X92607143Y-152107143D02*
X92559524Y-152154762D01*
X92416667Y-152202381D01*
X92321429Y-152202381D01*
X92178571Y-152154762D01*
X92083333Y-152059524D01*
X92035714Y-151964286D01*
X91988095Y-151773810D01*
X91988095Y-151630952D01*
X92035714Y-151440476D01*
X92083333Y-151345238D01*
X92178571Y-151250000D01*
X92321429Y-151202381D01*
X92416667Y-151202381D01*
X92559524Y-151250000D01*
X92607143Y-151297619D01*
X93559524Y-152202381D02*
X92988095Y-152202381D01*
X93273809Y-152202381D02*
X93273809Y-151202381D01*
X93178571Y-151345238D01*
X93083333Y-151440476D01*
X92988095Y-151488095D01*
X94178571Y-151202381D02*
X94273810Y-151202381D01*
X94369048Y-151250000D01*
X94416667Y-151297619D01*
X94464286Y-151392857D01*
X94511905Y-151583333D01*
X94511905Y-151821429D01*
X94464286Y-152011905D01*
X94416667Y-152107143D01*
X94369048Y-152154762D01*
X94273810Y-152202381D01*
X94178571Y-152202381D01*
X94083333Y-152154762D01*
X94035714Y-152107143D01*
X93988095Y-152011905D01*
X93940476Y-151821429D01*
X93940476Y-151583333D01*
X93988095Y-151392857D01*
X94035714Y-151297619D01*
X94083333Y-151250000D01*
X94178571Y-151202381D01*
X75357143Y-145892857D02*
X75404762Y-145940476D01*
X75452381Y-146083333D01*
X75452381Y-146178571D01*
X75404762Y-146321429D01*
X75309524Y-146416667D01*
X75214286Y-146464286D01*
X75023810Y-146511905D01*
X74880952Y-146511905D01*
X74690476Y-146464286D01*
X74595238Y-146416667D01*
X74500000Y-146321429D01*
X74452381Y-146178571D01*
X74452381Y-146083333D01*
X74500000Y-145940476D01*
X74547619Y-145892857D01*
X75452381Y-144940476D02*
X75452381Y-145511905D01*
X75452381Y-145226191D02*
X74452381Y-145226191D01*
X74595238Y-145321429D01*
X74690476Y-145416667D01*
X74738095Y-145511905D01*
X75452381Y-143988095D02*
X75452381Y-144559524D01*
X75452381Y-144273810D02*
X74452381Y-144273810D01*
X74595238Y-144369048D01*
X74690476Y-144464286D01*
X74738095Y-144559524D01*
X76607143Y-145892857D02*
X76654762Y-145940476D01*
X76702381Y-146083333D01*
X76702381Y-146178571D01*
X76654762Y-146321429D01*
X76559524Y-146416667D01*
X76464286Y-146464286D01*
X76273810Y-146511905D01*
X76130952Y-146511905D01*
X75940476Y-146464286D01*
X75845238Y-146416667D01*
X75750000Y-146321429D01*
X75702381Y-146178571D01*
X75702381Y-146083333D01*
X75750000Y-145940476D01*
X75797619Y-145892857D01*
X76702381Y-144940476D02*
X76702381Y-145511905D01*
X76702381Y-145226191D02*
X75702381Y-145226191D01*
X75845238Y-145321429D01*
X75940476Y-145416667D01*
X75988095Y-145511905D01*
X75797619Y-144559524D02*
X75750000Y-144511905D01*
X75702381Y-144416667D01*
X75702381Y-144178571D01*
X75750000Y-144083333D01*
X75797619Y-144035714D01*
X75892857Y-143988095D01*
X75988095Y-143988095D01*
X76130952Y-144035714D01*
X76702381Y-144607143D01*
X76702381Y-143988095D01*
X38357143Y-67857143D02*
X38309524Y-67904762D01*
X38166667Y-67952381D01*
X38071429Y-67952381D01*
X37928571Y-67904762D01*
X37833333Y-67809524D01*
X37785714Y-67714286D01*
X37738095Y-67523810D01*
X37738095Y-67380952D01*
X37785714Y-67190476D01*
X37833333Y-67095238D01*
X37928571Y-67000000D01*
X38071429Y-66952381D01*
X38166667Y-66952381D01*
X38309524Y-67000000D01*
X38357143Y-67047619D01*
X39309524Y-67952381D02*
X38738095Y-67952381D01*
X39023809Y-67952381D02*
X39023809Y-66952381D01*
X38928571Y-67095238D01*
X38833333Y-67190476D01*
X38738095Y-67238095D01*
X39642857Y-66952381D02*
X40261905Y-66952381D01*
X39928571Y-67333333D01*
X40071429Y-67333333D01*
X40166667Y-67380952D01*
X40214286Y-67428571D01*
X40261905Y-67523810D01*
X40261905Y-67761905D01*
X40214286Y-67857143D01*
X40166667Y-67904762D01*
X40071429Y-67952381D01*
X39785714Y-67952381D01*
X39690476Y-67904762D01*
X39642857Y-67857143D01*
X72857143Y-100857143D02*
X72809524Y-100904762D01*
X72666667Y-100952381D01*
X72571429Y-100952381D01*
X72428571Y-100904762D01*
X72333333Y-100809524D01*
X72285714Y-100714286D01*
X72238095Y-100523810D01*
X72238095Y-100380952D01*
X72285714Y-100190476D01*
X72333333Y-100095238D01*
X72428571Y-100000000D01*
X72571429Y-99952381D01*
X72666667Y-99952381D01*
X72809524Y-100000000D01*
X72857143Y-100047619D01*
X73809524Y-100952381D02*
X73238095Y-100952381D01*
X73523809Y-100952381D02*
X73523809Y-99952381D01*
X73428571Y-100095238D01*
X73333333Y-100190476D01*
X73238095Y-100238095D01*
X74666667Y-100285714D02*
X74666667Y-100952381D01*
X74428571Y-99904762D02*
X74190476Y-100619048D01*
X74809524Y-100619048D01*
X28607143Y-81607143D02*
X28559524Y-81654762D01*
X28416667Y-81702381D01*
X28321429Y-81702381D01*
X28178571Y-81654762D01*
X28083333Y-81559524D01*
X28035714Y-81464286D01*
X27988095Y-81273810D01*
X27988095Y-81130952D01*
X28035714Y-80940476D01*
X28083333Y-80845238D01*
X28178571Y-80750000D01*
X28321429Y-80702381D01*
X28416667Y-80702381D01*
X28559524Y-80750000D01*
X28607143Y-80797619D01*
X29559524Y-81702381D02*
X28988095Y-81702381D01*
X29273809Y-81702381D02*
X29273809Y-80702381D01*
X29178571Y-80845238D01*
X29083333Y-80940476D01*
X28988095Y-80988095D01*
X30464286Y-80702381D02*
X29988095Y-80702381D01*
X29940476Y-81178571D01*
X29988095Y-81130952D01*
X30083333Y-81083333D01*
X30321429Y-81083333D01*
X30416667Y-81130952D01*
X30464286Y-81178571D01*
X30511905Y-81273810D01*
X30511905Y-81511905D01*
X30464286Y-81607143D01*
X30416667Y-81654762D01*
X30321429Y-81702381D01*
X30083333Y-81702381D01*
X29988095Y-81654762D01*
X29940476Y-81607143D01*
X62357143Y-118357143D02*
X62309524Y-118404762D01*
X62166667Y-118452381D01*
X62071429Y-118452381D01*
X61928571Y-118404762D01*
X61833333Y-118309524D01*
X61785714Y-118214286D01*
X61738095Y-118023810D01*
X61738095Y-117880952D01*
X61785714Y-117690476D01*
X61833333Y-117595238D01*
X61928571Y-117500000D01*
X62071429Y-117452381D01*
X62166667Y-117452381D01*
X62309524Y-117500000D01*
X62357143Y-117547619D01*
X63309524Y-118452381D02*
X62738095Y-118452381D01*
X63023809Y-118452381D02*
X63023809Y-117452381D01*
X62928571Y-117595238D01*
X62833333Y-117690476D01*
X62738095Y-117738095D01*
X64166667Y-117452381D02*
X63976190Y-117452381D01*
X63880952Y-117500000D01*
X63833333Y-117547619D01*
X63738095Y-117690476D01*
X63690476Y-117880952D01*
X63690476Y-118261905D01*
X63738095Y-118357143D01*
X63785714Y-118404762D01*
X63880952Y-118452381D01*
X64071429Y-118452381D01*
X64166667Y-118404762D01*
X64214286Y-118357143D01*
X64261905Y-118261905D01*
X64261905Y-118023810D01*
X64214286Y-117928571D01*
X64166667Y-117880952D01*
X64071429Y-117833333D01*
X63880952Y-117833333D01*
X63785714Y-117880952D01*
X63738095Y-117928571D01*
X63690476Y-118023810D01*
X28875341Y-76305315D02*
X27875341Y-76305315D01*
X27875341Y-76067220D01*
X27922960Y-75924362D01*
X28018198Y-75829124D01*
X28113436Y-75781505D01*
X28303912Y-75733886D01*
X28446770Y-75733886D01*
X28637246Y-75781505D01*
X28732484Y-75829124D01*
X28827722Y-75924362D01*
X28875341Y-76067220D01*
X28875341Y-76305315D01*
X28875341Y-74781505D02*
X28875341Y-75352934D01*
X28875341Y-75067220D02*
X27875341Y-75067220D01*
X28018198Y-75162458D01*
X28113436Y-75257696D01*
X28161055Y-75352934D01*
X63625341Y-105805315D02*
X62625341Y-105805315D01*
X62625341Y-105567220D01*
X62672960Y-105424362D01*
X62768198Y-105329124D01*
X62863436Y-105281505D01*
X63053912Y-105233886D01*
X63196770Y-105233886D01*
X63387246Y-105281505D01*
X63482484Y-105329124D01*
X63577722Y-105424362D01*
X63625341Y-105567220D01*
X63625341Y-105805315D01*
X62720579Y-104852934D02*
X62672960Y-104805315D01*
X62625341Y-104710077D01*
X62625341Y-104471981D01*
X62672960Y-104376743D01*
X62720579Y-104329124D01*
X62815817Y-104281505D01*
X62911055Y-104281505D01*
X63053912Y-104329124D01*
X63625341Y-104900553D01*
X63625341Y-104281505D01*
X79302381Y-136833333D02*
X80016667Y-136833333D01*
X80159524Y-136880953D01*
X80254762Y-136976191D01*
X80302381Y-137119048D01*
X80302381Y-137214286D01*
X80302381Y-135833333D02*
X80302381Y-136404762D01*
X80302381Y-136119048D02*
X79302381Y-136119048D01*
X79445238Y-136214286D01*
X79540476Y-136309524D01*
X79588095Y-136404762D01*
X113916667Y-145802381D02*
X113916667Y-146516667D01*
X113869047Y-146659524D01*
X113773809Y-146754762D01*
X113630952Y-146802381D01*
X113535714Y-146802381D01*
X114345238Y-145897619D02*
X114392857Y-145850000D01*
X114488095Y-145802381D01*
X114726191Y-145802381D01*
X114821429Y-145850000D01*
X114869048Y-145897619D01*
X114916667Y-145992857D01*
X114916667Y-146088095D01*
X114869048Y-146230952D01*
X114297619Y-146802381D01*
X114916667Y-146802381D01*
X113666667Y-129302381D02*
X113666667Y-130016667D01*
X113619047Y-130159524D01*
X113523809Y-130254762D01*
X113380952Y-130302381D01*
X113285714Y-130302381D01*
X114047619Y-129302381D02*
X114666667Y-129302381D01*
X114333333Y-129683333D01*
X114476191Y-129683333D01*
X114571429Y-129730952D01*
X114619048Y-129778571D01*
X114666667Y-129873810D01*
X114666667Y-130111905D01*
X114619048Y-130207143D01*
X114571429Y-130254762D01*
X114476191Y-130302381D01*
X114190476Y-130302381D01*
X114095238Y-130254762D01*
X114047619Y-130207143D01*
X51666667Y-94052381D02*
X51666667Y-94766667D01*
X51619047Y-94909524D01*
X51523809Y-95004762D01*
X51380952Y-95052381D01*
X51285714Y-95052381D01*
X52571429Y-94385714D02*
X52571429Y-95052381D01*
X52333333Y-94004762D02*
X52095238Y-94719048D01*
X52714286Y-94719048D01*
X38666667Y-108352381D02*
X38666667Y-109066667D01*
X38619047Y-109209524D01*
X38523809Y-109304762D01*
X38380952Y-109352381D01*
X38285714Y-109352381D01*
X39619048Y-108352381D02*
X39142857Y-108352381D01*
X39095238Y-108828571D01*
X39142857Y-108780952D01*
X39238095Y-108733333D01*
X39476191Y-108733333D01*
X39571429Y-108780952D01*
X39619048Y-108828571D01*
X39666667Y-108923810D01*
X39666667Y-109161905D01*
X39619048Y-109257143D01*
X39571429Y-109304762D01*
X39476191Y-109352381D01*
X39238095Y-109352381D01*
X39142857Y-109304762D01*
X39095238Y-109257143D01*
X107802381Y-97083333D02*
X108516667Y-97083333D01*
X108659524Y-97130953D01*
X108754762Y-97226191D01*
X108802381Y-97369048D01*
X108802381Y-97464286D01*
X107802381Y-96178571D02*
X107802381Y-96369048D01*
X107850000Y-96464286D01*
X107897619Y-96511905D01*
X108040476Y-96607143D01*
X108230952Y-96654762D01*
X108611905Y-96654762D01*
X108707143Y-96607143D01*
X108754762Y-96559524D01*
X108802381Y-96464286D01*
X108802381Y-96273809D01*
X108754762Y-96178571D01*
X108707143Y-96130952D01*
X108611905Y-96083333D01*
X108373810Y-96083333D01*
X108278571Y-96130952D01*
X108230952Y-96178571D01*
X108183333Y-96273809D01*
X108183333Y-96464286D01*
X108230952Y-96559524D01*
X108278571Y-96607143D01*
X108373810Y-96654762D01*
X87602381Y-43583333D02*
X88316667Y-43583333D01*
X88459524Y-43630953D01*
X88554762Y-43726191D01*
X88602381Y-43869048D01*
X88602381Y-43964286D01*
X87602381Y-43202381D02*
X87602381Y-42535714D01*
X88602381Y-42964286D01*
X50999181Y-116768066D02*
X50999181Y-117244257D01*
X49999181Y-117244257D01*
X50999181Y-115910923D02*
X50999181Y-116482352D01*
X50999181Y-116196638D02*
X49999181Y-116196638D01*
X50142038Y-116291876D01*
X50237276Y-116387114D01*
X50284895Y-116482352D01*
X44249181Y-117018066D02*
X44249181Y-117494257D01*
X43249181Y-117494257D01*
X43344419Y-116732352D02*
X43296800Y-116684733D01*
X43249181Y-116589495D01*
X43249181Y-116351399D01*
X43296800Y-116256161D01*
X43344419Y-116208542D01*
X43439657Y-116160923D01*
X43534895Y-116160923D01*
X43677752Y-116208542D01*
X44249181Y-116779971D01*
X44249181Y-116160923D01*
X34499181Y-133268066D02*
X34499181Y-133744257D01*
X33499181Y-133744257D01*
X33499181Y-133029971D02*
X33499181Y-132410923D01*
X33880133Y-132744257D01*
X33880133Y-132601399D01*
X33927752Y-132506161D01*
X33975371Y-132458542D01*
X34070610Y-132410923D01*
X34308705Y-132410923D01*
X34403943Y-132458542D01*
X34451562Y-132506161D01*
X34499181Y-132601399D01*
X34499181Y-132887114D01*
X34451562Y-132982352D01*
X34403943Y-133029971D01*
X27499181Y-133268066D02*
X27499181Y-133744257D01*
X26499181Y-133744257D01*
X26832514Y-132506161D02*
X27499181Y-132506161D01*
X26451562Y-132744257D02*
X27165848Y-132982352D01*
X27165848Y-132363304D01*
X30702501Y-76225586D02*
X30702501Y-76701777D01*
X29702501Y-76701777D01*
X29702501Y-75416062D02*
X29702501Y-75892253D01*
X30178691Y-75939872D01*
X30131072Y-75892253D01*
X30083453Y-75797015D01*
X30083453Y-75558919D01*
X30131072Y-75463681D01*
X30178691Y-75416062D01*
X30273930Y-75368443D01*
X30512025Y-75368443D01*
X30607263Y-75416062D01*
X30654882Y-75463681D01*
X30702501Y-75558919D01*
X30702501Y-75797015D01*
X30654882Y-75892253D01*
X30607263Y-75939872D01*
X65702501Y-107245586D02*
X65702501Y-107721777D01*
X64702501Y-107721777D01*
X64702501Y-106483681D02*
X64702501Y-106674158D01*
X64750120Y-106769396D01*
X64797739Y-106817015D01*
X64940596Y-106912253D01*
X65131072Y-106959872D01*
X65512025Y-106959872D01*
X65607263Y-106912253D01*
X65654882Y-106864634D01*
X65702501Y-106769396D01*
X65702501Y-106578919D01*
X65654882Y-106483681D01*
X65607263Y-106436062D01*
X65512025Y-106388443D01*
X65273930Y-106388443D01*
X65178691Y-106436062D01*
X65131072Y-106483681D01*
X65083453Y-106578919D01*
X65083453Y-106769396D01*
X65131072Y-106864634D01*
X65178691Y-106912253D01*
X65273930Y-106959872D01*
X54302381Y-131809524D02*
X53302381Y-131809524D01*
X54016667Y-131476190D01*
X53302381Y-131142857D01*
X54302381Y-131142857D01*
X54302381Y-130142857D02*
X54302381Y-130714286D01*
X54302381Y-130428572D02*
X53302381Y-130428572D01*
X53445238Y-130523810D01*
X53540476Y-130619048D01*
X53588095Y-130714286D01*
X25940476Y-154302381D02*
X25940476Y-153302381D01*
X26273810Y-154016667D01*
X26607143Y-153302381D01*
X26607143Y-154302381D01*
X27035714Y-153397619D02*
X27083333Y-153350000D01*
X27178571Y-153302381D01*
X27416667Y-153302381D01*
X27511905Y-153350000D01*
X27559524Y-153397619D01*
X27607143Y-153492857D01*
X27607143Y-153588095D01*
X27559524Y-153730952D01*
X26988095Y-154302381D01*
X27607143Y-154302381D01*
X113190476Y-124352381D02*
X113190476Y-123352381D01*
X113523810Y-124066667D01*
X113857143Y-123352381D01*
X113857143Y-124352381D01*
X114238095Y-123352381D02*
X114857143Y-123352381D01*
X114523809Y-123733333D01*
X114666667Y-123733333D01*
X114761905Y-123780952D01*
X114809524Y-123828571D01*
X114857143Y-123923810D01*
X114857143Y-124161905D01*
X114809524Y-124257143D01*
X114761905Y-124304762D01*
X114666667Y-124352381D01*
X114380952Y-124352381D01*
X114285714Y-124304762D01*
X114238095Y-124257143D01*
X109702501Y-138745586D02*
X109226310Y-139078920D01*
X109702501Y-139317015D02*
X108702501Y-139317015D01*
X108702501Y-138936062D01*
X108750120Y-138840824D01*
X108797739Y-138793205D01*
X108892977Y-138745586D01*
X109035834Y-138745586D01*
X109131072Y-138793205D01*
X109178691Y-138840824D01*
X109226310Y-138936062D01*
X109226310Y-139317015D01*
X109702501Y-137793205D02*
X109702501Y-138364634D01*
X109702501Y-138078920D02*
X108702501Y-138078920D01*
X108845358Y-138174158D01*
X108940596Y-138269396D01*
X108988215Y-138364634D01*
X106702261Y-130087746D02*
X106226070Y-130421080D01*
X106702261Y-130659175D02*
X105702261Y-130659175D01*
X105702261Y-130278222D01*
X105749880Y-130182984D01*
X105797499Y-130135365D01*
X105892737Y-130087746D01*
X106035594Y-130087746D01*
X106130832Y-130135365D01*
X106178451Y-130182984D01*
X106226070Y-130278222D01*
X106226070Y-130659175D01*
X105797499Y-129706794D02*
X105749880Y-129659175D01*
X105702261Y-129563937D01*
X105702261Y-129325841D01*
X105749880Y-129230603D01*
X105797499Y-129182984D01*
X105892737Y-129135365D01*
X105987975Y-129135365D01*
X106130832Y-129182984D01*
X106702261Y-129754413D01*
X106702261Y-129135365D01*
X36333334Y-55453281D02*
X36000000Y-54977090D01*
X35761905Y-55453281D02*
X35761905Y-54453281D01*
X36142858Y-54453281D01*
X36238096Y-54500900D01*
X36285715Y-54548519D01*
X36333334Y-54643757D01*
X36333334Y-54786614D01*
X36285715Y-54881852D01*
X36238096Y-54929471D01*
X36142858Y-54977090D01*
X35761905Y-54977090D01*
X36666667Y-54453281D02*
X37285715Y-54453281D01*
X36952381Y-54834233D01*
X37095239Y-54834233D01*
X37190477Y-54881852D01*
X37238096Y-54929471D01*
X37285715Y-55024710D01*
X37285715Y-55262805D01*
X37238096Y-55358043D01*
X37190477Y-55405662D01*
X37095239Y-55453281D01*
X36809524Y-55453281D01*
X36714286Y-55405662D01*
X36666667Y-55358043D01*
X36333334Y-48453281D02*
X36000000Y-47977090D01*
X35761905Y-48453281D02*
X35761905Y-47453281D01*
X36142858Y-47453281D01*
X36238096Y-47500900D01*
X36285715Y-47548519D01*
X36333334Y-47643757D01*
X36333334Y-47786614D01*
X36285715Y-47881852D01*
X36238096Y-47929471D01*
X36142858Y-47977090D01*
X35761905Y-47977090D01*
X37190477Y-47786614D02*
X37190477Y-48453281D01*
X36952381Y-47405662D02*
X36714286Y-48119948D01*
X37333334Y-48119948D01*
X41043334Y-89044381D02*
X40710000Y-88568190D01*
X40471905Y-89044381D02*
X40471905Y-88044381D01*
X40852858Y-88044381D01*
X40948096Y-88092000D01*
X40995715Y-88139619D01*
X41043334Y-88234857D01*
X41043334Y-88377714D01*
X40995715Y-88472952D01*
X40948096Y-88520571D01*
X40852858Y-88568190D01*
X40471905Y-88568190D01*
X41948096Y-88044381D02*
X41471905Y-88044381D01*
X41424286Y-88520571D01*
X41471905Y-88472952D01*
X41567143Y-88425333D01*
X41805239Y-88425333D01*
X41900477Y-88472952D01*
X41948096Y-88520571D01*
X41995715Y-88615810D01*
X41995715Y-88853905D01*
X41948096Y-88949143D01*
X41900477Y-88996762D01*
X41805239Y-89044381D01*
X41567143Y-89044381D01*
X41471905Y-88996762D01*
X41424286Y-88949143D01*
X50202501Y-73245586D02*
X49726310Y-73578920D01*
X50202501Y-73817015D02*
X49202501Y-73817015D01*
X49202501Y-73436062D01*
X49250120Y-73340824D01*
X49297739Y-73293205D01*
X49392977Y-73245586D01*
X49535834Y-73245586D01*
X49631072Y-73293205D01*
X49678691Y-73340824D01*
X49726310Y-73436062D01*
X49726310Y-73817015D01*
X49202501Y-72388443D02*
X49202501Y-72578920D01*
X49250120Y-72674158D01*
X49297739Y-72721777D01*
X49440596Y-72817015D01*
X49631072Y-72864634D01*
X50012025Y-72864634D01*
X50107263Y-72817015D01*
X50154882Y-72769396D01*
X50202501Y-72674158D01*
X50202501Y-72483681D01*
X50154882Y-72388443D01*
X50107263Y-72340824D01*
X50012025Y-72293205D01*
X49773930Y-72293205D01*
X49678691Y-72340824D01*
X49631072Y-72388443D01*
X49583453Y-72483681D01*
X49583453Y-72674158D01*
X49631072Y-72769396D01*
X49678691Y-72817015D01*
X49773930Y-72864634D01*
X109488095Y-150802381D02*
X109488095Y-151611905D01*
X109535714Y-151707143D01*
X109583333Y-151754762D01*
X109678571Y-151802381D01*
X109869048Y-151802381D01*
X109964286Y-151754762D01*
X110011905Y-151707143D01*
X110059524Y-151611905D01*
X110059524Y-150802381D01*
X111059524Y-151802381D02*
X110488095Y-151802381D01*
X110773809Y-151802381D02*
X110773809Y-150802381D01*
X110678571Y-150945238D01*
X110583333Y-151040476D01*
X110488095Y-151088095D01*
X30113095Y-85107381D02*
X30113095Y-85916905D01*
X30160714Y-86012143D01*
X30208333Y-86059762D01*
X30303571Y-86107381D01*
X30494048Y-86107381D01*
X30589286Y-86059762D01*
X30636905Y-86012143D01*
X30684524Y-85916905D01*
X30684524Y-85107381D01*
X31113095Y-85202619D02*
X31160714Y-85155000D01*
X31255952Y-85107381D01*
X31494048Y-85107381D01*
X31589286Y-85155000D01*
X31636905Y-85202619D01*
X31684524Y-85297857D01*
X31684524Y-85393095D01*
X31636905Y-85535952D01*
X31065476Y-86107381D01*
X31684524Y-86107381D01*
X80238095Y-122982381D02*
X80238095Y-123791905D01*
X80285714Y-123887143D01*
X80333333Y-123934762D01*
X80428571Y-123982381D01*
X80619048Y-123982381D01*
X80714286Y-123934762D01*
X80761905Y-123887143D01*
X80809524Y-123791905D01*
X80809524Y-122982381D01*
X81190476Y-122982381D02*
X81809524Y-122982381D01*
X81476190Y-123363333D01*
X81619048Y-123363333D01*
X81714286Y-123410952D01*
X81761905Y-123458571D01*
X81809524Y-123553810D01*
X81809524Y-123791905D01*
X81761905Y-123887143D01*
X81714286Y-123934762D01*
X81619048Y-123982381D01*
X81333333Y-123982381D01*
X81238095Y-123934762D01*
X81190476Y-123887143D01*
X115302381Y-103511905D02*
X116111905Y-103511905D01*
X116207143Y-103464286D01*
X116254762Y-103416667D01*
X116302381Y-103321429D01*
X116302381Y-103130952D01*
X116254762Y-103035714D01*
X116207143Y-102988095D01*
X116111905Y-102940476D01*
X115302381Y-102940476D01*
X115635714Y-102035714D02*
X116302381Y-102035714D01*
X115254762Y-102273810D02*
X115969048Y-102511905D01*
X115969048Y-101892857D01*
X43532381Y-73761905D02*
X44341905Y-73761905D01*
X44437143Y-73714286D01*
X44484762Y-73666667D01*
X44532381Y-73571429D01*
X44532381Y-73380952D01*
X44484762Y-73285714D01*
X44437143Y-73238095D01*
X44341905Y-73190476D01*
X43532381Y-73190476D01*
X43532381Y-72238095D02*
X43532381Y-72714286D01*
X44008571Y-72761905D01*
X43960952Y-72714286D01*
X43913333Y-72619048D01*
X43913333Y-72380952D01*
X43960952Y-72285714D01*
X44008571Y-72238095D01*
X44103810Y-72190476D01*
X44341905Y-72190476D01*
X44437143Y-72238095D01*
X44484762Y-72285714D01*
X44532381Y-72380952D01*
X44532381Y-72619048D01*
X44484762Y-72714286D01*
X44437143Y-72761905D01*
X35642381Y-66364285D02*
X35642381Y-66935714D01*
X35642381Y-66650000D02*
X34642381Y-66650000D01*
X34785238Y-66745238D01*
X34880476Y-66840476D01*
X34928095Y-66935714D01*
X78782381Y-107261905D02*
X79591905Y-107261905D01*
X79687143Y-107214286D01*
X79734762Y-107166667D01*
X79782381Y-107071429D01*
X79782381Y-106880952D01*
X79734762Y-106785714D01*
X79687143Y-106738095D01*
X79591905Y-106690476D01*
X78782381Y-106690476D01*
X78782381Y-105785714D02*
X78782381Y-105976191D01*
X78830000Y-106071429D01*
X78877619Y-106119048D01*
X79020476Y-106214286D01*
X79210952Y-106261905D01*
X79591905Y-106261905D01*
X79687143Y-106214286D01*
X79734762Y-106166667D01*
X79782381Y-106071429D01*
X79782381Y-105880952D01*
X79734762Y-105785714D01*
X79687143Y-105738095D01*
X79591905Y-105690476D01*
X79353810Y-105690476D01*
X79258571Y-105738095D01*
X79210952Y-105785714D01*
X79163333Y-105880952D01*
X79163333Y-106071429D01*
X79210952Y-106166667D01*
X79258571Y-106214286D01*
X79353810Y-106261905D01*
X70892381Y-99864285D02*
X70892381Y-100435714D01*
X70892381Y-100150000D02*
X69892381Y-100150000D01*
X70035238Y-100245238D01*
X70130476Y-100340476D01*
X70178095Y-100435714D01*
X25602381Y-42511905D02*
X26411905Y-42511905D01*
X26507143Y-42464286D01*
X26554762Y-42416667D01*
X26602381Y-42321429D01*
X26602381Y-42130952D01*
X26554762Y-42035714D01*
X26507143Y-41988095D01*
X26411905Y-41940476D01*
X25602381Y-41940476D01*
X25602381Y-41559524D02*
X25602381Y-40892857D01*
X26602381Y-41321429D01*
X72916190Y-154226191D02*
X73392381Y-154226191D01*
X72392381Y-154559524D02*
X72916190Y-154226191D01*
X72392381Y-153892857D01*
X73392381Y-153035714D02*
X73392381Y-153607143D01*
X73392381Y-153321429D02*
X72392381Y-153321429D01*
X72535238Y-153416667D01*
X72630476Y-153511905D01*
X72678095Y-153607143D01*
X26381771Y-44184314D02*
X26429390Y-44041457D01*
X26477010Y-43993838D01*
X26572248Y-43946219D01*
X26715105Y-43946219D01*
X26810343Y-43993838D01*
X26857962Y-44041457D01*
X26905581Y-44136695D01*
X26905581Y-44517648D01*
X25905581Y-44517648D01*
X25905581Y-44184314D01*
X25953200Y-44089076D01*
X26000819Y-44041457D01*
X26096057Y-43993838D01*
X26191295Y-43993838D01*
X26286533Y-44041457D01*
X26334152Y-44089076D01*
X26381771Y-44184314D01*
X26381771Y-44517648D01*
X25905581Y-43660505D02*
X25905581Y-43089076D01*
X26905581Y-43374791D02*
X25905581Y-43374791D01*
X26905581Y-42231933D02*
X26905581Y-42803362D01*
X26905581Y-42517648D02*
X25905581Y-42517648D01*
X26048438Y-42612886D01*
X26143676Y-42708124D01*
X26191295Y-42803362D01*
M02*
