G04 #@! TF.FileFunction,Legend,Top*
%FSLAX46Y46*%
G04 Gerber Fmt 4.6, Leading zero omitted, Abs format (unit mm)*
G04 Created by KiCad (PCBNEW 4.0.5) date 2018 March 07, Wednesday 08:14:06*
%MOMM*%
%LPD*%
G01*
G04 APERTURE LIST*
%ADD10C,0.100000*%
%ADD11C,0.150000*%
G04 APERTURE END LIST*
D10*
D11*
X51000000Y-128000000D02*
X44000000Y-128000000D01*
X44000000Y-128000000D02*
X44000000Y-126000000D01*
X44000000Y-126000000D02*
X51000000Y-126000000D01*
X51000000Y-126000000D02*
X51000000Y-128000000D01*
X32750000Y-143750000D02*
X25750000Y-143750000D01*
X25750000Y-143750000D02*
X25750000Y-141750000D01*
X25750000Y-141750000D02*
X32750000Y-141750000D01*
X32750000Y-141750000D02*
X32750000Y-143750000D01*
X49250000Y-107750000D02*
X45250000Y-107750000D01*
X49250000Y-105250000D02*
X45250000Y-105250000D01*
X32250000Y-123000000D02*
X28250000Y-123000000D01*
X32250000Y-120500000D02*
X28250000Y-120500000D01*
X73500000Y-157250000D02*
X66500000Y-157250000D01*
X66500000Y-157250000D02*
X66500000Y-155250000D01*
X66500000Y-155250000D02*
X73500000Y-155250000D01*
X73500000Y-155250000D02*
X73500000Y-157250000D01*
X73500000Y-152250000D02*
X66500000Y-152250000D01*
X66500000Y-152250000D02*
X66500000Y-150250000D01*
X66500000Y-150250000D02*
X73500000Y-150250000D01*
X73500000Y-150250000D02*
X73500000Y-152250000D01*
X43250000Y-87500000D02*
X43250000Y-91500000D01*
X40750000Y-87500000D02*
X40750000Y-91500000D01*
X44000000Y-91500000D02*
X44000000Y-87500000D01*
X46500000Y-91500000D02*
X46500000Y-87500000D01*
X93750000Y-143250000D02*
X93750000Y-147250000D01*
X91250000Y-143250000D02*
X91250000Y-147250000D01*
X95250000Y-150500000D02*
X91250000Y-150500000D01*
X95250000Y-148000000D02*
X91250000Y-148000000D01*
X76250000Y-147250000D02*
X76250000Y-143250000D01*
X78750000Y-147250000D02*
X78750000Y-143250000D01*
X75000000Y-143250000D02*
X75000000Y-147250000D01*
X72500000Y-143250000D02*
X72500000Y-147250000D01*
X42500000Y-66250000D02*
X35500000Y-66250000D01*
X35500000Y-66250000D02*
X35500000Y-64250000D01*
X35500000Y-64250000D02*
X42500000Y-64250000D01*
X42500000Y-64250000D02*
X42500000Y-66250000D01*
X75500000Y-99250000D02*
X71500000Y-99250000D01*
X75500000Y-96750000D02*
X71500000Y-96750000D01*
X27250000Y-82500000D02*
X31250000Y-82500000D01*
X27250000Y-85000000D02*
X31250000Y-85000000D01*
X59500000Y-119250000D02*
X66500000Y-119250000D01*
X66500000Y-119250000D02*
X66500000Y-121750000D01*
X66500000Y-121750000D02*
X59500000Y-121750000D01*
X59500000Y-121750000D02*
X59500000Y-119250000D01*
X33502960Y-80693220D02*
X33502960Y-82217220D01*
X33502960Y-71549220D02*
X33502960Y-70025220D01*
X36296960Y-72565220D02*
X30708960Y-72565220D01*
X36296960Y-72311220D02*
X30708960Y-72311220D01*
X36296960Y-72057220D02*
X30708960Y-72057220D01*
X30708960Y-71549220D02*
X36296960Y-71549220D01*
X36296960Y-71549220D02*
X36296960Y-80693220D01*
X36296960Y-80693220D02*
X30708960Y-80693220D01*
X30708960Y-80693220D02*
X30708960Y-71549220D01*
X68252960Y-110193220D02*
X68252960Y-111717220D01*
X68252960Y-101049220D02*
X68252960Y-99525220D01*
X71046960Y-102065220D02*
X65458960Y-102065220D01*
X71046960Y-101811220D02*
X65458960Y-101811220D01*
X71046960Y-101557220D02*
X65458960Y-101557220D01*
X65458960Y-101049220D02*
X71046960Y-101049220D01*
X71046960Y-101049220D02*
X71046960Y-110193220D01*
X71046960Y-110193220D02*
X65458960Y-110193220D01*
X65458960Y-110193220D02*
X65458960Y-101049220D01*
X74750000Y-134950000D02*
X76300000Y-134950000D01*
X76300000Y-134950000D02*
X76300000Y-138050000D01*
X76300000Y-138050000D02*
X74750000Y-138050000D01*
X73480000Y-137770000D02*
X63320000Y-137770000D01*
X63320000Y-137770000D02*
X63320000Y-135230000D01*
X63320000Y-135230000D02*
X73480000Y-135230000D01*
X73480000Y-137770000D02*
X73480000Y-135230000D01*
X112980000Y-139980000D02*
X112980000Y-137440000D01*
X112700000Y-142800000D02*
X112700000Y-141250000D01*
X112980000Y-139980000D02*
X115520000Y-139980000D01*
X115800000Y-141250000D02*
X115800000Y-142800000D01*
X115800000Y-142800000D02*
X112700000Y-142800000D01*
X115520000Y-139980000D02*
X115520000Y-137440000D01*
X115520000Y-137440000D02*
X112980000Y-137440000D01*
X112730000Y-123480000D02*
X112730000Y-120940000D01*
X112450000Y-126300000D02*
X112450000Y-124750000D01*
X112730000Y-123480000D02*
X115270000Y-123480000D01*
X115550000Y-124750000D02*
X115550000Y-126300000D01*
X115550000Y-126300000D02*
X112450000Y-126300000D01*
X115270000Y-123480000D02*
X115270000Y-120940000D01*
X115270000Y-120940000D02*
X112730000Y-120940000D01*
X53270000Y-88230000D02*
X53270000Y-80610000D01*
X50730000Y-88230000D02*
X50730000Y-80610000D01*
X50450000Y-91050000D02*
X50450000Y-89500000D01*
X53270000Y-80610000D02*
X50730000Y-80610000D01*
X50730000Y-88230000D02*
X53270000Y-88230000D01*
X53550000Y-89500000D02*
X53550000Y-91050000D01*
X53550000Y-91050000D02*
X50450000Y-91050000D01*
X37730000Y-115270000D02*
X37730000Y-122890000D01*
X40270000Y-115270000D02*
X40270000Y-122890000D01*
X40550000Y-112450000D02*
X40550000Y-114000000D01*
X37730000Y-122890000D02*
X40270000Y-122890000D01*
X40270000Y-115270000D02*
X37730000Y-115270000D01*
X37450000Y-114000000D02*
X37450000Y-112450000D01*
X37450000Y-112450000D02*
X40550000Y-112450000D01*
X101980000Y-95480000D02*
X96900000Y-95480000D01*
X96900000Y-95480000D02*
X96900000Y-98020000D01*
X96900000Y-98020000D02*
X101980000Y-98020000D01*
X104800000Y-98300000D02*
X103250000Y-98300000D01*
X101980000Y-98020000D02*
X101980000Y-95480000D01*
X103250000Y-95200000D02*
X104800000Y-95200000D01*
X104800000Y-95200000D02*
X104800000Y-98300000D01*
X94520000Y-41980000D02*
X97060000Y-41980000D01*
X91700000Y-41700000D02*
X93250000Y-41700000D01*
X94520000Y-41980000D02*
X94520000Y-44520000D01*
X93250000Y-44800000D02*
X91700000Y-44800000D01*
X91700000Y-44800000D02*
X91700000Y-41700000D01*
X94520000Y-44520000D02*
X97060000Y-44520000D01*
X97060000Y-44520000D02*
X97060000Y-41980000D01*
X28020000Y-73270000D02*
X28020000Y-78350000D01*
X28020000Y-78350000D02*
X25480000Y-78350000D01*
X25480000Y-78350000D02*
X25480000Y-73270000D01*
X25480000Y-73270000D02*
X28020000Y-73270000D01*
X63020000Y-104290000D02*
X63020000Y-109370000D01*
X63020000Y-109370000D02*
X60480000Y-109370000D01*
X60480000Y-109370000D02*
X60480000Y-104290000D01*
X60480000Y-104290000D02*
X63020000Y-104290000D01*
X61750000Y-104290000D02*
X61750000Y-103020000D01*
X61750000Y-109370000D02*
X61750000Y-110640000D01*
X47480000Y-132270000D02*
X44940000Y-132270000D01*
X50300000Y-132550000D02*
X48750000Y-132550000D01*
X47480000Y-132270000D02*
X47480000Y-129730000D01*
X48750000Y-129450000D02*
X50300000Y-129450000D01*
X50300000Y-129450000D02*
X50300000Y-132550000D01*
X47480000Y-129730000D02*
X44940000Y-129730000D01*
X44940000Y-129730000D02*
X44940000Y-132270000D01*
X25480000Y-147480000D02*
X25480000Y-144940000D01*
X25200000Y-150300000D02*
X25200000Y-148750000D01*
X25480000Y-147480000D02*
X28020000Y-147480000D01*
X28300000Y-148750000D02*
X28300000Y-150300000D01*
X28300000Y-150300000D02*
X25200000Y-150300000D01*
X28020000Y-147480000D02*
X28020000Y-144940000D01*
X28020000Y-144940000D02*
X25480000Y-144940000D01*
X112730000Y-130270000D02*
X112730000Y-135350000D01*
X112730000Y-135350000D02*
X115270000Y-135350000D01*
X115270000Y-135350000D02*
X115270000Y-130270000D01*
X115550000Y-127450000D02*
X115550000Y-129000000D01*
X115270000Y-130270000D02*
X112730000Y-130270000D01*
X112450000Y-129000000D02*
X112450000Y-127450000D01*
X112450000Y-127450000D02*
X115550000Y-127450000D01*
X107020000Y-135790000D02*
X107020000Y-140870000D01*
X107020000Y-140870000D02*
X104480000Y-140870000D01*
X104480000Y-140870000D02*
X104480000Y-135790000D01*
X104480000Y-135790000D02*
X107020000Y-135790000D01*
X105750000Y-135790000D02*
X105750000Y-134520000D01*
X105750000Y-140870000D02*
X105750000Y-142140000D01*
X108480000Y-132710000D02*
X108480000Y-127630000D01*
X108480000Y-127630000D02*
X111020000Y-127630000D01*
X111020000Y-127630000D02*
X111020000Y-132710000D01*
X111020000Y-132710000D02*
X108480000Y-132710000D01*
X109750000Y-132710000D02*
X109750000Y-133980000D01*
X109750000Y-127630000D02*
X109750000Y-126360000D01*
X28880000Y-57960000D02*
X28880000Y-63040000D01*
X28880000Y-63040000D02*
X44120000Y-63040000D01*
X44120000Y-63040000D02*
X44120000Y-60500000D01*
X44120000Y-60500000D02*
X44120000Y-57960000D01*
X44120000Y-57960000D02*
X28880000Y-57960000D01*
X45230000Y-60500000D02*
X44120000Y-60500000D01*
X27770000Y-60500000D02*
X28880000Y-60500000D01*
X28880000Y-50960000D02*
X28880000Y-56040000D01*
X28880000Y-56040000D02*
X44120000Y-56040000D01*
X44120000Y-56040000D02*
X44120000Y-53500000D01*
X44120000Y-53500000D02*
X44120000Y-50960000D01*
X44120000Y-50960000D02*
X28880000Y-50960000D01*
X45230000Y-53500000D02*
X44120000Y-53500000D01*
X27770000Y-53500000D02*
X28880000Y-53500000D01*
X46725000Y-86310000D02*
X37195000Y-86310000D01*
X37195000Y-86310000D02*
X37195000Y-81480000D01*
X37195000Y-81860000D02*
X46725000Y-81860000D01*
X46725000Y-86310000D02*
X46725000Y-81480000D01*
X47520000Y-70290000D02*
X47520000Y-75370000D01*
X47520000Y-75370000D02*
X44980000Y-75370000D01*
X44980000Y-75370000D02*
X44980000Y-70290000D01*
X44980000Y-70290000D02*
X47520000Y-70290000D01*
X46250000Y-70290000D02*
X46250000Y-69020000D01*
X46250000Y-75370000D02*
X46250000Y-76640000D01*
X111520000Y-144980000D02*
X111520000Y-137360000D01*
X108980000Y-144980000D02*
X108980000Y-137360000D01*
X108700000Y-147800000D02*
X108700000Y-146250000D01*
X111520000Y-137360000D02*
X108980000Y-137360000D01*
X108980000Y-144980000D02*
X111520000Y-144980000D01*
X111800000Y-146250000D02*
X111800000Y-147800000D01*
X111800000Y-147800000D02*
X108700000Y-147800000D01*
X31010000Y-88580000D02*
X31010000Y-89850000D01*
X38360000Y-88580000D02*
X38360000Y-89850000D01*
X38360000Y-110950000D02*
X38360000Y-109680000D01*
X31010000Y-110950000D02*
X31010000Y-109680000D01*
X31010000Y-88580000D02*
X38360000Y-88580000D01*
X31010000Y-110950000D02*
X38360000Y-110950000D01*
X31010000Y-89850000D02*
X30075000Y-89850000D01*
X81135000Y-126455000D02*
X81135000Y-127725000D01*
X88485000Y-126455000D02*
X88485000Y-127725000D01*
X88485000Y-164065000D02*
X88485000Y-162795000D01*
X81135000Y-164065000D02*
X81135000Y-162795000D01*
X81135000Y-126455000D02*
X88485000Y-126455000D01*
X81135000Y-164065000D02*
X88485000Y-164065000D01*
X81135000Y-127725000D02*
X80200000Y-127725000D01*
X109480000Y-104020000D02*
X109480000Y-101480000D01*
X96780000Y-101480000D02*
X109480000Y-101480000D01*
X96780000Y-104020000D02*
X96780000Y-101480000D01*
X109480000Y-104020000D02*
X96780000Y-104020000D01*
X109480000Y-104020000D02*
X96780000Y-104020000D01*
X96780000Y-104020000D02*
X96780000Y-101480000D01*
X96780000Y-101480000D02*
X109480000Y-101480000D01*
X112300000Y-104300000D02*
X110750000Y-104300000D01*
X109480000Y-104020000D02*
X109480000Y-101480000D01*
X110750000Y-101200000D02*
X112300000Y-101200000D01*
X112300000Y-101200000D02*
X112300000Y-104300000D01*
X40998980Y-77599940D02*
X40998980Y-78300980D01*
X40998980Y-75600960D02*
X40998980Y-75900680D01*
X40998980Y-73800100D02*
X40998980Y-74000760D01*
X40998980Y-72100840D02*
X40998980Y-72199900D01*
X40998980Y-70200920D02*
X40998980Y-70299980D01*
X40998980Y-67699020D02*
X40998980Y-68400060D01*
X41999740Y-74501140D02*
X41301240Y-74501140D01*
X41999740Y-71498860D02*
X41301240Y-71498860D01*
X37199140Y-67699020D02*
X37199140Y-78300980D01*
X40905000Y-78334000D02*
X37222000Y-78334000D01*
X37222000Y-67666000D02*
X40905000Y-67666000D01*
X42048000Y-78334000D02*
X40905000Y-78334000D01*
X40905000Y-67666000D02*
X42048000Y-67666000D01*
X42048000Y-73000000D02*
X42048000Y-67666000D01*
X42048000Y-73000000D02*
X42048000Y-78334000D01*
X76248980Y-111099940D02*
X76248980Y-111800980D01*
X76248980Y-109100960D02*
X76248980Y-109400680D01*
X76248980Y-107300100D02*
X76248980Y-107500760D01*
X76248980Y-105600840D02*
X76248980Y-105699900D01*
X76248980Y-103700920D02*
X76248980Y-103799980D01*
X76248980Y-101199020D02*
X76248980Y-101900060D01*
X77249740Y-108001140D02*
X76551240Y-108001140D01*
X77249740Y-104998860D02*
X76551240Y-104998860D01*
X72449140Y-101199020D02*
X72449140Y-111800980D01*
X76155000Y-111834000D02*
X72472000Y-111834000D01*
X72472000Y-101166000D02*
X76155000Y-101166000D01*
X77298000Y-111834000D02*
X76155000Y-111834000D01*
X76155000Y-101166000D02*
X77298000Y-101166000D01*
X77298000Y-106500000D02*
X77298000Y-101166000D01*
X77298000Y-106500000D02*
X77298000Y-111834000D01*
X32520000Y-40480000D02*
X45220000Y-40480000D01*
X45220000Y-40480000D02*
X45220000Y-43020000D01*
X45220000Y-43020000D02*
X32520000Y-43020000D01*
X29700000Y-40200000D02*
X31250000Y-40200000D01*
X32520000Y-40480000D02*
X32520000Y-43020000D01*
X31250000Y-43300000D02*
X29700000Y-43300000D01*
X29700000Y-43300000D02*
X29700000Y-40200000D01*
X75749240Y-149051000D02*
X76150560Y-148850340D01*
X76150560Y-148850340D02*
X76750000Y-148748740D01*
X76750000Y-148748740D02*
X77250380Y-148850340D01*
X77250380Y-148850340D02*
X77948880Y-149249120D01*
X77948880Y-149249120D02*
X78350200Y-149851100D01*
X78350200Y-149851100D02*
X78550860Y-150450540D01*
X78550860Y-150450540D02*
X78550860Y-157049460D01*
X78550860Y-157049460D02*
X78350200Y-157750500D01*
X78350200Y-157750500D02*
X78050480Y-158149280D01*
X78050480Y-158149280D02*
X77550100Y-158550600D01*
X77550100Y-158550600D02*
X76950660Y-158751260D01*
X76950660Y-158751260D02*
X76450280Y-158751260D01*
X76450280Y-158751260D02*
X75949900Y-158550600D01*
X75949900Y-158550600D02*
X75350460Y-158050220D01*
X75350460Y-158050220D02*
X75050740Y-157549840D01*
X75050740Y-157549840D02*
X74949140Y-157049460D01*
X74949140Y-156950400D02*
X74949140Y-150348940D01*
X74949140Y-150348940D02*
X75050740Y-149950160D01*
X75050740Y-149950160D02*
X75350460Y-149449780D01*
X75350460Y-149449780D02*
X75850840Y-148949400D01*
X74420820Y-156940240D02*
X74469080Y-157399980D01*
X74469080Y-157399980D02*
X74580840Y-157798760D01*
X74580840Y-157798760D02*
X74799280Y-158230560D01*
X74799280Y-158230560D02*
X75030420Y-158520120D01*
X75030420Y-158520120D02*
X75380940Y-158850320D01*
X75380940Y-158850320D02*
X75919420Y-159139880D01*
X75919420Y-159139880D02*
X76518860Y-159269420D01*
X76518860Y-159269420D02*
X77029400Y-159269420D01*
X77029400Y-159269420D02*
X77730440Y-159099240D01*
X77730440Y-159099240D02*
X78319720Y-158700460D01*
X78319720Y-158700460D02*
X78690560Y-158240720D01*
X78690560Y-158240720D02*
X78898840Y-157819080D01*
X78898840Y-157819080D02*
X79058860Y-157369500D01*
X79058860Y-157369500D02*
X79089340Y-156930080D01*
X78870900Y-149589480D02*
X78649920Y-149211020D01*
X78649920Y-149211020D02*
X78370520Y-148890980D01*
X78370520Y-148890980D02*
X78040320Y-148639520D01*
X78040320Y-148639520D02*
X77489140Y-148339800D01*
X77489140Y-148339800D02*
X77019240Y-148230580D01*
X77019240Y-148230580D02*
X76559500Y-148210260D01*
X76559500Y-148210260D02*
X76099760Y-148299160D01*
X76099760Y-148299160D02*
X75650180Y-148489660D01*
X75650180Y-148489660D02*
X75180280Y-148850340D01*
X75180280Y-148850340D02*
X74860240Y-149200860D01*
X74860240Y-149200860D02*
X74629100Y-149589480D01*
X74629100Y-149589480D02*
X74489400Y-150018740D01*
X74489400Y-150018740D02*
X74420820Y-150460700D01*
X79079180Y-156950400D02*
X79079180Y-150498800D01*
X79079180Y-150498800D02*
X79041080Y-150079700D01*
X79041080Y-150079700D02*
X78870900Y-149589480D01*
X74420820Y-156950400D02*
X74420820Y-150498800D01*
X43357143Y-127166666D02*
X43404762Y-127214285D01*
X43452381Y-127357142D01*
X43452381Y-127452380D01*
X43404762Y-127595238D01*
X43309524Y-127690476D01*
X43214286Y-127738095D01*
X43023810Y-127785714D01*
X42880952Y-127785714D01*
X42690476Y-127738095D01*
X42595238Y-127690476D01*
X42500000Y-127595238D01*
X42452381Y-127452380D01*
X42452381Y-127357142D01*
X42500000Y-127214285D01*
X42547619Y-127166666D01*
X43452381Y-126214285D02*
X43452381Y-126785714D01*
X43452381Y-126500000D02*
X42452381Y-126500000D01*
X42595238Y-126595238D01*
X42690476Y-126690476D01*
X42738095Y-126785714D01*
X29083334Y-145357143D02*
X29035715Y-145404762D01*
X28892858Y-145452381D01*
X28797620Y-145452381D01*
X28654762Y-145404762D01*
X28559524Y-145309524D01*
X28511905Y-145214286D01*
X28464286Y-145023810D01*
X28464286Y-144880952D01*
X28511905Y-144690476D01*
X28559524Y-144595238D01*
X28654762Y-144500000D01*
X28797620Y-144452381D01*
X28892858Y-144452381D01*
X29035715Y-144500000D01*
X29083334Y-144547619D01*
X29464286Y-144547619D02*
X29511905Y-144500000D01*
X29607143Y-144452381D01*
X29845239Y-144452381D01*
X29940477Y-144500000D01*
X29988096Y-144547619D01*
X30035715Y-144642857D01*
X30035715Y-144738095D01*
X29988096Y-144880952D01*
X29416667Y-145452381D01*
X30035715Y-145452381D01*
X47083334Y-109357143D02*
X47035715Y-109404762D01*
X46892858Y-109452381D01*
X46797620Y-109452381D01*
X46654762Y-109404762D01*
X46559524Y-109309524D01*
X46511905Y-109214286D01*
X46464286Y-109023810D01*
X46464286Y-108880952D01*
X46511905Y-108690476D01*
X46559524Y-108595238D01*
X46654762Y-108500000D01*
X46797620Y-108452381D01*
X46892858Y-108452381D01*
X47035715Y-108500000D01*
X47083334Y-108547619D01*
X47416667Y-108452381D02*
X48035715Y-108452381D01*
X47702381Y-108833333D01*
X47845239Y-108833333D01*
X47940477Y-108880952D01*
X47988096Y-108928571D01*
X48035715Y-109023810D01*
X48035715Y-109261905D01*
X47988096Y-109357143D01*
X47940477Y-109404762D01*
X47845239Y-109452381D01*
X47559524Y-109452381D01*
X47464286Y-109404762D01*
X47416667Y-109357143D01*
X30083334Y-124607143D02*
X30035715Y-124654762D01*
X29892858Y-124702381D01*
X29797620Y-124702381D01*
X29654762Y-124654762D01*
X29559524Y-124559524D01*
X29511905Y-124464286D01*
X29464286Y-124273810D01*
X29464286Y-124130952D01*
X29511905Y-123940476D01*
X29559524Y-123845238D01*
X29654762Y-123750000D01*
X29797620Y-123702381D01*
X29892858Y-123702381D01*
X30035715Y-123750000D01*
X30083334Y-123797619D01*
X30940477Y-124035714D02*
X30940477Y-124702381D01*
X30702381Y-123654762D02*
X30464286Y-124369048D01*
X31083334Y-124369048D01*
X69833334Y-158857143D02*
X69785715Y-158904762D01*
X69642858Y-158952381D01*
X69547620Y-158952381D01*
X69404762Y-158904762D01*
X69309524Y-158809524D01*
X69261905Y-158714286D01*
X69214286Y-158523810D01*
X69214286Y-158380952D01*
X69261905Y-158190476D01*
X69309524Y-158095238D01*
X69404762Y-158000000D01*
X69547620Y-157952381D01*
X69642858Y-157952381D01*
X69785715Y-158000000D01*
X69833334Y-158047619D01*
X70738096Y-157952381D02*
X70261905Y-157952381D01*
X70214286Y-158428571D01*
X70261905Y-158380952D01*
X70357143Y-158333333D01*
X70595239Y-158333333D01*
X70690477Y-158380952D01*
X70738096Y-158428571D01*
X70785715Y-158523810D01*
X70785715Y-158761905D01*
X70738096Y-158857143D01*
X70690477Y-158904762D01*
X70595239Y-158952381D01*
X70357143Y-158952381D01*
X70261905Y-158904762D01*
X70214286Y-158857143D01*
X69833334Y-153857143D02*
X69785715Y-153904762D01*
X69642858Y-153952381D01*
X69547620Y-153952381D01*
X69404762Y-153904762D01*
X69309524Y-153809524D01*
X69261905Y-153714286D01*
X69214286Y-153523810D01*
X69214286Y-153380952D01*
X69261905Y-153190476D01*
X69309524Y-153095238D01*
X69404762Y-153000000D01*
X69547620Y-152952381D01*
X69642858Y-152952381D01*
X69785715Y-153000000D01*
X69833334Y-153047619D01*
X70690477Y-152952381D02*
X70500000Y-152952381D01*
X70404762Y-153000000D01*
X70357143Y-153047619D01*
X70261905Y-153190476D01*
X70214286Y-153380952D01*
X70214286Y-153761905D01*
X70261905Y-153857143D01*
X70309524Y-153904762D01*
X70404762Y-153952381D01*
X70595239Y-153952381D01*
X70690477Y-153904762D01*
X70738096Y-153857143D01*
X70785715Y-153761905D01*
X70785715Y-153523810D01*
X70738096Y-153428571D01*
X70690477Y-153380952D01*
X70595239Y-153333333D01*
X70404762Y-153333333D01*
X70309524Y-153380952D01*
X70261905Y-153428571D01*
X70214286Y-153523810D01*
X41833334Y-92857143D02*
X41785715Y-92904762D01*
X41642858Y-92952381D01*
X41547620Y-92952381D01*
X41404762Y-92904762D01*
X41309524Y-92809524D01*
X41261905Y-92714286D01*
X41214286Y-92523810D01*
X41214286Y-92380952D01*
X41261905Y-92190476D01*
X41309524Y-92095238D01*
X41404762Y-92000000D01*
X41547620Y-91952381D01*
X41642858Y-91952381D01*
X41785715Y-92000000D01*
X41833334Y-92047619D01*
X42166667Y-91952381D02*
X42833334Y-91952381D01*
X42404762Y-92952381D01*
X45083334Y-92857143D02*
X45035715Y-92904762D01*
X44892858Y-92952381D01*
X44797620Y-92952381D01*
X44654762Y-92904762D01*
X44559524Y-92809524D01*
X44511905Y-92714286D01*
X44464286Y-92523810D01*
X44464286Y-92380952D01*
X44511905Y-92190476D01*
X44559524Y-92095238D01*
X44654762Y-92000000D01*
X44797620Y-91952381D01*
X44892858Y-91952381D01*
X45035715Y-92000000D01*
X45083334Y-92047619D01*
X45654762Y-92380952D02*
X45559524Y-92333333D01*
X45511905Y-92285714D01*
X45464286Y-92190476D01*
X45464286Y-92142857D01*
X45511905Y-92047619D01*
X45559524Y-92000000D01*
X45654762Y-91952381D01*
X45845239Y-91952381D01*
X45940477Y-92000000D01*
X45988096Y-92047619D01*
X46035715Y-92142857D01*
X46035715Y-92190476D01*
X45988096Y-92285714D01*
X45940477Y-92333333D01*
X45845239Y-92380952D01*
X45654762Y-92380952D01*
X45559524Y-92428571D01*
X45511905Y-92476190D01*
X45464286Y-92571429D01*
X45464286Y-92761905D01*
X45511905Y-92857143D01*
X45559524Y-92904762D01*
X45654762Y-92952381D01*
X45845239Y-92952381D01*
X45940477Y-92904762D01*
X45988096Y-92857143D01*
X46035715Y-92761905D01*
X46035715Y-92571429D01*
X45988096Y-92476190D01*
X45940477Y-92428571D01*
X45845239Y-92380952D01*
X95357143Y-145416666D02*
X95404762Y-145464285D01*
X95452381Y-145607142D01*
X95452381Y-145702380D01*
X95404762Y-145845238D01*
X95309524Y-145940476D01*
X95214286Y-145988095D01*
X95023810Y-146035714D01*
X94880952Y-146035714D01*
X94690476Y-145988095D01*
X94595238Y-145940476D01*
X94500000Y-145845238D01*
X94452381Y-145702380D01*
X94452381Y-145607142D01*
X94500000Y-145464285D01*
X94547619Y-145416666D01*
X95452381Y-144940476D02*
X95452381Y-144750000D01*
X95404762Y-144654761D01*
X95357143Y-144607142D01*
X95214286Y-144511904D01*
X95023810Y-144464285D01*
X94642857Y-144464285D01*
X94547619Y-144511904D01*
X94500000Y-144559523D01*
X94452381Y-144654761D01*
X94452381Y-144845238D01*
X94500000Y-144940476D01*
X94547619Y-144988095D01*
X94642857Y-145035714D01*
X94880952Y-145035714D01*
X94976190Y-144988095D01*
X95023810Y-144940476D01*
X95071429Y-144845238D01*
X95071429Y-144654761D01*
X95023810Y-144559523D01*
X94976190Y-144511904D01*
X94880952Y-144464285D01*
X92607143Y-152107143D02*
X92559524Y-152154762D01*
X92416667Y-152202381D01*
X92321429Y-152202381D01*
X92178571Y-152154762D01*
X92083333Y-152059524D01*
X92035714Y-151964286D01*
X91988095Y-151773810D01*
X91988095Y-151630952D01*
X92035714Y-151440476D01*
X92083333Y-151345238D01*
X92178571Y-151250000D01*
X92321429Y-151202381D01*
X92416667Y-151202381D01*
X92559524Y-151250000D01*
X92607143Y-151297619D01*
X93559524Y-152202381D02*
X92988095Y-152202381D01*
X93273809Y-152202381D02*
X93273809Y-151202381D01*
X93178571Y-151345238D01*
X93083333Y-151440476D01*
X92988095Y-151488095D01*
X94178571Y-151202381D02*
X94273810Y-151202381D01*
X94369048Y-151250000D01*
X94416667Y-151297619D01*
X94464286Y-151392857D01*
X94511905Y-151583333D01*
X94511905Y-151821429D01*
X94464286Y-152011905D01*
X94416667Y-152107143D01*
X94369048Y-152154762D01*
X94273810Y-152202381D01*
X94178571Y-152202381D01*
X94083333Y-152154762D01*
X94035714Y-152107143D01*
X93988095Y-152011905D01*
X93940476Y-151821429D01*
X93940476Y-151583333D01*
X93988095Y-151392857D01*
X94035714Y-151297619D01*
X94083333Y-151250000D01*
X94178571Y-151202381D01*
X76857143Y-142607143D02*
X76809524Y-142654762D01*
X76666667Y-142702381D01*
X76571429Y-142702381D01*
X76428571Y-142654762D01*
X76333333Y-142559524D01*
X76285714Y-142464286D01*
X76238095Y-142273810D01*
X76238095Y-142130952D01*
X76285714Y-141940476D01*
X76333333Y-141845238D01*
X76428571Y-141750000D01*
X76571429Y-141702381D01*
X76666667Y-141702381D01*
X76809524Y-141750000D01*
X76857143Y-141797619D01*
X77809524Y-142702381D02*
X77238095Y-142702381D01*
X77523809Y-142702381D02*
X77523809Y-141702381D01*
X77428571Y-141845238D01*
X77333333Y-141940476D01*
X77238095Y-141988095D01*
X78761905Y-142702381D02*
X78190476Y-142702381D01*
X78476190Y-142702381D02*
X78476190Y-141702381D01*
X78380952Y-141845238D01*
X78285714Y-141940476D01*
X78190476Y-141988095D01*
X73107143Y-142607143D02*
X73059524Y-142654762D01*
X72916667Y-142702381D01*
X72821429Y-142702381D01*
X72678571Y-142654762D01*
X72583333Y-142559524D01*
X72535714Y-142464286D01*
X72488095Y-142273810D01*
X72488095Y-142130952D01*
X72535714Y-141940476D01*
X72583333Y-141845238D01*
X72678571Y-141750000D01*
X72821429Y-141702381D01*
X72916667Y-141702381D01*
X73059524Y-141750000D01*
X73107143Y-141797619D01*
X74059524Y-142702381D02*
X73488095Y-142702381D01*
X73773809Y-142702381D02*
X73773809Y-141702381D01*
X73678571Y-141845238D01*
X73583333Y-141940476D01*
X73488095Y-141988095D01*
X74440476Y-141797619D02*
X74488095Y-141750000D01*
X74583333Y-141702381D01*
X74821429Y-141702381D01*
X74916667Y-141750000D01*
X74964286Y-141797619D01*
X75011905Y-141892857D01*
X75011905Y-141988095D01*
X74964286Y-142130952D01*
X74392857Y-142702381D01*
X75011905Y-142702381D01*
X34607143Y-65892857D02*
X34654762Y-65940476D01*
X34702381Y-66083333D01*
X34702381Y-66178571D01*
X34654762Y-66321429D01*
X34559524Y-66416667D01*
X34464286Y-66464286D01*
X34273810Y-66511905D01*
X34130952Y-66511905D01*
X33940476Y-66464286D01*
X33845238Y-66416667D01*
X33750000Y-66321429D01*
X33702381Y-66178571D01*
X33702381Y-66083333D01*
X33750000Y-65940476D01*
X33797619Y-65892857D01*
X34702381Y-64940476D02*
X34702381Y-65511905D01*
X34702381Y-65226191D02*
X33702381Y-65226191D01*
X33845238Y-65321429D01*
X33940476Y-65416667D01*
X33988095Y-65511905D01*
X33702381Y-64607143D02*
X33702381Y-63988095D01*
X34083333Y-64321429D01*
X34083333Y-64178571D01*
X34130952Y-64083333D01*
X34178571Y-64035714D01*
X34273810Y-63988095D01*
X34511905Y-63988095D01*
X34607143Y-64035714D01*
X34654762Y-64083333D01*
X34702381Y-64178571D01*
X34702381Y-64464286D01*
X34654762Y-64559524D01*
X34607143Y-64607143D01*
X72857143Y-96107143D02*
X72809524Y-96154762D01*
X72666667Y-96202381D01*
X72571429Y-96202381D01*
X72428571Y-96154762D01*
X72333333Y-96059524D01*
X72285714Y-95964286D01*
X72238095Y-95773810D01*
X72238095Y-95630952D01*
X72285714Y-95440476D01*
X72333333Y-95345238D01*
X72428571Y-95250000D01*
X72571429Y-95202381D01*
X72666667Y-95202381D01*
X72809524Y-95250000D01*
X72857143Y-95297619D01*
X73809524Y-96202381D02*
X73238095Y-96202381D01*
X73523809Y-96202381D02*
X73523809Y-95202381D01*
X73428571Y-95345238D01*
X73333333Y-95440476D01*
X73238095Y-95488095D01*
X74666667Y-95535714D02*
X74666667Y-96202381D01*
X74428571Y-95154762D02*
X74190476Y-95869048D01*
X74809524Y-95869048D01*
X28607143Y-81607143D02*
X28559524Y-81654762D01*
X28416667Y-81702381D01*
X28321429Y-81702381D01*
X28178571Y-81654762D01*
X28083333Y-81559524D01*
X28035714Y-81464286D01*
X27988095Y-81273810D01*
X27988095Y-81130952D01*
X28035714Y-80940476D01*
X28083333Y-80845238D01*
X28178571Y-80750000D01*
X28321429Y-80702381D01*
X28416667Y-80702381D01*
X28559524Y-80750000D01*
X28607143Y-80797619D01*
X29559524Y-81702381D02*
X28988095Y-81702381D01*
X29273809Y-81702381D02*
X29273809Y-80702381D01*
X29178571Y-80845238D01*
X29083333Y-80940476D01*
X28988095Y-80988095D01*
X30464286Y-80702381D02*
X29988095Y-80702381D01*
X29940476Y-81178571D01*
X29988095Y-81130952D01*
X30083333Y-81083333D01*
X30321429Y-81083333D01*
X30416667Y-81130952D01*
X30464286Y-81178571D01*
X30511905Y-81273810D01*
X30511905Y-81511905D01*
X30464286Y-81607143D01*
X30416667Y-81654762D01*
X30321429Y-81702381D01*
X30083333Y-81702381D01*
X29988095Y-81654762D01*
X29940476Y-81607143D01*
X62357143Y-118357143D02*
X62309524Y-118404762D01*
X62166667Y-118452381D01*
X62071429Y-118452381D01*
X61928571Y-118404762D01*
X61833333Y-118309524D01*
X61785714Y-118214286D01*
X61738095Y-118023810D01*
X61738095Y-117880952D01*
X61785714Y-117690476D01*
X61833333Y-117595238D01*
X61928571Y-117500000D01*
X62071429Y-117452381D01*
X62166667Y-117452381D01*
X62309524Y-117500000D01*
X62357143Y-117547619D01*
X63309524Y-118452381D02*
X62738095Y-118452381D01*
X63023809Y-118452381D02*
X63023809Y-117452381D01*
X62928571Y-117595238D01*
X62833333Y-117690476D01*
X62738095Y-117738095D01*
X64166667Y-117452381D02*
X63976190Y-117452381D01*
X63880952Y-117500000D01*
X63833333Y-117547619D01*
X63738095Y-117690476D01*
X63690476Y-117880952D01*
X63690476Y-118261905D01*
X63738095Y-118357143D01*
X63785714Y-118404762D01*
X63880952Y-118452381D01*
X64071429Y-118452381D01*
X64166667Y-118404762D01*
X64214286Y-118357143D01*
X64261905Y-118261905D01*
X64261905Y-118023810D01*
X64214286Y-117928571D01*
X64166667Y-117880952D01*
X64071429Y-117833333D01*
X63880952Y-117833333D01*
X63785714Y-117880952D01*
X63738095Y-117928571D01*
X63690476Y-118023810D01*
X30202381Y-73988095D02*
X29202381Y-73988095D01*
X29202381Y-73750000D01*
X29250000Y-73607142D01*
X29345238Y-73511904D01*
X29440476Y-73464285D01*
X29630952Y-73416666D01*
X29773810Y-73416666D01*
X29964286Y-73464285D01*
X30059524Y-73511904D01*
X30154762Y-73607142D01*
X30202381Y-73750000D01*
X30202381Y-73988095D01*
X30202381Y-72464285D02*
X30202381Y-73035714D01*
X30202381Y-72750000D02*
X29202381Y-72750000D01*
X29345238Y-72845238D01*
X29440476Y-72940476D01*
X29488095Y-73035714D01*
X64952381Y-106988095D02*
X63952381Y-106988095D01*
X63952381Y-106750000D01*
X64000000Y-106607142D01*
X64095238Y-106511904D01*
X64190476Y-106464285D01*
X64380952Y-106416666D01*
X64523810Y-106416666D01*
X64714286Y-106464285D01*
X64809524Y-106511904D01*
X64904762Y-106607142D01*
X64952381Y-106750000D01*
X64952381Y-106988095D01*
X64047619Y-106035714D02*
X64000000Y-105988095D01*
X63952381Y-105892857D01*
X63952381Y-105654761D01*
X64000000Y-105559523D01*
X64047619Y-105511904D01*
X64142857Y-105464285D01*
X64238095Y-105464285D01*
X64380952Y-105511904D01*
X64952381Y-106083333D01*
X64952381Y-105464285D01*
X61452381Y-136583333D02*
X62166667Y-136583333D01*
X62309524Y-136630953D01*
X62404762Y-136726191D01*
X62452381Y-136869048D01*
X62452381Y-136964286D01*
X62452381Y-135583333D02*
X62452381Y-136154762D01*
X62452381Y-135869048D02*
X61452381Y-135869048D01*
X61595238Y-135964286D01*
X61690476Y-136059524D01*
X61738095Y-136154762D01*
X113916667Y-143452381D02*
X113916667Y-144166667D01*
X113869047Y-144309524D01*
X113773809Y-144404762D01*
X113630952Y-144452381D01*
X113535714Y-144452381D01*
X114345238Y-143547619D02*
X114392857Y-143500000D01*
X114488095Y-143452381D01*
X114726191Y-143452381D01*
X114821429Y-143500000D01*
X114869048Y-143547619D01*
X114916667Y-143642857D01*
X114916667Y-143738095D01*
X114869048Y-143880952D01*
X114297619Y-144452381D01*
X114916667Y-144452381D01*
X110952381Y-122833333D02*
X111666667Y-122833333D01*
X111809524Y-122880953D01*
X111904762Y-122976191D01*
X111952381Y-123119048D01*
X111952381Y-123214286D01*
X110952381Y-122452381D02*
X110952381Y-121833333D01*
X111333333Y-122166667D01*
X111333333Y-122023809D01*
X111380952Y-121928571D01*
X111428571Y-121880952D01*
X111523810Y-121833333D01*
X111761905Y-121833333D01*
X111857143Y-121880952D01*
X111904762Y-121928571D01*
X111952381Y-122023809D01*
X111952381Y-122309524D01*
X111904762Y-122404762D01*
X111857143Y-122452381D01*
X51666667Y-94052381D02*
X51666667Y-94766667D01*
X51619047Y-94909524D01*
X51523809Y-95004762D01*
X51380952Y-95052381D01*
X51285714Y-95052381D01*
X52571429Y-94385714D02*
X52571429Y-95052381D01*
X52333333Y-94004762D02*
X52095238Y-94719048D01*
X52714286Y-94719048D01*
X35702381Y-118083333D02*
X36416667Y-118083333D01*
X36559524Y-118130953D01*
X36654762Y-118226191D01*
X36702381Y-118369048D01*
X36702381Y-118464286D01*
X35702381Y-117130952D02*
X35702381Y-117607143D01*
X36178571Y-117654762D01*
X36130952Y-117607143D01*
X36083333Y-117511905D01*
X36083333Y-117273809D01*
X36130952Y-117178571D01*
X36178571Y-117130952D01*
X36273810Y-117083333D01*
X36511905Y-117083333D01*
X36607143Y-117130952D01*
X36654762Y-117178571D01*
X36702381Y-117273809D01*
X36702381Y-117511905D01*
X36654762Y-117607143D01*
X36607143Y-117654762D01*
X107802381Y-97083333D02*
X108516667Y-97083333D01*
X108659524Y-97130953D01*
X108754762Y-97226191D01*
X108802381Y-97369048D01*
X108802381Y-97464286D01*
X107802381Y-96178571D02*
X107802381Y-96369048D01*
X107850000Y-96464286D01*
X107897619Y-96511905D01*
X108040476Y-96607143D01*
X108230952Y-96654762D01*
X108611905Y-96654762D01*
X108707143Y-96607143D01*
X108754762Y-96559524D01*
X108802381Y-96464286D01*
X108802381Y-96273809D01*
X108754762Y-96178571D01*
X108707143Y-96130952D01*
X108611905Y-96083333D01*
X108373810Y-96083333D01*
X108278571Y-96130952D01*
X108230952Y-96178571D01*
X108183333Y-96273809D01*
X108183333Y-96464286D01*
X108230952Y-96559524D01*
X108278571Y-96607143D01*
X108373810Y-96654762D01*
X87602381Y-43583333D02*
X88316667Y-43583333D01*
X88459524Y-43630953D01*
X88554762Y-43726191D01*
X88602381Y-43869048D01*
X88602381Y-43964286D01*
X87602381Y-43202381D02*
X87602381Y-42535714D01*
X88602381Y-42964286D01*
X50999181Y-116768066D02*
X50999181Y-117244257D01*
X49999181Y-117244257D01*
X50999181Y-115910923D02*
X50999181Y-116482352D01*
X50999181Y-116196638D02*
X49999181Y-116196638D01*
X50142038Y-116291876D01*
X50237276Y-116387114D01*
X50284895Y-116482352D01*
X44249181Y-117018066D02*
X44249181Y-117494257D01*
X43249181Y-117494257D01*
X43344419Y-116732352D02*
X43296800Y-116684733D01*
X43249181Y-116589495D01*
X43249181Y-116351399D01*
X43296800Y-116256161D01*
X43344419Y-116208542D01*
X43439657Y-116160923D01*
X43534895Y-116160923D01*
X43677752Y-116208542D01*
X44249181Y-116779971D01*
X44249181Y-116160923D01*
X34499181Y-133268066D02*
X34499181Y-133744257D01*
X33499181Y-133744257D01*
X33499181Y-133029971D02*
X33499181Y-132410923D01*
X33880133Y-132744257D01*
X33880133Y-132601399D01*
X33927752Y-132506161D01*
X33975371Y-132458542D01*
X34070610Y-132410923D01*
X34308705Y-132410923D01*
X34403943Y-132458542D01*
X34451562Y-132506161D01*
X34499181Y-132601399D01*
X34499181Y-132887114D01*
X34451562Y-132982352D01*
X34403943Y-133029971D01*
X27499181Y-133268066D02*
X27499181Y-133744257D01*
X26499181Y-133744257D01*
X26832514Y-132506161D02*
X27499181Y-132506161D01*
X26451562Y-132744257D02*
X27165848Y-132982352D01*
X27165848Y-132363304D01*
X29452381Y-76166666D02*
X29452381Y-76642857D01*
X28452381Y-76642857D01*
X28452381Y-75357142D02*
X28452381Y-75833333D01*
X28928571Y-75880952D01*
X28880952Y-75833333D01*
X28833333Y-75738095D01*
X28833333Y-75499999D01*
X28880952Y-75404761D01*
X28928571Y-75357142D01*
X29023810Y-75309523D01*
X29261905Y-75309523D01*
X29357143Y-75357142D01*
X29404762Y-75404761D01*
X29452381Y-75499999D01*
X29452381Y-75738095D01*
X29404762Y-75833333D01*
X29357143Y-75880952D01*
X59702381Y-107166666D02*
X59702381Y-107642857D01*
X58702381Y-107642857D01*
X58702381Y-106404761D02*
X58702381Y-106595238D01*
X58750000Y-106690476D01*
X58797619Y-106738095D01*
X58940476Y-106833333D01*
X59130952Y-106880952D01*
X59511905Y-106880952D01*
X59607143Y-106833333D01*
X59654762Y-106785714D01*
X59702381Y-106690476D01*
X59702381Y-106499999D01*
X59654762Y-106404761D01*
X59607143Y-106357142D01*
X59511905Y-106309523D01*
X59273810Y-106309523D01*
X59178571Y-106357142D01*
X59130952Y-106404761D01*
X59083333Y-106499999D01*
X59083333Y-106690476D01*
X59130952Y-106785714D01*
X59178571Y-106833333D01*
X59273810Y-106880952D01*
X54302381Y-131809524D02*
X53302381Y-131809524D01*
X54016667Y-131476190D01*
X53302381Y-131142857D01*
X54302381Y-131142857D01*
X54302381Y-130142857D02*
X54302381Y-130714286D01*
X54302381Y-130428572D02*
X53302381Y-130428572D01*
X53445238Y-130523810D01*
X53540476Y-130619048D01*
X53588095Y-130714286D01*
X25940476Y-154302381D02*
X25940476Y-153302381D01*
X26273810Y-154016667D01*
X26607143Y-153302381D01*
X26607143Y-154302381D01*
X27035714Y-153397619D02*
X27083333Y-153350000D01*
X27178571Y-153302381D01*
X27416667Y-153302381D01*
X27511905Y-153350000D01*
X27559524Y-153397619D01*
X27607143Y-153492857D01*
X27607143Y-153588095D01*
X27559524Y-153730952D01*
X26988095Y-154302381D01*
X27607143Y-154302381D01*
X112452381Y-132059524D02*
X111452381Y-132059524D01*
X112166667Y-131726190D01*
X111452381Y-131392857D01*
X112452381Y-131392857D01*
X111452381Y-131011905D02*
X111452381Y-130392857D01*
X111833333Y-130726191D01*
X111833333Y-130583333D01*
X111880952Y-130488095D01*
X111928571Y-130440476D01*
X112023810Y-130392857D01*
X112261905Y-130392857D01*
X112357143Y-130440476D01*
X112404762Y-130488095D01*
X112452381Y-130583333D01*
X112452381Y-130869048D01*
X112404762Y-130964286D01*
X112357143Y-131011905D01*
X103702381Y-138416666D02*
X103226190Y-138750000D01*
X103702381Y-138988095D02*
X102702381Y-138988095D01*
X102702381Y-138607142D01*
X102750000Y-138511904D01*
X102797619Y-138464285D01*
X102892857Y-138416666D01*
X103035714Y-138416666D01*
X103130952Y-138464285D01*
X103178571Y-138511904D01*
X103226190Y-138607142D01*
X103226190Y-138988095D01*
X103702381Y-137464285D02*
X103702381Y-138035714D01*
X103702381Y-137750000D02*
X102702381Y-137750000D01*
X102845238Y-137845238D01*
X102940476Y-137940476D01*
X102988095Y-138035714D01*
X107702381Y-129916666D02*
X107226190Y-130250000D01*
X107702381Y-130488095D02*
X106702381Y-130488095D01*
X106702381Y-130107142D01*
X106750000Y-130011904D01*
X106797619Y-129964285D01*
X106892857Y-129916666D01*
X107035714Y-129916666D01*
X107130952Y-129964285D01*
X107178571Y-130011904D01*
X107226190Y-130107142D01*
X107226190Y-130488095D01*
X106797619Y-129535714D02*
X106750000Y-129488095D01*
X106702381Y-129392857D01*
X106702381Y-129154761D01*
X106750000Y-129059523D01*
X106797619Y-129011904D01*
X106892857Y-128964285D01*
X106988095Y-128964285D01*
X107130952Y-129011904D01*
X107702381Y-129583333D01*
X107702381Y-128964285D01*
X36333334Y-57452381D02*
X36000000Y-56976190D01*
X35761905Y-57452381D02*
X35761905Y-56452381D01*
X36142858Y-56452381D01*
X36238096Y-56500000D01*
X36285715Y-56547619D01*
X36333334Y-56642857D01*
X36333334Y-56785714D01*
X36285715Y-56880952D01*
X36238096Y-56928571D01*
X36142858Y-56976190D01*
X35761905Y-56976190D01*
X36666667Y-56452381D02*
X37285715Y-56452381D01*
X36952381Y-56833333D01*
X37095239Y-56833333D01*
X37190477Y-56880952D01*
X37238096Y-56928571D01*
X37285715Y-57023810D01*
X37285715Y-57261905D01*
X37238096Y-57357143D01*
X37190477Y-57404762D01*
X37095239Y-57452381D01*
X36809524Y-57452381D01*
X36714286Y-57404762D01*
X36666667Y-57357143D01*
X36333334Y-50202381D02*
X36000000Y-49726190D01*
X35761905Y-50202381D02*
X35761905Y-49202381D01*
X36142858Y-49202381D01*
X36238096Y-49250000D01*
X36285715Y-49297619D01*
X36333334Y-49392857D01*
X36333334Y-49535714D01*
X36285715Y-49630952D01*
X36238096Y-49678571D01*
X36142858Y-49726190D01*
X35761905Y-49726190D01*
X37190477Y-49535714D02*
X37190477Y-50202381D01*
X36952381Y-49154762D02*
X36714286Y-49869048D01*
X37333334Y-49869048D01*
X48452381Y-83916666D02*
X47976190Y-84250000D01*
X48452381Y-84488095D02*
X47452381Y-84488095D01*
X47452381Y-84107142D01*
X47500000Y-84011904D01*
X47547619Y-83964285D01*
X47642857Y-83916666D01*
X47785714Y-83916666D01*
X47880952Y-83964285D01*
X47928571Y-84011904D01*
X47976190Y-84107142D01*
X47976190Y-84488095D01*
X47452381Y-83011904D02*
X47452381Y-83488095D01*
X47928571Y-83535714D01*
X47880952Y-83488095D01*
X47833333Y-83392857D01*
X47833333Y-83154761D01*
X47880952Y-83059523D01*
X47928571Y-83011904D01*
X48023810Y-82964285D01*
X48261905Y-82964285D01*
X48357143Y-83011904D01*
X48404762Y-83059523D01*
X48452381Y-83154761D01*
X48452381Y-83392857D01*
X48404762Y-83488095D01*
X48357143Y-83535714D01*
X49202381Y-73166666D02*
X48726190Y-73500000D01*
X49202381Y-73738095D02*
X48202381Y-73738095D01*
X48202381Y-73357142D01*
X48250000Y-73261904D01*
X48297619Y-73214285D01*
X48392857Y-73166666D01*
X48535714Y-73166666D01*
X48630952Y-73214285D01*
X48678571Y-73261904D01*
X48726190Y-73357142D01*
X48726190Y-73738095D01*
X48202381Y-72309523D02*
X48202381Y-72500000D01*
X48250000Y-72595238D01*
X48297619Y-72642857D01*
X48440476Y-72738095D01*
X48630952Y-72785714D01*
X49011905Y-72785714D01*
X49107143Y-72738095D01*
X49154762Y-72690476D01*
X49202381Y-72595238D01*
X49202381Y-72404761D01*
X49154762Y-72309523D01*
X49107143Y-72261904D01*
X49011905Y-72214285D01*
X48773810Y-72214285D01*
X48678571Y-72261904D01*
X48630952Y-72309523D01*
X48583333Y-72404761D01*
X48583333Y-72595238D01*
X48630952Y-72690476D01*
X48678571Y-72738095D01*
X48773810Y-72785714D01*
X109488095Y-148452381D02*
X109488095Y-149261905D01*
X109535714Y-149357143D01*
X109583333Y-149404762D01*
X109678571Y-149452381D01*
X109869048Y-149452381D01*
X109964286Y-149404762D01*
X110011905Y-149357143D01*
X110059524Y-149261905D01*
X110059524Y-148452381D01*
X111059524Y-149452381D02*
X110488095Y-149452381D01*
X110773809Y-149452381D02*
X110773809Y-148452381D01*
X110678571Y-148595238D01*
X110583333Y-148690476D01*
X110488095Y-148738095D01*
X33988095Y-86952381D02*
X33988095Y-87761905D01*
X34035714Y-87857143D01*
X34083333Y-87904762D01*
X34178571Y-87952381D01*
X34369048Y-87952381D01*
X34464286Y-87904762D01*
X34511905Y-87857143D01*
X34559524Y-87761905D01*
X34559524Y-86952381D01*
X34988095Y-87047619D02*
X35035714Y-87000000D01*
X35130952Y-86952381D01*
X35369048Y-86952381D01*
X35464286Y-87000000D01*
X35511905Y-87047619D01*
X35559524Y-87142857D01*
X35559524Y-87238095D01*
X35511905Y-87380952D01*
X34940476Y-87952381D01*
X35559524Y-87952381D01*
X80238095Y-122982381D02*
X80238095Y-123791905D01*
X80285714Y-123887143D01*
X80333333Y-123934762D01*
X80428571Y-123982381D01*
X80619048Y-123982381D01*
X80714286Y-123934762D01*
X80761905Y-123887143D01*
X80809524Y-123791905D01*
X80809524Y-122982381D01*
X81190476Y-122982381D02*
X81809524Y-122982381D01*
X81476190Y-123363333D01*
X81619048Y-123363333D01*
X81714286Y-123410952D01*
X81761905Y-123458571D01*
X81809524Y-123553810D01*
X81809524Y-123791905D01*
X81761905Y-123887143D01*
X81714286Y-123934762D01*
X81619048Y-123982381D01*
X81333333Y-123982381D01*
X81238095Y-123934762D01*
X81190476Y-123887143D01*
X115302381Y-103511905D02*
X116111905Y-103511905D01*
X116207143Y-103464286D01*
X116254762Y-103416667D01*
X116302381Y-103321429D01*
X116302381Y-103130952D01*
X116254762Y-103035714D01*
X116207143Y-102988095D01*
X116111905Y-102940476D01*
X115302381Y-102940476D01*
X115635714Y-102035714D02*
X116302381Y-102035714D01*
X115254762Y-102273810D02*
X115969048Y-102511905D01*
X115969048Y-101892857D01*
X42702381Y-73761905D02*
X43511905Y-73761905D01*
X43607143Y-73714286D01*
X43654762Y-73666667D01*
X43702381Y-73571429D01*
X43702381Y-73380952D01*
X43654762Y-73285714D01*
X43607143Y-73238095D01*
X43511905Y-73190476D01*
X42702381Y-73190476D01*
X42702381Y-72238095D02*
X42702381Y-72714286D01*
X43178571Y-72761905D01*
X43130952Y-72714286D01*
X43083333Y-72619048D01*
X43083333Y-72380952D01*
X43130952Y-72285714D01*
X43178571Y-72238095D01*
X43273810Y-72190476D01*
X43511905Y-72190476D01*
X43607143Y-72238095D01*
X43654762Y-72285714D01*
X43702381Y-72380952D01*
X43702381Y-72619048D01*
X43654762Y-72714286D01*
X43607143Y-72761905D01*
X36702381Y-69714285D02*
X36702381Y-70285714D01*
X36702381Y-70000000D02*
X35702381Y-70000000D01*
X35845238Y-70095238D01*
X35940476Y-70190476D01*
X35988095Y-70285714D01*
X78782381Y-107261905D02*
X79591905Y-107261905D01*
X79687143Y-107214286D01*
X79734762Y-107166667D01*
X79782381Y-107071429D01*
X79782381Y-106880952D01*
X79734762Y-106785714D01*
X79687143Y-106738095D01*
X79591905Y-106690476D01*
X78782381Y-106690476D01*
X78782381Y-105785714D02*
X78782381Y-105976191D01*
X78830000Y-106071429D01*
X78877619Y-106119048D01*
X79020476Y-106214286D01*
X79210952Y-106261905D01*
X79591905Y-106261905D01*
X79687143Y-106214286D01*
X79734762Y-106166667D01*
X79782381Y-106071429D01*
X79782381Y-105880952D01*
X79734762Y-105785714D01*
X79687143Y-105738095D01*
X79591905Y-105690476D01*
X79353810Y-105690476D01*
X79258571Y-105738095D01*
X79210952Y-105785714D01*
X79163333Y-105880952D01*
X79163333Y-106071429D01*
X79210952Y-106166667D01*
X79258571Y-106214286D01*
X79353810Y-106261905D01*
X76452381Y-112464285D02*
X76452381Y-113035714D01*
X76452381Y-112750000D02*
X75452381Y-112750000D01*
X75595238Y-112845238D01*
X75690476Y-112940476D01*
X75738095Y-113035714D01*
X28202381Y-42511905D02*
X29011905Y-42511905D01*
X29107143Y-42464286D01*
X29154762Y-42416667D01*
X29202381Y-42321429D01*
X29202381Y-42130952D01*
X29154762Y-42035714D01*
X29107143Y-41988095D01*
X29011905Y-41940476D01*
X28202381Y-41940476D01*
X28202381Y-41559524D02*
X28202381Y-40892857D01*
X29202381Y-41321429D01*
X72916190Y-154226191D02*
X73392381Y-154226191D01*
X72392381Y-154559524D02*
X72916190Y-154226191D01*
X72392381Y-153892857D01*
X73392381Y-153035714D02*
X73392381Y-153607143D01*
X73392381Y-153321429D02*
X72392381Y-153321429D01*
X72535238Y-153416667D01*
X72630476Y-153511905D01*
X72678095Y-153607143D01*
X26381771Y-44184314D02*
X26429390Y-44041457D01*
X26477010Y-43993838D01*
X26572248Y-43946219D01*
X26715105Y-43946219D01*
X26810343Y-43993838D01*
X26857962Y-44041457D01*
X26905581Y-44136695D01*
X26905581Y-44517648D01*
X25905581Y-44517648D01*
X25905581Y-44184314D01*
X25953200Y-44089076D01*
X26000819Y-44041457D01*
X26096057Y-43993838D01*
X26191295Y-43993838D01*
X26286533Y-44041457D01*
X26334152Y-44089076D01*
X26381771Y-44184314D01*
X26381771Y-44517648D01*
X25905581Y-43660505D02*
X25905581Y-43089076D01*
X26905581Y-43374791D02*
X25905581Y-43374791D01*
X26905581Y-42231933D02*
X26905581Y-42803362D01*
X26905581Y-42517648D02*
X25905581Y-42517648D01*
X26048438Y-42612886D01*
X26143676Y-42708124D01*
X26191295Y-42803362D01*
M02*
